<?xml version="1.0" encoding="UTF-8"?>
<svg width="40px" height="40px" viewBox="0 0 40 40" version="1.1" xmlns="http://www.w3.org/2000/svg" xmlns:xlink="http://www.w3.org/1999/xlink">
    <!-- Generator: Sketch 41 (35326) - http://www.bohemiancoding.com/sketch -->
    <title>coffee</title>
    <desc>Created with Sketch.</desc>
    <defs></defs>
    <g id="Page-1" stroke="none" stroke-width="1" fill="none" fill-rule="evenodd">
        <g id="coffee" fill="#000000">
            <g id="Group" transform="translate(6.000000, 5.000000)">
                <path d="M17.1334507,7.01214692 C16.3470985,7.04217473 15.5641234,7.12568257 14.7936994,7.23846753 C12.8703535,7.52002499 10.8546257,7.84120733 9.06714192,8.77949858 C8.68205252,8.98163808 8.25568973,9.35103935 7.90283578,9.67625551 C7.54998154,10.0014717 7.28023088,10.2828111 7.28023088,10.2828111 L7,10.5760526 L7.34882305,10.7756005 C7.34882305,10.7756005 8.92547824,11.6896888 9.8761763,11.9832418 C11.9966888,12.6380163 14.2192557,12.8783074 16.404147,12.9809875 C17.951176,13.0536928 19.4946112,12.9076686 21.0109537,12.716341 C22.1219682,12.5761603 23.3372604,12.5442884 24.4499369,12.0355631 C24.7534893,11.8967748 25.0695861,11.6414232 25.3340122,11.4156196 C25.5984385,11.1898192 25.8006728,10.992187 25.8006728,10.992187 L26,10.7975046 L25.8317442,10.5736198 C25.8317442,10.5736198 25.5158629,10.1530467 25.0918882,9.66652139 C24.6679133,9.17999608 24.1481999,8.62726318 23.6579038,8.32929633 C22.3848361,7.55562851 20.8954841,7.28700419 19.4925485,7.10644795 C18.7091826,7.00562739 17.9198029,6.98212845 17.1334507,7.01214692 L17.1334507,7.01214692 Z M17.1551435,7.63513057 C17.9153164,7.60609953 18.6730741,7.62862039 19.4186816,7.72456298 C20.7996427,7.90229087 22.2071795,8.1690587 23.3548103,8.86649824 C23.7141271,9.08486647 24.2389847,9.61575133 24.6469207,10.0838706 C24.9499466,10.4316045 25.0689377,10.5946237 25.175138,10.7324059 C25.0965744,10.8053698 25.078763,10.8264515 24.9523605,10.9343897 C24.7045278,11.1460235 24.387511,11.383617 24.2084004,11.4655082 C23.2384823,11.9089635 22.0863961,11.9533604 20.9382595,12.0982259 C19.4341763,12.2880054 17.9236633,12.4287592 16.4311164,12.3586144 C14.2703,12.2570618 12.0963044,12.0190945 10.047365,11.3864173 C9.42082972,11.192959 8.4531337,10.6714532 8.00836338,10.4276081 C8.11451531,10.3219687 8.1352269,10.2955168 8.30149198,10.1422753 C8.63916395,9.83105137 9.06740607,9.47759848 9.33799419,9.33556132 C11.0115758,8.45705781 12.9602291,8.13604369 14.8775356,7.85536463 C15.6326925,7.74481618 16.3949707,7.66415226 17.1551435,7.63513057 Z" id="Shape"></path>
                <path d="M7.24872207,11 C7.24872207,11 6.94425491,12.7810198 6.79162217,13.6711525 C6.58133504,14.8975248 6.26888208,16.1327194 6.14886111,17.4143179 C5.91531552,19.9082791 6.02640357,24.8300692 6.02640357,24.8300692 L6.02923511,24.9790737 L6.15564292,25.0613764 C6.15564292,25.0613764 7.26058678,25.7882646 7.93720318,26.0755694 C9.75547834,26.8476088 11.6776705,27.4416626 13.6419203,27.7464187 C15.3794265,28.0159877 17.1772166,28.0933653 18.9329903,27.8670686 C20.3523903,27.684158 22.8657406,26.7411078 22.8657406,26.7411078 L23.0350366,26.6782777 L23.0519651,26.5014878 C23.0519651,26.5014878 23.2228295,24.7377171 23.3256607,23.8664648 L23.3256607,23.8664648 C23.8238384,19.6450871 25,11.2068555 25,11.2068555 L24.4277788,11.1290111 C24.4277788,11.1290111 23.2517718,19.5638378 22.7517467,23.8008732 C22.6543009,24.6264904 22.5169509,26.0504032 22.4961094,26.2651702 C22.2286356,26.3618495 20.0305993,27.1522226 18.8584987,27.3032769 C17.1700277,27.5208907 15.4254401,27.4470716 13.7316461,27.1842782 C11.824147,26.8883473 9.94693547,26.3097804 8.16575198,25.5534557 C7.65594276,25.3370091 6.75346261,24.7562217 6.60258369,24.6599125 C6.59710842,24.3914538 6.50541089,19.806504 6.72447694,17.4671555 C6.83912666,16.2429213 7.1464008,15.0217901 7.36159486,13.7668041 C7.51430562,12.8762159 7.81813049,11.0950936 7.81813049,11.0950936 L7.24873103,11.0005694 L7.24872207,11 Z" id="Shape"></path>
                <path d="M24.6888536,11.0000013 C24.6874912,10.9997107 24.7590163,11.0493467 24.8051409,11.0714294 L24.815979,11.0283962 C24.7466165,11.0111629 24.6914617,11.0005924 24.688851,11.0000413 L24.6888536,11.0000013 Z M24.9362105,11.1037168 L24.8879234,11.1233047 C24.9006082,11.1346266 24.9033732,11.1263105 24.9155182,11.1399369 C25.0159207,11.2539974 25.0027182,11.2948114 24.994357,11.2681147 C24.9859963,11.2414131 24.9665401,11.1790275 24.9362136,11.1037319 L24.9362105,11.1037168 Z M24.7814892,11.165361 L24,11.4765077 C24.0168778,11.5184388 24.0214946,11.536634 24.0305516,11.5655499 C24.0396086,11.5944558 24.0376811,11.6653178 24.1557082,11.7994021 C24.2737328,11.9334814 24.4268419,11.9686093 24.4720487,11.9784583 C24.517258,11.9882773 24.5329425,11.9903814 24.5715829,12 L24.7814908,11.1653761 L24.7814892,11.165361 Z" id="Shape"></path>
                <path d="M17.4187259,9.00488293 C16.8992296,9.01784462 16.3833574,9.05455742 15.8742917,9.09161226 C14.8445606,9.16656804 13.8232349,9.31869091 12.814328,9.50709751 C12.0311003,9.6533606 11.1632766,9.71604179 10.3585356,10.0989698 C10.0632012,10.2395051 9.74244845,10.4918531 9.47438233,10.7142871 C9.2063165,10.9367182 9.00000029,11.1297694 9,11.1297694 L9.38936752,11.5745535 C9.38936752,11.5745535 9.58417592,11.3928587 9.83767859,11.1825103 C10.0911816,10.9721618 10.4128545,10.7335466 10.6011111,10.6439639 C11.2795566,10.3211308 12.0940179,10.2509906 12.917479,10.0972146 C13.9126382,9.91137329 14.9133701,9.76343597 15.9150988,9.69052045 C16.9316184,9.61652779 17.9424493,9.54859892 18.92292,9.65770217 C19.8794479,9.76414107 20.8409978,9.87891505 21.6388574,10.291769 C21.9719531,10.4641325 22.4784927,10.8979981 22.8766719,11.2821323 C23.2748511,11.6662694 23.5760597,12 23.5760597,12 L24,11.5903775 C24,11.5903775 23.6863475,11.2426771 23.2722737,10.843208 C22.8582003,10.4437388 22.3546974,9.99166377 21.8984356,9.75556595 C20.9751,9.27778356 19.9423812,9.16764518 18.9852642,9.06114028 C18.4615109,9.00285767 17.9382225,8.99191224 17.4187259,9.00488293 L17.4187259,9.00488293 Z" id="Shape"></path>
                <path d="M4.72352092,16.0213147 C4.36390282,15.9920417 4.0121739,15.9892185 3.70686927,16.0363897 C3.44649665,16.0765168 3.13311592,16.1285668 2.83670913,16.2382035 C2.54030264,16.3478402 2.24290879,16.5252598 2.09194616,16.8292002 C1.94454111,17.1264253 1.99535401,17.4399315 2.09780545,17.7066228 C2.2003157,17.9734786 2.35805596,18.2138845 2.48688711,18.4116691 C2.88246168,19.0189468 3.52094232,19.4058 4.06430837,19.7730281 C4.58119422,20.1223307 5.14728189,20.3729328 5.68274765,20.6241928 C5.99566965,20.7710785 6.58513568,21 6.58513568,21 L6.82128,20.4962741 C6.82128,20.4962741 6.21978579,20.2598426 5.95697975,20.1365287 C5.41407212,19.8817604 4.87890427,19.6417656 4.42116184,19.332453 C3.86455403,18.9562621 3.30665707,18.5980241 3.00253749,18.1311362 C2.87503572,17.9354072 2.73939814,17.7197518 2.66443495,17.5246259 C2.58947146,17.3294725 2.57865442,17.1752685 2.63806665,17.0556548 C2.70143457,16.9280651 2.8442851,16.8268704 3.06230614,16.7462326 C3.28032747,16.6655948 3.55542121,16.6152442 3.80648347,16.5765424 C4.24424553,16.5090336 5.02950929,16.5910693 5.6757162,16.7028713 C6.32192312,16.8146733 6.8394453,16.9464567 6.8394453,16.9464567 L7,16.4180625 C7,16.4180625 6.46024793,16.28077 5.78704988,16.1643358 C5.45045071,16.1060913 5.08313903,16.0506425 4.72352092,16.0213969 L4.72352092,16.0213147 Z" id="Shape"></path>
                <path d="M6.79435399,13.0425538 C6.12613657,12.9978907 5.33471156,12.9683922 4.75563804,13.059463 C3.7186443,13.2225774 2.7185854,13.60236 1.82544465,14.105081 C1.28634205,14.4085211 0.62677359,14.7580881 0.279807602,15.3893762 C-0.079234967,16.0426223 -0.0115334987,16.7871962 0.0461790967,17.4123299 C0.110259829,18.1058774 0.32659116,18.7867877 0.640702169,19.4055581 C1.01368978,20.140333 1.54044581,20.796955 2.12424329,21.3725262 C2.71037175,21.9503679 3.39305379,22.4416319 4.11807802,22.8411798 C5.09140487,23.3775849 7.06241212,24 7.06241212,24 L7.26407041,23.4340187 C7.26407041,23.4340187 5.26220869,22.7811908 4.43409124,22.3247909 C3.75455073,21.9502783 3.1182678,21.4908908 2.57797436,20.95825 C2.02911724,20.4171246 1.543401,19.807496 1.20755862,19.1459147 C0.922911584,18.5851615 0.730260452,17.9706035 0.673902025,17.3598396 C0.617096321,16.7445048 0.590259376,16.1168018 0.838056767,15.6659288 C1.0715519,15.2411067 1.60657462,14.9233266 2.14699114,14.6191397 C2.98220161,14.1490271 3.91347525,13.7980858 4.85892643,13.6493772 C5.31715922,13.5773008 6.1018573,13.5949211 6.75070231,13.6382936 C7.39954763,13.6816631 7.92007454,13.7450727 7.92007454,13.7450727 L8,13.1528253 C8,13.1528253 7.46257173,13.0872109 6.79435399,13.0425448 L6.79435399,13.0425538 Z" id="Shape"></path>
                <path d="M18.2610062,6.10783471e-14 L17.769443,0.371457905 C17.769443,0.371457905 17.8954784,0.475098962 18.0291745,0.611751395 C18.1628702,0.748403828 18.2897759,0.934504827 18.3001982,0.976915407 C18.3627429,1.23143261 18.2518936,1.55670306 18.0637166,1.83525687 C17.9007505,2.076461 17.4964031,2.28986777 17.0606616,2.52780542 C16.6249202,2.76574575 16.1324122,3.05133754 16.0184146,3.54144729 C15.9319923,3.91276282 16.1668237,4.23799835 16.3678232,4.51259262 C16.5688227,4.78718689 16.7816664,5 16.7816664,5 L17.3157431,4.66684002 C17.3157431,4.66684002 17.1292017,4.4800782 16.9563707,4.24396721 C16.7835394,4.00785353 16.6704366,3.71113259 16.6873393,3.63850971 C16.7443823,3.39326545 17.0331656,3.19658061 17.4479339,2.97009447 C17.8627022,2.74360833 18.3782933,2.5103582 18.6635567,2.08814083 C18.8980668,1.74100159 19.0753722,1.31238019 18.9677945,0.874606732 C18.9074745,0.629161008 18.7251844,0.444755035 18.5672369,0.283316535 C18.4092895,0.121875349 18.2610062,0 18.2610062,0 L18.2610062,6.10783471e-14 Z" id="Shape"></path>
                <path d="M15.8401093,0 L15.4421339,0.469606018 C15.4421339,0.469606018 15.6370232,0.571312036 15.845014,0.713495257 C16.0530044,0.855675659 16.2501282,1.05961762 16.2682129,1.11098082 C16.3032366,1.21052768 16.1763052,1.42471015 16.0531102,1.72538022 C15.9400405,2.00133552 15.6974469,2.290849 15.4631538,2.60954213 C15.2288604,2.92823527 14.9977281,3.28732951 15.0000169,3.71557042 L15.0000169,3.71613417 L15.0000169,3.71669792 C15.0030661,4.03298667 15.1906174,4.31912328 15.357354,4.56452337 C15.5240902,4.80992627 15.6901678,5 15.6901678,5 L16.2822263,4.68178887 C16.2822263,4.68178887 16.1369064,4.51427639 15.9907514,4.29916655 C15.8447169,4.08423148 15.7186082,3.80768706 15.7174936,3.71284469 C15.7162739,3.44987536 15.8675815,3.18669461 16.0846397,2.89144499 C16.3018278,2.59601779 16.5793543,2.27949226 16.7355536,1.89827651 C16.8189201,1.69481373 17.1043969,1.37178818 16.9597651,0.960713436 C16.851825,0.654152183 16.5628821,0.457372657 16.3158581,0.28850718 C16.0688337,0.119644522 15.8401093,2.81874669e-05 15.8401093,2.81874669e-05 L15.8401093,0 Z" id="Shape"></path>
                <path d="M20.261006,1 L19.7694423,1.37145791 C19.7694423,1.37145791 19.8954781,1.47510165 20.0291739,1.61175139 C20.1628696,1.74840383 20.2897758,1.93450751 20.300198,1.97691541 C20.3627427,2.23143261 20.2512292,2.55670306 20.0630521,2.83525687 C19.9000859,3.076461 19.4964027,3.28986777 19.0606611,3.5278081 C18.6249195,3.76574575 18.1324114,4.05134023 18.0184138,4.54144998 C17.9319925,4.91275745 18.1668321,5.23799835 18.3678225,5.51259262 C18.5688128,5.78718689 18.7816658,6 18.7816658,6 L19.3157427,5.66684271 C19.3157427,5.66684271 19.129193,5.4800782 18.9563698,5.24396721 C18.7835466,5.00785353 18.6704349,4.71113796 18.6873387,4.63850971 C18.7443817,4.39326545 19.0325008,4.19658061 19.4472692,3.97009447 C19.8620376,3.74360833 20.3782931,3.5103582 20.6635566,3.08814352 C20.8980667,2.74100427 21.0753722,2.31238019 20.9677945,1.87460673 C20.9074742,1.62916101 20.7251844,1.44475504 20.5672368,1.28331654 C20.409289,1.12187535 20.261006,1 20.261006,1 L20.261006,1 Z" id="Shape"></path>
            </g>
        </g>
    </g>
</svg>