<?xml version="1.0" encoding="UTF-8"?>
<svg width="40px" height="40px" viewBox="0 0 40 40" version="1.1" xmlns="http://www.w3.org/2000/svg" xmlns:xlink="http://www.w3.org/1999/xlink">
    <!-- Generator: Sketch 41 (35326) - http://www.bohemiancoding.com/sketch -->
    <title>exposed</title>
    <desc>Created with Sketch.</desc>
    <defs></defs>
    <g id="Page-1" stroke="none" stroke-width="1" fill="none" fill-rule="evenodd">
        <g id="exposed" fill="#D1D1D1">
            <g id="Group" transform="translate(4.000000, 8.000000)">
                <path d="M0.733389234,9 L18.6002904,9 C21.0319888,9 23,6.98727156 23,4.50031999 C23,2.02328806 21.0476328,0.0182393515 18.6293881,0.00191993174 C16.2468118,0.0175993742 14.3407507,1.91737183 14.2390649,4.30160705 C14.2155989,4.37520444 14.1993292,4.45296167 14.1993292,4.53487876 C14.1993292,4.94926403 14.5275396,5.28493209 14.9327184,5.28493209 C15.3378972,5.28493209 15.6661077,4.94926403 15.6661077,4.53487876 C15.6661077,4.52303918 15.6632917,4.51183958 15.662666,4.5 C15.6958312,2.84821873 16.998348,1.51066629 18.6112411,1.50106663 C20.2269502,1.50778639 21.5329087,2.8462988 21.5329087,4.50031999 C21.5329087,6.15850103 20.2210055,7.50021333 18.5996646,7.50021333 L0.733389234,7.50021333 C0.328210455,7.50021333 0,7.83588139 0,8.25026666 C0,8.66465192 0.328210455,9 0.733389234,9 Z" id="Shape"></path>
                <path d="M12.7054431,13.0048159 L0.731140977,13 C0.32706477,13 0,13.3367937 0,13.7525685 C0,14.1683433 0.32706477,14.505137 0.73082919,14.505137 L12.6153366,14.505137 C14.2238468,14.505137 15.5261819,15.8401113 15.5374063,17.4938998 C15.5324177,19.1534675 14.2275882,20.4951841 12.6147131,20.4951841 C11.0744843,20.4951841 9.81673477,19.270655 9.70293244,17.7144692 C9.71446857,17.661494 9.72163967,17.6065925 9.72163967,17.5500856 C9.72163967,17.1343108 9.3945749,16.7975171 8.99081048,16.7975171 C8.60855938,16.7975171 8.29864291,17.1002783 8.26652882,17.4852312 C8.23036151,19.9808433 10.1918148,22 12.6147131,22 C15.0282578,22 16.9819163,19.9968964 16.9978175,17.5150899 C16.9825399,15.0352098 15.0765848,13.0545805 12.7054431,13.0048159 Z" id="Shape"></path>
                <path d="M23.6290288,10.0041586 L19.0803629,10 L18.8632871,10 L0.750480256,10 C0.335859125,10 0,10.3355655 0,10.7498241 C0,11.1640827 0.335859125,11.4996481 0.750480256,11.4996481 L18.8632871,11.4996481 L19.0803629,11.4996481 L23.4615795,11.4996481 C26.7881537,11.4996481 29.4801494,14.180653 29.498079,17.4998401 C29.4801494,20.816468 26.7929562,23.4952336 23.4702241,23.500032 C21.8924226,23.4952336 20.6056564,22.2770894 20.488794,20.7297776 C20.5003202,20.6769956 20.5080043,20.6226141 20.5080043,20.5659935 C20.5080043,20.1517349 20.1721451,19.8161694 19.757524,19.8161694 C19.3649947,19.8161694 19.0470651,20.1178264 19.0137673,20.5013755 C18.9759872,22.9824487 20.9812166,24.9894436 23.4612593,24.9990403 C27.6157951,24.9904033 30.9635005,21.66002 30.9983991,17.5324689 C30.9641409,13.3905227 27.6964781,10.0930882 23.6290288,10.0041586 Z" id="Shape"></path>
            </g>
        </g>
    </g>
</svg>