<?xml version="1.0" encoding="UTF-8"?>
<svg width="40px" height="40px" viewBox="0 0 40 40" version="1.1" xmlns="http://www.w3.org/2000/svg" xmlns:xlink="http://www.w3.org/1999/xlink">
    <!-- Generator: Sketch 41 (35326) - http://www.bohemiancoding.com/sketch -->
    <title>favourite</title>
    <desc>Created with Sketch.</desc>
    <defs></defs>
    <g id="Page-1" stroke="none" stroke-width="1" fill="none" fill-rule="evenodd">
        <g id="favourite" fill="#979797">
            <path d="M19.7890933,10.8858028 C19.8070589,10.9182321 19.8222943,10.9455919 19.834047,10.9664877 C19.8786934,11.0458674 19.9212722,11.1205114 19.9627278,11.1919757 C19.9802862,11.2222627 19.9991335,11.2505538 20.0191155,11.2768909 C20.3630431,11.7302021 21.0430953,11.6046318 21.2721967,11.1135668 C21.3326626,10.9599797 21.3729198,10.8610864 21.4154942,10.763424 C22.4434095,8.40546491 24.8220405,6.7650988 27.5450755,6.47174392 C30.6654296,6.1356263 32.4967991,8.20438468 32.8650314,11.7992988 C33.1238385,14.3245283 32.8842966,16.2612553 31.9312625,17.7736789 C31.5358549,18.400994 31.1156536,18.8831121 30.1834648,19.8418692 C30.1372102,19.8894344 30.1372102,19.8894344 30.0908457,19.937109 C29.1240279,20.9313664 28.6806568,21.4361991 28.2325247,22.1256785 C27.3254919,23.5210781 26.389197,24.6934263 24.6325249,26.7230803 C24.5255812,26.8466428 24.0992798,27.3383856 23.9932683,27.4608673 C23.8684771,27.6050464 23.759012,27.7317906 23.654434,27.8532462 C22.8832875,28.7489126 22.367848,29.557871 21.4628028,31.1723539 C21.0882041,31.8405892 20.9404325,32.1029157 20.7896294,32.3599792 C20.7417847,32.4415367 20.6936348,32.5225646 20.6378391,32.6158574 C20.5296387,32.7967732 20.4242234,32.9682112 20.31914,33.1337407 C20.1993459,33.3220542 20.1763043,33.5261992 20.2274861,33.7081714 C20.2777007,33.8867052 20.3993603,34.043896 20.5711885,34.1438531 C20.906455,34.3388868 21.3436227,34.2657567 21.5717863,33.9065205 C21.8854101,33.4128022 22.1033786,33.0049118 22.5626244,32.0906387 C22.942208,31.3349731 23.1183145,30.9998001 23.3522006,30.6069019 C23.7996678,29.8543611 24.3512664,29.1813125 25.3553918,28.0951596 C25.4379592,28.0058473 25.7846164,27.632427 25.8742056,27.5354772 C26.075127,27.3180483 26.2339516,27.1438201 26.3837732,26.9756326 C27.0980476,26.1737477 27.6340145,25.4646578 28.7014663,23.9657468 L28.7734046,23.8647237 C30.1433214,21.9409552 30.8073227,21.0929553 31.7495386,20.1724876 C33.3058116,18.6518349 34.0781096,17.1144567 34.3461558,14.9776934 C34.6324075,12.6997632 34.4338848,10.2249115 33.6862263,8.52328701 C31.2882073,3.0635883 23.4996056,4.44955259 20.5516287,9.26365809 C20.2971207,9.67927479 20.0786919,10.1204428 19.9029257,10.5849631 L19.6213523,11.3291137 L20.4102228,11.225542 C20.6476012,11.1943765 20.7527828,11.1806246 20.884302,11.1636451 L21.5944305,11.0719655 L21.2352159,10.4525686 C21.1767667,10.3517841 21.1161042,10.2462389 21.0437487,10.1196148 C20.9584749,9.97019574 20.9584749,9.97019574 20.8730673,9.82030349 C20.7610049,9.62372208 20.6542079,9.43857603 20.5516287,9.26365809 C19.690672,7.79555461 19.1268379,7.04796045 18.2407535,6.30708564 C17.0144764,5.28173339 15.3452779,4.98859273 13.2473888,5.1666543 C9.31346663,5.50083688 6.59859174,8.39025999 6.50236255,12.3282548 C6.42994885,15.2957728 7.8392137,18.058596 10.7531392,21.7753703 C11.1646111,22.3002114 12.5272847,23.9886487 12.563354,24.0338696 C14.5127188,26.4781625 15.6516821,28.040352 16.7090702,29.8227724 C17.9857065,31.9744006 18.7520191,32.9389257 20.0693259,33.644704 C20.1215262,33.6724549 20.1744757,33.6934616 20.2274861,33.7081714 C20.5574033,33.7997197 20.8896792,33.6473655 21.0583815,33.3589245 C21.2593945,33.0152401 21.1726659,32.5702789 20.7896294,32.3599792 C19.6024964,31.7241347 18.8437852,30.7493465 17.6161962,28.5903065 C17.4977222,28.3816044 17.4977222,28.3816044 17.3790496,28.1724112 C16.765486,27.0922064 16.4071314,26.5146518 15.9608767,25.9399777 C15.5573176,25.4203132 15.1962591,24.963541 14.517607,24.1107585 C14.4078432,23.9728401 14.4078432,23.9728401 14.2981505,23.8350005 C11.6749351,20.5383338 10.4753926,18.8947658 9.28266002,16.7809653 C6.95430868,12.6540279 7.95035805,8.19959675 12.0525031,6.89066033 C13.7323577,6.35461608 15.6287711,6.46955023 17.0238181,7.24328657 C17.830752,7.69092333 18.4398915,8.45580273 19.2040755,9.82143475 C19.2937197,9.98163303 19.6379829,10.613038 19.7890933,10.8858028 Z M20.2363919,32.8781621 C20.2844689,32.7959618 20.4132639,32.7490902 20.517683,32.804601 C19.407356,32.2097141 18.7171157,31.3409382 17.5280434,29.3368893 C16.4430551,27.5079437 15.2824145,25.9160218 13.3078255,23.4401005 C13.2680275,23.3902049 11.9090607,21.7063605 11.5025451,21.1878412 C8.71651967,17.6342062 7.38894074,15.0315259 7.45433899,12.3515012 C7.538711,8.89873889 9.87848909,6.40852877 13.3279579,6.1155 C15.1993696,5.95666105 16.63964,6.2095979 17.6299237,7.03762415 C18.507094,7.77104568 19.0476895,8.54102746 20.0457851,10.2919006 C20.1310866,10.4416069 20.1310866,10.4416069 20.2169522,10.5920627 C20.2902369,10.720313 20.3518623,10.8275336 20.4114606,10.9302994 L20.8233383,10.691434 L20.7623745,10.219223 C20.7096681,10.2260275 20.661152,10.2323186 20.6068515,10.2393949 C20.5814793,10.2427014 20.5548441,10.2461793 20.5259285,10.2499611 C20.4612473,10.2584206 20.3851554,10.2684008 20.2862634,10.2813844 L20.3482431,10.7534632 L20.7935605,10.9219634 C22.7412109,5.77465346 30.6109911,3.88970601 32.8143835,8.90628801 C33.4826658,10.4272572 33.6679577,12.737168 33.4013136,14.8590647 C33.1602612,16.7806434 32.4873404,18.120196 31.0840624,19.4913555 C30.0881587,20.4642718 29.4001117,21.3429805 27.9977177,23.3123565 L27.9257981,23.4133535 C26.8779825,24.8846914 26.3567078,25.5743433 25.6727106,26.3422374 C25.5273493,26.5054178 25.372151,26.675668 25.1748306,26.8892 C25.0862052,26.9851068 24.7396415,27.3584265 24.6561566,27.4487313 C23.6092108,28.5812025 23.0248296,29.2942517 22.5338253,30.1200125 C22.2846947,30.5385193 22.1013365,30.8874941 21.7222016,31.6422662 C21.2666956,32.5490938 21.0588562,32.9380294 20.767971,33.3959517 C20.8318459,33.2953827 20.9674428,33.2726998 21.050018,33.320736 C21.1440161,33.3754172 21.1949634,33.5311145 21.1228444,33.6444839 C21.2328844,33.4711469 21.3427028,33.2925484 21.4550905,33.1046311 C21.6932758,32.7063746 21.7948175,32.5274938 22.2934504,31.6379975 C23.1690153,30.0761036 23.6581895,29.3083676 24.3760641,28.474575 C24.4800452,28.3538128 24.5889929,28.2276675 24.7132862,28.0840637 C24.8189661,27.9619651 25.2452737,27.4702152 25.352552,27.3462661 C27.1360849,25.2855773 28.0936597,24.0865841 29.030946,22.6446419 C29.4345493,22.0236729 29.8490668,21.5516935 30.7735501,20.600972 C30.8198391,20.5533752 30.8198391,20.5533752 30.8662079,20.5056926 C31.8436919,19.5003493 32.2947773,18.9827962 32.7368793,18.2814005 C33.8271748,16.5511489 34.0908226,14.4195222 33.8123322,11.7022384 C33.3960006,7.63774836 31.1702432,5.12348002 27.443084,5.52496133 C24.4448258,5.84796625 21.8072046,7.63552799 20.6068515,10.2393949 C20.5936157,10.2681068 20.5805546,10.2969179 20.5676697,10.3258273 C20.5096109,10.4560922 20.4551296,10.5883546 20.4043577,10.7225351 C20.4574135,10.5828127 20.6859898,10.5427551 20.7858571,10.713171 C20.7467632,10.64576 20.7064659,10.57511 20.6640346,10.4996686 C20.6427186,10.4617696 20.6089264,10.4007266 20.5676697,10.3258273 C20.5544658,10.3018564 20.5404973,10.2764661 20.5259285,10.2499611 C20.3584383,9.94524576 20.1116088,9.49318859 20.0350761,9.35642123 C19.1904242,7.84698928 18.4902542,6.96780554 17.4857221,6.41055359 C15.8486814,5.5026 13.6815571,5.37125914 11.7630232,5.98346634 C7.00847447,7.50057554 5.85748897,12.6478964 8.45330419,17.2489059 C9.67853707,19.4203047 10.8992269,21.0928478 13.5530061,24.4279249 C13.6627639,24.5658463 13.6627639,24.5658463 13.7724959,24.7037247 C14.448899,25.5536812 14.8082025,26.0082331 15.2087628,26.5240361 C15.6185282,27.0517203 15.9592367,27.600835 16.5510385,28.6427271 C16.6692336,28.8510792 16.6692336,28.8510792 16.7883893,29.0609817 C18.1025654,31.3723081 18.9417534,32.4504926 20.3324097,33.1952876 C20.2135741,33.1315914 20.1817615,32.9715671 20.2363919,32.8781621 Z" id="Shape"></path>
        </g>
    </g>
</svg>