<?xml version="1.0" encoding="UTF-8"?>
<svg width="40px" height="40px" viewBox="0 0 40 40" version="1.1" xmlns="http://www.w3.org/2000/svg" xmlns:xlink="http://www.w3.org/1999/xlink">
    <!-- Generator: Sketch 41 (35326) - http://www.bohemiancoding.com/sketch -->
    <title>goodWalk</title>
    <desc>Created with Sketch.</desc>
    <defs></defs>
    <g id="Page-1" stroke="none" stroke-width="1" fill="none" fill-rule="evenodd">
        <g id="goodWalk" fill="#000000">
            <path d="M13.7926475,15.8883409 C13.2704233,15.0740988 13.3653555,12.8713165 13.6025889,11.5781661 C13.7841055,10.5892058 15.2639997,9.75831454 15.0741352,6.93265761 C14.9741555,5.44833567 13.4602877,5.11280605 12.5109656,5.11280605 C11.5614494,5.11280605 8.80860947,8.2256121 8.66611409,8.94407249 C8.52381284,9.66233701 9.99516501,13.3502248 10.3275248,14.3080414 C10.6598846,15.265858 11.4193423,19.528044 11.8938092,20.5816422 C12.3684702,21.6352405 15.3589319,22.2579192 15.8809619,20.3900789 C16.4033803,18.5226303 14.3146776,16.7025829 13.7926475,15.8883409 Z M8.20387771,6.56598425 C7.69601952,6.8878028 8.20640147,8.74819997 8.97148907,8.06323378 C9.73638253,7.37807171 8.71193004,6.24436158 8.20387771,6.56598425 Z M9.89926213,6.61789047 C10.6725034,6.31272109 9.99807704,4.59472324 9.24056073,4.8052862 C8.48304441,5.01584915 9.12582671,6.92305985 9.89926213,6.61789047 Z M10.8109219,5.56899314 C11.631144,5.44911916 11.0959127,3.38285997 10.3187887,3.5544443 C9.54147059,3.72602862 9.99031163,5.68867125 10.8109219,5.56899314 Z M12.0489234,4.84465657 C12.9504881,4.90165547 12.9656307,2.68594556 11.8813845,2.55902016 C10.7965559,2.43248652 11.1475527,4.78765767 12.0489234,4.84465657 Z M13.3179865,4.87344983 C13.6977153,5.01702439 14.6944064,5.4481398 14.931834,5.06501315 C15.1690675,4.68188651 15.4538641,2 13.7450843,2 C13.128122,2 12.653461,2.86183908 12.8431313,3.58029947 C13.0329957,4.29856399 12.9382576,4.72987528 13.3179865,4.87344983 Z" id="Shape"></path>
            <path d="M24.453115,20.1130019 C23.5037929,20.1130019 21.9899251,20.4483357 21.8901395,21.9328535 C21.7002751,24.7585104 23.1799751,25.5892058 23.3616858,26.578362 C23.5987251,27.8715123 23.6936573,30.0742947 23.1716272,30.8885367 C22.6495972,31.7025829 20.5608944,33.5226303 21.0831187,35.3902748 C21.6049546,37.2579192 24.5954162,36.6352405 25.0700773,35.5818381 C25.5447383,34.5284357 26.304196,30.265858 26.6363617,29.3082373 C26.9687215,28.3504206 28.4400736,24.6627288 28.2977724,23.9442684 C28.1554711,23.225808 25.4024371,20.1130019 24.453115,20.1130019 Z M28.7602029,21.5659843 C28.2525388,21.2443616 27.2276981,22.3780717 27.9927857,23.0632338 C28.7578733,23.7482 29.2680611,21.8878028 28.7602029,21.5659843 Z M27.0650126,21.6178905 C27.8382539,21.9230599 28.4812303,20.0158492 27.723714,19.8052862 C26.9661977,19.5947232 26.2915772,21.3127211 27.0650126,21.6178905 Z M26.1533528,20.5689931 C26.973769,20.6886712 27.4228041,18.7260286 26.645486,18.5544443 C25.868362,18.38286 25.3331307,20.4491192 26.1533528,20.5689931 Z M24.9155455,19.8446566 C25.816722,19.7874618 26.1677188,17.4324865 25.0830844,17.5590202 C23.998644,17.6859456 24.0139807,19.9016555 24.9155455,19.8446566 Z M23.6462883,19.8734498 C24.025823,19.7298753 23.9310849,19.298564 24.1207552,18.5802995 C24.3106196,17.8618391 23.8361527,17 23.2189963,17 C21.5100224,17 21.7950132,19.6818865 22.0322466,20.0648173 C22.2698683,20.4481398 23.2665595,20.0170244 23.6462883,19.8734498 Z" id="Shape"></path>
        </g>
    </g>
</svg>