<?xml version="1.0" encoding="UTF-8"?>
<svg width="40px" height="40px" viewBox="0 0 40 40" version="1.1" xmlns="http://www.w3.org/2000/svg" xmlns:xlink="http://www.w3.org/1999/xlink">
    <!-- Generator: Sketch 41 (35326) - http://www.bohemiancoding.com/sketch -->
    <title>goodWalkLine</title>
    <desc>Created with Sketch.</desc>
    <defs>
        <path d="M15.7926475,15.8883409 C15.2704233,15.0740988 15.3653555,12.8713165 15.6025889,11.5781661 C15.7841055,10.5892058 17.2639997,9.75831454 17.0741352,6.93265761 C16.9741555,5.44833567 15.4602877,5.11280605 14.5109656,5.11280605 C13.5614494,5.11280605 10.8086095,8.2256121 10.6661141,8.94407249 C10.5238128,9.66233701 11.995165,13.3502248 12.3275248,14.3080414 C12.6598846,15.265858 13.4193423,19.528044 13.8938092,20.5816422 C14.3684702,21.6352405 17.3589319,22.2579192 17.8809619,20.3900789 C18.4033803,18.5226303 16.3146776,16.7025829 15.7926475,15.8883409 Z M10.2038777,6.56598425 C9.69601952,6.8878028 10.2064015,8.74819997 10.9714891,8.06323378 C11.7363825,7.37807171 10.71193,6.24436158 10.2038777,6.56598425 Z M11.8992621,6.61789047 C12.6725034,6.31272109 11.998077,4.59472324 11.2405607,4.8052862 C10.4830444,5.01584915 11.1258267,6.92305985 11.8992621,6.61789047 Z M12.8109219,5.56899314 C13.631144,5.44911916 13.0959127,3.38285997 12.3187887,3.5544443 C11.5414706,3.72602862 11.9903116,5.68867125 12.8109219,5.56899314 Z M14.0489234,4.84465657 C14.9504881,4.90165547 14.9656307,2.68594556 13.8813845,2.55902016 C12.7965559,2.43248652 13.1475527,4.78765767 14.0489234,4.84465657 Z M15.3179865,4.87344983 C15.6977153,5.01702439 16.6944064,5.4481398 16.931834,5.06501315 C17.1690675,4.68188651 17.4538641,2 15.7450843,2 C15.128122,2 14.653461,2.86183908 14.8431313,3.58029947 C15.0329957,4.29856399 14.9382576,4.72987528 15.3179865,4.87344983 Z" id="path-1"></path>
        <mask id="mask-2" maskContentUnits="userSpaceOnUse" maskUnits="objectBoundingBox" x="0" y="0" width="7.96413771" height="19.5872648" fill="white">
            <use xlink:href="#path-1"></use>
        </mask>
        <path d="M25.453115,20.1130019 C24.5037929,20.1130019 22.9899251,20.4483357 22.8901395,21.9328535 C22.7002751,24.7585104 24.1799751,25.5892058 24.3616858,26.578362 C24.5987251,27.8715123 24.6936573,30.0742947 24.1716272,30.8885367 C23.6495972,31.7025829 21.5608944,33.5226303 22.0831187,35.3902748 C22.6049546,37.2579192 25.5954162,36.6352405 26.0700773,35.5818381 C26.5447383,34.5284357 27.304196,30.265858 27.6363617,29.3082373 C27.9687215,28.3504206 29.4400736,24.6627288 29.2977724,23.9442684 C29.1554711,23.225808 26.4024371,20.1130019 25.453115,20.1130019 Z M29.7602029,21.5659843 C29.2525388,21.2443616 28.2276981,22.3780717 28.9927857,23.0632338 C29.7578733,23.7482 30.2680611,21.8878028 29.7602029,21.5659843 Z M28.0650126,21.6178905 C28.8382539,21.9230599 29.4812303,20.0158492 28.723714,19.8052862 C27.9661977,19.5947232 27.2915772,21.3127211 28.0650126,21.6178905 Z M27.1533528,20.5689931 C27.973769,20.6886712 28.4228041,18.7260286 27.645486,18.5544443 C26.868362,18.38286 26.3331307,20.4491192 27.1533528,20.5689931 Z M25.9155455,19.8446566 C26.816722,19.7874618 27.1677188,17.4324865 26.0830844,17.5590202 C24.998644,17.6859456 25.0139807,19.9016555 25.9155455,19.8446566 Z M24.6462883,19.8734498 C25.025823,19.7298753 24.9310849,19.298564 25.1207552,18.5802995 C25.3106196,17.8618391 24.8361527,17 24.2189963,17 C22.5100224,17 22.7950132,19.6818865 23.0322466,20.0648173 C23.2698683,20.4481398 24.2665595,20.0170244 24.6462883,19.8734498 Z" id="path-3"></path>
        <mask id="mask-4" maskContentUnits="userSpaceOnUse" maskUnits="objectBoundingBox" x="0" y="0" width="7.96411738" height="19.5873145" fill="white">
            <use xlink:href="#path-3"></use>
        </mask>
    </defs>
    <g id="Page-1" stroke="none" stroke-width="1" fill="none" fill-rule="evenodd">
        <g id="goodWalkLine" stroke="#979797" stroke-width="2">
            <use id="Shape" mask="url(#mask-2)" xlink:href="#path-1"></use>
            <use id="Shape" mask="url(#mask-4)" xlink:href="#path-3"></use>
        </g>
    </g>
</svg>