<?xml version="1.0" encoding="UTF-8"?>
<svg width="40px" height="40px" viewBox="0 0 40 40" version="1.1" xmlns="http://www.w3.org/2000/svg" xmlns:xlink="http://www.w3.org/1999/xlink">
    <!-- Generator: Sketch 41 (35326) - http://www.bohemiancoding.com/sketch -->
    <title>photogenic</title>
    <desc>Created with Sketch.</desc>
    <defs></defs>
    <g id="Page-1" stroke="none" stroke-width="1" fill="none" fill-rule="evenodd">
        <g id="photogenic" fill="#D1D1D1">
            <g id="Group" transform="translate(6.000000, 10.000000)">
                <path d="M11.721153,20.9348738 C10.7634997,20.9005442 9.80125495,21.0475282 8.84589744,20.8858792 C8.74685248,20.8692143 8.64124825,20.8905453 8.53892366,20.8982111 C7.54585035,20.9728697 6.55507279,20.8615485 5.5636393,20.8628817 C4.63091126,20.8642149 3.72769994,20.6462386 2.81038619,20.5395836 C2.3778024,20.4892558 1.93997121,20.3722685 1.56576492,20.086633 C1.07972309,19.7156735 0.797018604,19.219061 0.574987352,18.6604553 C0.116822421,17.5089142 -0.0153468468,16.3077119 0.00137928883,15.0808458 C0.0174494976,13.8969749 0.0128580094,12.7127708 0.108623335,11.5308997 C0.145027277,11.0802822 0.135516337,10.6259984 0.148634875,10.1733811 C0.169952499,9.44279416 0.20242088,8.71454028 0.276540618,7.9856198 C0.347052759,7.29502847 0.31097678,6.59343834 0.329670696,5.89684766 C0.337869782,5.5845484 0.36246704,5.27258243 0.384768555,4.96061646 C0.416253045,4.51533171 0.640908004,4.1747022 0.962312179,3.89139977 C1.43982695,3.47077899 2.00064444,3.22380593 2.61328016,3.09215363 C2.78054151,3.05615755 2.95173843,3.03082698 3.12227942,3.02082808 C4.01138832,2.96816715 4.89656165,2.86717817 5.78599851,2.81118428 C6.77349644,2.74885775 7.75345121,2.55787858 8.73570172,2.41489418 C8.94986185,2.38356426 9.11056394,2.24357953 9.22075966,2.05893301 C9.30898182,1.91061586 9.38998879,1.75463287 9.45000611,1.59298384 C9.54970699,1.32501307 9.72287169,1.11403609 9.90423547,0.903059105 C10.2626995,0.486104591 10.7015146,0.2427978 11.2531491,0.268794964 C11.8739839,0.298125098 12.483012,0.194136442 13.0959757,0.132143205 C14.1543137,0.0251548766 15.2175712,0.0478190708 16.2788609,0.00882332492 C17.2745579,-0.0275060452 18.2640237,0.0554849012 19.2548012,0.127810345 C19.4679775,0.143475302 19.6506531,0.213467667 19.82185,0.342120299 C20.1235764,0.568762241 20.4623626,0.753075467 20.7303088,1.01438029 C21.0054701,1.28268436 21.0366266,1.70530492 21.2147108,2.04126827 C21.3278581,2.25491163 21.4452691,2.46688851 21.5692392,2.67453252 C21.6446708,2.80085207 21.7709368,2.86784476 21.912617,2.87284422 C23.042779,2.91183997 24.173597,2.98216563 25.303759,2.96916704 C26.2030347,2.95916814 27.0770573,3.10948507 27.9582951,3.23180506 C28.1012872,3.25146958 28.2095151,3.34679252 28.2757637,3.47277877 C28.4535199,3.80940872 28.6378353,4.14403888 28.7900104,4.49266751 C28.9297228,4.8129659 28.9838368,5.16159454 28.9874444,5.51255625 C28.9946596,6.24347651 29.0104018,6.97506337 28.9897401,7.70531704 C28.9382499,9.51678609 28.9687505,11.3272553 28.9956435,13.1380577 C29.0100739,14.1126181 28.9785894,15.0881783 28.9707182,16.0634052 C28.9684225,16.3413749 29.0146653,16.6256772 28.9707182,16.8956478 C28.8529794,17.6145694 28.7270414,18.3348241 28.5486293,19.0400805 C28.39875,19.6323492 27.9481282,19.9563139 27.3814074,20.1016314 C26.8510905,20.2376165 26.3184779,20.3696021 25.7806178,20.4689246 C24.97186,20.6182417 24.1591666,20.7442279 23.3330266,20.7578931 C22.2704251,20.7755579 21.2081515,20.8045547 20.1462059,20.8425506 C19.6673792,20.8595487 19.1901924,20.9295411 18.7116938,20.9425396 C17.5467676,20.9735363 16.3815135,21.0021998 15.2165873,20.9998667 C14.0506773,20.9985335 12.8860791,20.9582046 11.721153,20.9348738 Z M27.4545432,3.93106211 C26.4385125,3.73774987 25.4241216,3.60343119 24.3939884,3.60776405 C23.4002592,3.61209691 22.4068579,3.61776296 21.4131286,3.61942944 C21.2766959,3.61976274 21.1399351,3.60243129 21.0038303,3.58776623 C20.8598543,3.57243457 20.7444112,3.5024422 20.6716033,3.37412287 C20.3315052,2.7758548 19.9054807,2.22858117 19.6795139,1.56232052 C19.5470166,1.17136317 19.2528334,0.957053215 18.8418952,0.883727881 C18.1639948,0.762407782 17.4841266,0.697748169 16.7963872,0.710413454 C15.7688778,0.729411382 14.7371048,0.698414763 13.7148427,0.782738898 C12.9651183,0.844732135 12.2147379,0.920723845 11.4637017,0.977051033 C11.2931607,0.989716318 11.1203239,0.997382149 10.9533905,1.03171174 C10.6749496,1.08903882 10.4404557,1.22535728 10.2971357,1.48866189 C10.0983898,1.85395537 9.89931602,2.21958215 9.70286592,2.58620882 C9.50903952,2.94783604 9.22403929,3.16547896 8.80982146,3.19814207 C8.40019512,3.23047187 7.98433747,3.23747111 7.58323818,3.31779568 C6.50325456,3.53377212 5.41179222,3.61409669 4.31639432,3.64376012 C3.69588748,3.66042497 3.090139,3.77274605 2.48078292,3.86473601 C2.10034533,3.92206309 1.76385484,4.09904379 1.45524124,4.32401924 C1.19057474,4.51699819 1.06102918,4.79896743 1.01970578,5.1215989 C1.00658724,5.22425437 0.999044085,5.33357578 1.01937782,5.43356487 C1.0751316,5.70653509 1.143348,5.97117289 0.988221291,6.23981025 C0.939354738,6.32413438 0.93574714,6.44145492 0.930171762,6.54477698 C0.874090013,7.58699661 0.820631971,8.62921625 0.769469674,9.67176918 C0.748807977,10.089057 0.748807977,10.507678 0.716995523,10.9239659 C0.594337195,12.5237914 0.616638709,14.1256166 0.652058761,15.726442 C0.670752678,16.5623508 0.751431685,17.3959265 1.18040787,18.1455114 C1.21353218,18.2035051 1.20697291,18.2831631 1.23452184,18.3458229 C1.56215732,19.0974076 2.11411979,19.5886873 2.91369467,19.7323383 C3.58601973,19.8533251 4.25998461,19.979978 4.94805191,19.9896436 C5.35899011,19.9956429 5.77386386,19.9913101 6.17988261,20.0453042 C6.93026297,20.1452933 7.67965944,20.1469598 8.43364739,20.1322947 C9.32341222,20.11463 10.213833,20.1339612 11.1042537,20.1332946 C11.5834083,20.1329613 12.0628909,20.1152966 12.5420455,20.1206293 C13.9122767,20.1352944 15.282508,20.1722903 16.6527393,20.1722903 C17.920318,20.1726236 19.1882246,20.1406271 20.4558034,20.1136301 C20.728341,20.107964 21.0035023,20.0823002 21.2714484,20.0323056 C21.7804477,19.937316 22.289447,19.8976536 22.8059894,19.9336497 C23.0450747,19.9503146 23.2857999,19.9379826 23.5252132,19.9503146 C24.3536489,19.9933099 25.1610949,19.8153293 25.9751001,19.710674 C26.1761417,19.6846769 26.37128,19.6023525 26.5667462,19.5386928 C27.2544855,19.3150505 27.6293478,18.8011066 27.7900498,18.1175145 C27.9254987,17.5409107 28.0150328,16.9566411 27.9163158,16.3580398 C27.8825355,16.154062 27.8917185,15.9424184 27.8841754,15.7344411 C27.8435079,14.6215625 27.8976219,13.5063509 27.8038243,12.3944722 C27.7864422,12.1871614 27.7959532,11.9768511 27.8005447,11.7678739 C27.8264538,10.5843363 27.8412121,9.40079875 27.806776,8.21726119 C27.7867702,7.52167041 27.7841465,6.82574633 27.7700441,6.12982225 C27.7664365,5.95150836 27.815631,5.79452549 27.8822076,5.63021008 C27.9304182,5.51088977 27.9281225,5.3532403 27.9009015,5.22292118 C27.8090717,4.78196928 27.6742788,4.35401597 27.4545432,3.93106211 Z" id="Shape"></path>
                <path d="M26.031639,7.97189592 C25.6500178,7.98342753 25.3495312,8.00232656 25.0493653,7.99976398 C24.5243956,7.99527946 24.0828054,7.60064214 24.0199502,7.09068872 C23.9744122,6.72103655 24.0048777,6.35715019 24.1315503,6.00543608 C24.2489229,5.67902745 24.4249817,5.41444107 24.7947374,5.31866464 C24.9868307,5.26901465 25.1654551,5.16811306 25.3508139,5.09155599 C25.6432833,4.97047408 25.9444113,4.97143505 26.2317496,5.08290728 C26.3808704,5.14088565 26.5485913,5.23730273 26.6310087,5.36575205 C27.11493,6.11850993 27.1492438,6.81200814 26.5761707,7.47731798 C26.4251257,7.65221406 26.2327116,7.79123403 26.031639,7.97189592 Z M25.2504379,7.21497385 C25.4826176,7.21048934 25.8145318,7.07563356 26.0540873,6.76331912 C26.1326563,6.66081592 26.1737047,6.52692112 26.2202047,6.40295631 C26.2644599,6.28507763 26.1897392,6.08775897 26.0922494,6.05348446 C25.8087594,5.95450481 25.5268728,5.8491187 25.2372897,5.77160066 C25.1558344,5.74981873 25.0339722,5.79370291 24.9598927,5.84751709 C24.7677994,5.9871777 24.6321475,6.1764883 24.556144,6.40615953 C24.4371679,6.76460041 24.7219407,7.19319192 25.2504379,7.21497385 Z" id="Shape"></path>
                <path d="M11,11.2116445 C11.0107573,10.9686303 11.0277607,10.6511549 11.037824,10.333341 C11.0513573,9.89131233 11.2276379,9.51291413 11.4989989,9.16802347 C12.0330457,8.48941131 12.6521097,7.90624485 13.398873,7.44560089 C14.1182226,7.00187992 14.8826834,6.89729581 15.6880912,7.09732562 C15.9393257,7.15960225 16.1621054,7.21003278 16.4234032,7.15114075 C17.114298,6.99544919 17.7097654,7.19412516 18.1934959,7.69199972 C18.7448932,8.25993548 19.1682441,8.91891696 19.5541181,9.59955987 C19.6575268,9.78232823 19.7269286,9.99183493 19.7689167,10.1976186 C19.8539339,10.6129089 19.9236827,11.0322607 19.97504,11.4529664 C20.0812247,12.3278854 19.8397065,13.1327431 19.4198256,13.8966471 C19.3858188,13.9585853 19.3504238,14.0232311 19.3018426,14.0743386 C18.4499356,14.9688882 17.5074592,15.7270384 16.222138,15.9331605 C15.3448993,16.0736214 14.4846641,16.0025448 13.6737041,15.6258389 C13.3148968,15.4593166 12.9776041,15.2484561 12.6323302,15.0541801 C12.5702156,15.0193187 12.5119181,14.9736266 12.4622958,14.9231961 C11.7422522,14.1958457 11.2106344,13.3686496 11.075648,12.3448084 C11.0291488,11.9951792 11.0270667,11.6401348 11,11.2116445 Z M11.5614605,11.0265069 C11.5614605,11.35109 11.5493152,11.4939201 11.5631956,11.6340425 C11.6856897,12.8585905 12.1812185,13.8658473 13.2874831,14.5471671 C14.8472884,15.5080548 16.3272817,15.2098716 17.8062339,14.4046755 C18.4252979,13.8012014 19.0304816,13.1852044 19.2428511,12.3201008 C19.3011486,12.0828404 19.3282153,11.8266262 19.3053127,11.5846274 C19.1838595,10.3062642 18.6501597,9.20728482 17.7462014,8.27482771 C17.3707377,7.88762956 16.8960294,7.75766094 16.3737809,7.73396875 C15.9455718,7.95802922 15.5385303,7.74953791 15.1165674,7.6963997 C14.4839701,7.61686161 13.8905847,7.78473774 13.3693772,8.15128984 C12.9262468,8.46267297 12.545925,8.83904041 12.1784425,9.23436161 C11.8446198,9.59346759 11.6808316,10.0104502 11.6024076,10.4683865 C11.5604195,10.7117392 11.5656246,10.962538 11.5614605,11.0265069 Z" id="Shape"></path>
                <path d="M15.3840803,6 C15.7081202,6.01413028 16.1315195,6.03713305 16.5552394,6.05027749 C17.1446651,6.0683511 17.649475,6.30330801 18.1090925,6.66510879 C19.0139042,7.37753758 19.7917923,8.20267996 20.4058977,9.19837148 C20.9972465,10.1575872 21.1369907,11.1766101 20.8703228,12.250511 C20.7873096,12.5853657 20.9014127,12.666204 20.7988481,13.2310865 C20.6962836,13.7959689 20.7414761,14.9464362 20.0776911,15.5911711 C19.3203159,16.3266027 18.4417863,16.8911565 17.5340899,17.4054328 C17.2904991,17.5434494 17.0110106,17.6357891 16.7366504,17.6919816 C16.1828018,17.8053525 15.6238249,17.8983494 15.062925,17.9667005 C13.8962531,18.1083319 12.8228508,17.786293 11.804577,17.2263398 C11.7218843,17.1806628 11.635666,17.1336714 11.567717,17.0689351 C10.3750834,15.9329266 9.36386092,14.6759893 9.0891802,12.9622826 C8.90167936,11.7927558 8.9968721,10.6455746 9.49879743,9.5641156 C9.72091381,9.08565789 10.0020048,8.63578934 10.2609803,8.17573385 C10.3074549,8.09292386 10.3683526,8.01537165 10.4356606,7.94899222 C11.4055368,6.98879069 12.5084263,6.27997663 13.8734966,6.10022637 C14.3395243,6.03877611 14.8132444,6.03581861 15.3840803,6 Z M15.6494661,6.56455381 C15.2010666,6.56455381 15.0042709,6.54779464 14.8106802,6.5671827 C13.1199675,6.73641739 11.7289356,7.42091424 10.7882263,8.94796985 C9.46129726,11.1020154 9.87315808,13.145319 10.985022,15.1876367 C11.827654,16.0522124 12.6885553,16.8974001 13.9045864,17.18132 C14.2452931,17.2608439 14.8110008,17.2716881 15.1574767,17.2263398 C16.8042789,17.0107709 18.2296058,16.2871693 19.4485216,15.1051553 C19.9831394,14.5869357 20.1167938,14.1630274 20.1953198,13.2100553 C20.2738458,12.2570833 20.1738453,12.0566305 20.2469226,11.4740031 C20.3565385,10.6005549 20.1248067,9.7809989 19.6187146,9.06134067 C19.1885845,8.44946687 18.6693514,7.92434639 18.1231951,7.4166423 C17.627039,6.95560097 17.0517159,6.72984517 16.4193413,6.62107491 C16.0840834,6.56356797 15.737928,6.57046881 15.6494661,6.56455381 Z" id="Shape"></path>
            </g>
        </g>
    </g>
</svg>