<?xml version="1.0" encoding="UTF-8"?>
<svg width="40px" height="40px" viewBox="0 0 40 40" version="1.1" xmlns="http://www.w3.org/2000/svg" xmlns:xlink="http://www.w3.org/1999/xlink">
    <!-- Generator: Sketch 41 (35326) - http://www.bohemiancoding.com/sketch -->
    <title>rockPool</title>
    <desc>Created with Sketch.</desc>
    <defs></defs>
    <g id="Page-1" stroke="none" stroke-width="1" fill="none" fill-rule="evenodd">
        <g id="rockPool" fill="#D1D1D1">
            <g id="Group" transform="translate(4.000000, 6.000000)">
                <path d="M31.6460047,13.8889307 L30.1003728,8.93098741 C29.5673964,7.13305194 28.3948481,5.66201382 26.7959186,4.68132175 L20.8798796,1.0854508 C18.6413784,-0.276621529 15.816603,-0.385587315 13.4715064,0.92200212 L7.66206273,4.13649281 C6.27632386,4.89925332 5.15707324,6.09787697 4.4642038,7.56891508 L0.733368391,15.6323833 C-0.279286935,17.7572161 -0.225989286,20.2089463 0.78666604,22.3337791 C1.85261901,24.5130948 3.93122732,26.0930987 6.32962151,26.474479 L15.1237336,27.8910342 C15.4968171,27.9455171 15.9231983,28 16.2962818,28 C17.4155324,28 18.5347831,27.7275855 19.600736,27.2372395 L27.7552763,23.1510225 C31.1663258,21.353087 32.7652553,17.4848016 31.6460047,13.8889307 Z M27.3288951,22.0613647 L19.1743549,26.1475816 C18.0018066,26.7468935 16.6693654,26.964825 15.3369241,26.7468935 L6.5428121,25.3303382 C4.51750145,25.0034409 2.75867904,23.6958514 1.79932137,21.7889502 C0.893261337,19.9910147 0.893261337,17.8661819 1.74602372,16.0137635 L5.47685913,7.95029533 C6.06313327,6.69718879 7.02249094,5.66201382 8.24833686,5.0082191 L14.0577806,1.79372841 C16.0297936,0.704070548 18.4814854,0.758553441 20.4002008,1.95717709 L26.3162398,5.55304804 C27.648681,6.37029143 28.6613363,7.67788087 29.1410152,9.20340187 L30.686647,14.1613451 C31.592707,17.3213529 30.2069681,20.5903265 27.3288951,22.0613647 Z" id="Shape"></path>
                <path d="M15.9898162,8.68315018 C16.0429671,8.41587428 15.8835144,8.0951432 15.6177601,8.04168802 C14.767346,7.8278673 13.2791214,8.46932946 12.2161038,9.21770199 C11.6314442,9.59188825 10.1963704,10.6609919 9.98376691,11.7835506 C9.82431428,12.7457439 8.86759846,13.9217579 7.2730721,15.151227 C5.94430013,16.1134203 5.09388608,18.1447171 5.0407352,18.2516275 C4.93443344,18.5189034 5.0407352,18.8396345 5.30648959,18.9465448 C5.35964047,19 5.46594223,19 5.5190931,19 C5.73169662,19 5.94430013,18.8930896 5.99745101,18.6792689 C5.99745101,18.6792689 6.79471419,16.8083376 7.85773177,16.0065099 C9.71801252,14.6166752 10.7810301,13.2268405 10.9936336,11.9973714 C11.0467845,11.6231851 11.6314442,10.9282678 12.7476126,10.1798952 C13.8637811,9.43152271 14.9267986,9.05733645 15.2988548,9.16424681 C15.6177601,9.11079163 15.9366653,8.95042608 15.9898162,8.68315018 Z" id="Shape"></path>
                <path d="M23.2763633,18.6226003 C22.8534158,18.6851635 20.2628624,18.6226003 18.8882831,18.1220951 C16.9850193,17.4339005 15.2403609,19.8738633 15.1346241,19.9989896 C14.9231503,20.2492422 14.9760188,20.6871843 15.1874925,20.8748737 C15.2932294,21 15.3989663,21 15.5047031,21 C15.6633084,21 15.8219137,20.9374369 15.9276506,20.7497474 C15.9276506,20.7497474 17.3550984,18.8102898 18.5710724,19.2482318 C19.9985202,19.748737 23.2763633,20.0615528 23.7521792,19.6861739 C24.0165214,19.4984844 24.0693898,19.1231055 23.9107845,18.8102898 C23.8050476,18.6226003 23.5407055,18.497474 23.2763633,18.6226003 Z" id="Shape"></path>
                <path d="M25.6931849,14.8088721 C25.4271482,14.6302029 23.9373428,13.3795186 23.6713061,12.4266163 C23.2456474,10.6994809 20.7449027,10.9972628 20.478866,11.0568192 C20.2128293,11.1163756 20,11.4141576 20,11.7119396 C20.0532073,12.0097215 20.319244,12.2479471 20.5852807,12.2479471 C21.2237687,12.1883907 22.5007448,12.2479471 22.6603668,12.7839547 C23.0328181,14.2728645 24.9482822,15.8213308 25.2675262,15.9404436 C25.3207335,15.9404436 25.3739408,16 25.4803555,16 C25.6931849,16 25.8528069,15.8808872 25.9592215,15.6426616 C26.0656362,15.3448797 25.9592215,14.9875413 25.6931849,14.8088721 Z" id="Shape"></path>
                <path d="M8.15384615,22.1651467 C7.94871795,22.3615828 7.94871795,22.6562369 8.15384615,22.8526729 C8.25641026,22.950891 8.41025641,23 8.51282051,23 C8.61538462,23 8.76923077,22.950891 8.87179487,22.8526729 C8.87179487,22.8526729 10.4102564,21.4776204 11.1282051,22.1651467 C11.3333333,22.3615828 11.6410256,22.3615828 11.8461538,22.1651467 C12.0512821,21.9687106 12.0512821,21.6740565 11.8461538,21.4776204 C10.7179487,20.397222 8.97435897,21.3794024 8.15384615,22.1651467 Z" id="Shape"></path>
                <path d="M17.5096437,6.14270295 C18.7902753,6.02607858 20.4606643,6.20101514 20.7390625,6.60920043 C21.5185774,7.71713194 23.857122,8.88337563 24.2468795,9 L24.4139184,9 C24.6366369,9 24.8593554,8.82506345 24.9707147,8.59181471 C25.082074,8.30025378 24.8593554,7.95038068 24.5809573,7.89206849 C24.2468795,7.77544412 22.186733,6.7258248 21.6856163,5.9677664 C20.9061014,4.85983489 18.2891586,4.97645926 17.5096437,5.03477144 C17.1755659,5.03477144 16.9528474,5.32633236 17.008527,5.67620547 C16.9528474,5.9677664 17.1755659,6.20101514 17.5096437,6.14270295 Z" id="Shape"></path>
            </g>
        </g>
    </g>
</svg>