<?xml version="1.0" encoding="UTF-8"?>
<svg width="40px" height="40px" viewBox="0 0 40 40" version="1.1" xmlns="http://www.w3.org/2000/svg" xmlns:xlink="http://www.w3.org/1999/xlink">
    <!-- Generator: Sketch 41 (35326) - http://www.bohemiancoding.com/sketch -->
    <title>walk</title>
    <desc>Created with Sketch.</desc>
    <defs></defs>
    <g id="Page-1" stroke="none" stroke-width="1" fill="none" fill-rule="evenodd">
        <g id="walk" fill="#000000">
            <path d="M13.7926475,18.8883409 C13.2704233,18.0740988 13.3653555,15.8713165 13.6025889,14.5781661 C13.7841055,13.5892058 15.2639997,12.7583145 15.0741352,9.93265761 C14.9741555,8.44833567 13.4602877,8.11280605 12.5109656,8.11280605 C11.5614494,8.11280605 8.80860947,11.2256121 8.66611409,11.9440725 C8.52381284,12.662337 9.99516501,16.3502248 10.3275248,17.3080414 C10.6598846,18.265858 11.4193423,22.528044 11.8938092,23.5816422 C12.3684702,24.6352405 15.3589319,25.2579192 15.8809619,23.3900789 C16.4033803,21.5226303 14.3146776,19.7025829 13.7926475,18.8883409 Z M8.20387771,9.56598425 C7.69601952,9.8878028 8.20640147,11.7482 8.97148907,11.0632338 C9.73638253,10.3780717 8.71193004,9.24436158 8.20387771,9.56598425 Z M9.89926213,9.61789047 C10.6725034,9.31272109 9.99807704,7.59472324 9.24056073,7.8052862 C8.48304441,8.01584915 9.12582671,9.92305985 9.89926213,9.61789047 Z M10.8109219,8.56899314 C11.631144,8.44911916 11.0959127,6.38285997 10.3187887,6.5544443 C9.54147059,6.72602862 9.99031163,8.68867125 10.8109219,8.56899314 Z M12.0489234,7.84465657 C12.9504881,7.90165547 12.9656307,5.68594556 11.8813845,5.55902016 C10.7965559,5.43248652 11.1475527,7.78765767 12.0489234,7.84465657 Z M13.3179865,7.87344983 C13.6977153,8.01702439 14.6944064,8.4481398 14.931834,8.06501315 C15.1690675,7.68188651 15.4538641,5 13.7450843,5 C13.128122,5 12.653461,5.86183908 12.8431313,6.58029947 C13.0329957,7.29856399 12.9382576,7.72987528 13.3179865,7.87344983 Z" id="Shape"></path>
            <path d="M23.453115,19.1130019 C22.5037929,19.1130019 20.9899251,19.4483357 20.8901395,20.9328535 C20.7002751,23.7585104 22.1799751,24.5892058 22.3616858,25.578362 C22.5987251,26.8715123 22.6936573,29.0742947 22.1716272,29.8885367 C21.6495972,30.7025829 19.5608944,32.5226303 20.0831187,34.3902748 C20.6049546,36.2579192 23.5954162,35.6352405 24.0700773,34.5818381 C24.5447383,33.5284357 25.304196,29.265858 25.6363617,28.3082373 C25.9687215,27.3504206 27.4400736,23.6627288 27.2977724,22.9442684 C27.1554711,22.225808 24.4024371,19.1130019 23.453115,19.1130019 Z M27.7602029,20.5659843 C27.2525388,20.2443616 26.2276981,21.3780717 26.9927857,22.0632338 C27.7578733,22.7482 28.2680611,20.8878028 27.7602029,20.5659843 Z M26.0650126,20.6178905 C26.8382539,20.9230599 27.4812303,19.0158492 26.723714,18.8052862 C25.9661977,18.5947232 25.2915772,20.3127211 26.0650126,20.6178905 Z M25.1533528,19.5689931 C25.973769,19.6886712 26.4228041,17.7260286 25.645486,17.5544443 C24.868362,17.38286 24.3331307,19.4491192 25.1533528,19.5689931 Z M23.9155455,18.8446566 C24.816722,18.7874618 25.1677188,16.4324865 24.0830844,16.5590202 C22.998644,16.6859456 23.0139807,18.9016555 23.9155455,18.8446566 Z M22.6462883,18.8734498 C23.025823,18.7298753 22.9310849,18.298564 23.1207552,17.5802995 C23.3106196,16.8618391 22.8361527,16 22.2189963,16 C20.5100224,16 20.7950132,18.6818865 21.0322466,19.0648173 C21.2698683,19.4481398 22.2665595,19.0170244 22.6462883,18.8734498 Z" id="Shape"></path>
        </g>
    </g>
</svg>