<?xml version="1.0" encoding="UTF-8"?>
<svg width="40px" height="40px" viewBox="0 0 40 40" version="1.1" xmlns="http://www.w3.org/2000/svg" xmlns:xlink="http://www.w3.org/1999/xlink">
    <!-- Generator: Sketch 41 (35326) - http://www.bohemiancoding.com/sketch -->
    <title>wildlife</title>
    <desc>Created with Sketch.</desc>
    <defs></defs>
    <g id="Page-1" stroke="none" stroke-width="1" fill="none" fill-rule="evenodd">
        <g id="wildlife" fill="#262621">
            <path d="M5.72109415,29.2293907 C6.87706981,28.5796922 8.1379162,27.8224135 9.51102128,26.835162 C12.3308133,24.8060802 14.1625964,20.2902819 15.4995165,16.9917919 C15.7684115,16.3296297 16.0228831,15.7037262 16.2615575,15.1510443 C17.3738832,12.5868819 18.1032996,11.3808385 19.112257,9.70871175 C19.4326645,9.17996767 19.7963425,8.57870609 20.2080987,7.87254056 C22.2672235,4.3522737 25.1361241,5.27247146 26.270085,5.83219389 C27.0479232,6.21308676 27.6458111,6.30954208 28.1252204,6.38628389 C28.6183664,6.46584192 29.0071137,6.52850267 29.2413237,6.89179421 C29.4257383,7.17693583 29.4398184,7.5683895 29.2804732,7.99293369 C29.0483237,8.62517361 28.3614909,9.47496603 27.1938751,9.79601437 C25.9757772,10.1290316 25.0004746,10.6669284 24.4712699,14.2040925 C24.2542308,15.6551465 24.3256614,17.1132411 24.4022432,18.655822 C24.4874105,20.3913136 24.5722343,22.178201 24.2085564,23.9517115 C24.2844514,24.2185477 24.4214745,25.4858438 24.0780581,27.5275985 L23.941035,28.2316519 C23.5976186,30.0625427 23.460252,30.8370014 23.9860225,31.2900598 C24.2847948,31.5407028 24.6965511,31.8223241 25.1086508,32.1039455 C26.0702167,32.7375935 26.4136331,32.9488095 26.4259961,33.2445119 C26.4431669,33.3448395 26.4184409,33.4444631 26.3579996,33.522965 C25.9328501,34.0752949 24.5591845,34.0752949 23.994608,34.0851516 C22.4986861,34.0749429 20.7397073,33.3860266 20.50275,32.5693247 C20.3681308,32.1025373 20.3245169,31.4576245 20.3124973,31.0263918 C19.6874795,31.4734657 18.9446698,31.8906173 18.0353032,32.282423 C17.2787568,33.3708895 16.1107977,34.3569162 14.2979025,34.8705232 C13.610412,35.0625652 13.0371138,35.2077062 12.5636803,35.2915802 C12.2437857,35.1357248 11.9295108,34.9701271 11.6212417,34.795173 C12.1629396,34.8783685 13.5289071,34.4766614 14.1461124,34.3041122 C16.3759151,33.6820811 17.8275362,32.2451082 18.4456858,29.9924894 C18.9264687,28.3027613 18.7891022,26.7538439 18.7891022,26.7538439 C18.7207623,26.6130332 18.8581289,26.4722225 18.9954954,26.4018172 C19.2015453,26.4018172 19.3389118,26.5429799 19.3389118,26.6837906 C19.3389118,26.7538439 19.5449617,28.3731666 18.9954954,30.1333001 C18.9268121,30.5560841 18.7592249,30.9707715 18.5524883,31.398836 C21.7630882,29.8052112 22.4925046,27.8458307 23.4389602,24.6768864 C24.0265457,22.7090573 23.9259247,20.6637822 23.8287378,18.6868003 C23.7549033,17.1815342 23.6783214,15.6262803 23.9049763,14.1139737 C24.4328073,10.5873704 25.4160084,9.6763253 27.044489,9.22854735 C27.0887897,9.21657845 27.1262221,9.19897711 27.1688057,9.18630415 C26.9833609,9.16870282 26.7920779,9.13490826 26.596674,9.05675833 C26.4479747,8.99761785 26.3741402,8.82794099 26.432521,8.67727356 C26.4881544,8.52519804 26.6533377,8.44916027 26.802037,8.50830076 C27.580562,8.8004829 28.1987115,8.44845622 28.4734446,8.23724021 C28.6108112,8.09642953 28.6588895,7.98659721 28.7141795,7.85036288 C28.3254322,7.53494697 28.1715816,7.20052162 28.0349019,6.96607184 C27.5448467,6.88721787 26.8744979,6.77808959 26.0221384,6.36129 C24.7865262,5.75298789 22.4492342,5.17988844 20.699871,8.17352338 C20.2843372,8.88391323 19.9203158,9.48658292 19.5981912,10.0167351 C18.563821,11.7318091 17.880079,12.8625188 16.7856109,15.3872542 C16.5483102,15.9343037 16.2952123,16.5573909 16.0283777,17.2156808 C14.6636409,20.5810559 12.7961426,25.1890853 9.83932736,27.3149744 C8.46224309,28.3055444 7.20317527,29.0643297 6.04767526,29.7151067 C5.93611405,29.5551876 5.82723199,29.3932605 5.72109415,29.2293907 Z M11.402369,34.6687919 C11.354403,34.5376891 11.5809199,34.4171605 12.1838311,34.1393637 C12.1955073,34.1464043 12.3328738,34.0759989 12.3328738,34.0759989 C12.6762902,33.9351883 13.6378562,33.5124042 13.7065394,33.5124042 C13.9129327,33.4419989 13.9812726,33.3008362 13.8967921,33.1441843 C13.8404718,32.9921088 13.7065394,32.9488095 13.5272761,32.9755635 C13.5004896,33.0195669 12.332187,33.4817779 11.9551158,33.601467 C11.5361478,33.733125 10.9248666,33.8964653 10.8637385,33.7222121 C10.8266495,33.6176602 10.890525,33.4416469 11.7270873,33.1015891 C13.2257565,32.5263775 14.1612228,31.7223485 14.1842317,31.7068593 C14.3136996,31.6114601 14.3446071,31.4287583 14.2525715,31.2956922 C14.1601925,31.1633301 13.9829896,31.1330559 13.8535217,31.227399 C12.9510234,31.8927294 12.0577973,32.4559721 11.7143809,32.5263775 C11.2335979,32.6671881 11.8517475,32.1039455 12.2624735,31.609348 C13.2254131,30.4846227 14.9424951,28.6540839 14.8738118,26.7531398 C14.8051285,24.5709264 14.8051285,23.5848997 16.1787941,21.3319289 C16.2474774,21.1911182 16.1787941,20.9799022 16.0414275,20.9094968 C15.9044044,20.8390915 15.7666944,20.9094968 15.6296713,21.0503075 C14.2560057,23.3736836 14.2560057,24.499817 14.3243455,26.8235452 C14.3243455,28.4432199 12.8136568,30.2033534 11.8421318,31.2097977 C11.3709645,31.7519188 11.1175232,32.0152347 11.0481531,32.2391237 C10.9739751,32.4883586 10.991146,32.6573314 11.0412848,32.7812448 C10.6168221,33.0093581 10.2734057,33.2895713 10.2685979,33.6577912 C10.2672331,33.7850941 10.2969018,33.9008152 10.3532135,33.9997382 C10.6941219,34.2350946 11.0440483,34.4583203 11.402369,34.6687919 Z M23.665615,25.8385745 C23.665615,26.6834385 23.5282485,27.3167346 23.3908819,28.0915453 C23.0474655,30.0628947 22.8410723,31.0482174 23.5972752,31.7522708 C23.9406916,32.0338921 24.3524478,32.3158655 24.8335742,32.5967828 C25.1083073,32.8083508 25.7264569,33.0896202 25.7264569,33.2307829 C25.7264569,33.4419989 24.6962077,33.5124042 24.0780581,33.5124042 C22.223953,33.4419989 21.1243337,32.7379455 21.0559938,32.3859188 C20.849944,31.7522708 20.849944,30.6257854 20.849944,30.5557321 C22.3606327,29.288436 23.0474655,27.8099239 23.665615,25.8385745 Z M22.9787822,8.37805088 C22.9787822,8.44845622 22.8414157,8.58926689 22.5663391,8.6646006 C22.3606327,8.73007757 22.0440028,8.85399096 21.7689263,8.85399096 C21.6164494,8.85399096 21.4729013,8.81949235 21.353049,8.73078162 C21.2410953,8.64699927 21.1102536,8.48154673 21.1174654,8.16824298 C21.1243337,7.97674046 21.2754369,7.47686257 22.5529459,7.0037387 C22.702332,6.94882254 22.8668285,7.02697246 22.9204015,7.1804561 C22.9739744,7.33323568 22.897736,7.50080038 22.7486933,7.5564206 C22.2452448,7.74299474 21.7301202,8.05489038 21.6902839,8.19570106 C21.6737999,8.30764554 21.8801932,8.30764554 22.3743694,8.11121465 C22.5605011,8.04221742 22.6545972,8.00912691 22.7603694,8.03165662 C22.9162805,8.06474713 23.0474655,8.23724021 22.9787822,8.37805088 Z M26.1759889,7.38744779 C26.1148608,7.68526236 25.8311989,7.87746893 25.541012,7.8176244 C25.2504817,7.7556677 25.0636632,7.46559771 25.1227308,7.16707908 C25.1824853,6.86856045 25.4661472,6.67705794 25.7566775,6.73831058 C26.0472078,6.80026728 26.2336829,7.09033726 26.1759889,7.38744779 Z" id="Combined-Shape"></path>
        </g>
    </g>
</svg>