<svg xmlns:dc="http://purl.org/dc/elements/1.1/" xmlns:cc="http://creativecommons.org/ns#" xmlns:rdf="http://www.w3.org/1999/02/22-rdf-syntax-ns#" xmlns:svg="http://www.w3.org/2000/svg" xmlns="http://www.w3.org/2000/svg" xmlns:sodipodi="http://sodipodi.sourceforge.net/DTD/sodipodi-0.dtd" xmlns:inkscape="http://www.inkscape.org/namespaces/inkscape" version="1.1" x="0px" y="0px" viewBox="0 0 100 125"><g transform="translate(0,-952.36218)"><path style="text-indent:0;text-transform:none;direction:ltr;block-progression:tb;baseline-shift:baseline;color:#000000;enable-background:accumulate;" d="m 11,964.36217 c -4.38011,0 -8,3.6199 -8,8 l 0,14 0,22.00003 0,18 c 0,4.3801 3.61989,8 8,8 l 56.09375,0 c 3.12394,3.6636 7.74095,6 12.90625,6 9.3533,0 17,-7.6467 17,-17 0,-5.1653 -2.33636,-9.7823 -6,-12.9062 l 0,-22.09383 0,-6 c 0,-5.4833 -4.51668,-10 -10,-10 l -34.59375,0 -0.78125,-1.4375 c -0.73951,-1.3558 -1.6484,-2.8619 -3,-4.1563 -1.3516,-1.294 -3.31285,-2.4062 -5.625,-2.4062 l -26,0 z m 0,6 26,0 c 0.45786,0 0.84446,0.1522 1.46875,0.75 0.62429,0.5978 1.31933,1.6115 1.90625,2.6875 l 6,11 a 3.0003,3.0003 0 0 0 2.625,1.5625 l 34,0 c 1.15991,0 2,0.8401 2,2 l 0,18.78123 c -1.58624,-0.4927 -3.25674,-0.7812 -5,-0.7812 -9.3533,0 -17,7.6467 -17,17 0,1.7433 0.28846,3.4138 0.78125,5 l -52.78125,0 c -1.15991,0 -2,-0.8401 -2,-2 l 0,-18 0,-22.00003 0,-14 c 0,-1.1599 0.84008,-2 2,-2 z m 38.6875,8 31.3125,0 c 1.34777,0 2.67063,0.9167 3.40625,2.125 -0.45955,-0.0838 -0.92451,-0.125 -1.40625,-0.125 l -32.21875,0 -1.09375,-2 z M 80,1012.3622 c 6.1106,0 11,4.8893 11,11 0,6.1107 -4.8894,11 -11,11 -6.1107,0 -11,-4.8893 -11,-11 0,-6.1107 4.8893,-11 11,-11 z m 0,1 c -1.6569,0 -3,1.3431 -3,3 l 0,4 -4,0 c -1.65685,0 -3,1.3432 -3,3 0,1.6569 1.34315,3 3,3 l 4,0 0,4 c 0,1.6568 1.3431,3 3,3 1.6568,0 3,-1.3432 3,-3 l 0,-4 4,0 c 1.65685,0 3,-1.3431 3,-3 0,-1.6568 -1.34315,-3 -3,-3 l -4,0 0,-4 c 0,-1.6569 -1.3432,-3 -3,-3 z" fill="#000000" fill-opacity="1" stroke="none" marker="none" visibility="visible" display="inline" overflow="visible"/></g><text x="0" y="115" fill="#000000" font-size="5px" font-weight="bold" font-family="'Helvetica Neue', Helvetica, Arial-Unicode, Arial, Sans-serif">Created by arjuazka</text><text x="0" y="120" fill="#000000" font-size="5px" font-weight="bold" font-family="'Helvetica Neue', Helvetica, Arial-Unicode, Arial, Sans-serif">from the Noun Project</text></svg>