<svg xmlns="http://www.w3.org/2000/svg" xmlns:xlink="http://www.w3.org/1999/xlink" version="1.1" x="0px" y="0px" viewBox="0 0 100 125" enable-background="new 0 0 100 100" xml:space="preserve"><path fill="#000000" d="M86.562,23H48l-12.99-9H13.438C8.797,14,5,17.8,5,22.444v55.111C5,82.199,8.797,86,13.438,86h73.125  C91.203,86,95,82.199,95,77.555V31C95,26.356,91.203,23,86.562,23z M50,68c-7.732,0-14-6.268-14-14c0-7.732,6.268-14,14-14  c7.732,0,14,6.268,14,14C64,61.732,57.732,68,50,68z"/><path fill="#000000" d="M56,51h-3v-3c0-1.657-1.343-3-3-3s-3,1.343-3,3v3h-3c-1.657,0-3,1.343-3,3s1.343,3,3,3h3v3  c0,1.657,1.343,3,3,3s3-1.343,3-3v-3h3c1.657,0,3-1.343,3-3S57.657,51,56,51z"/><text x="0" y="115" fill="#000000" font-size="5px" font-weight="bold" font-family="'Helvetica Neue', Helvetica, Arial-Unicode, Arial, Sans-serif">Created by Dmitry Mirolyubov</text><text x="0" y="120" fill="#000000" font-size="5px" font-weight="bold" font-family="'Helvetica Neue', Helvetica, Arial-Unicode, Arial, Sans-serif">from the Noun Project</text></svg>