<?xml version="1.0" encoding="UTF-8"?>
<svg width="40px" height="40px" viewBox="0 0 40 40" version="1.1" xmlns="http://www.w3.org/2000/svg" xmlns:xlink="http://www.w3.org/1999/xlink">
    <!-- Generator: Sketch 41.2 (35397) - http://www.bohemiancoding.com/sketch -->
    <title>medal</title>
    <desc>Created with Sketch.</desc>
    <defs></defs>
    <g id="interface-icons" stroke="none" stroke-width="1" fill="none" fill-rule="evenodd">
        <g id="medal" fill="#000000">
            <g id="Group" transform="translate(11.000000, 5.000000)">
                <path d="M2.33333333,0 C1.9667,0.00478777618 1.67486667,0.378571874 1.66666667,0.688888659 L1.66666667,8.26666391 C1.66666667,8.53790693 1.84,8.80000151 2.08333333,8.90173314 L8.19793333,11.4420101 C8.07456667,11.6138465 8,11.8251941 8,12.0555584 C8,12.194645 8.0351,12.3219172 8.08333333,12.4430583 C3.55066667,12.9201826 0,16.8924214 0,21.7000031 C0,26.8280903 4.03733333,31 9,31 C13.9626667,31 18,26.8280903 18,21.7000031 C18,16.8924214 14.4493333,12.9201791 9.91666667,12.4430549 C9.9649,12.3219138 10,12.1946416 10,12.055555 C10,11.8167862 9.92326667,11.5954531 9.79166667,11.4204823 L15.9166667,8.90173314 C16.16,8.80000151 16.3319667,8.53790693 16.3333333,8.26666391 L16.3333333,0.688888659 C16.3333,0.328196891 16.0157333,3.4444433e-05 15.6666667,3.91587866e-14 L2.33333333,3.91587866e-14 L2.33333333,0 Z M3,1.37777732 L6,1.37777732 L6,9.03089977 L3,7.79305296 L3,1.37777732 Z M7.33333333,1.37777732 L10.6666667,1.37777732 L10.6666667,9.57985792 L8.97916667,10.2687466 L7.33333333,9.5906218 L7.33333333,1.37777732 Z M12,1.37777732 L15,1.37777732 L15,7.79305296 L12,9.03089977 L12,1.37777732 Z M9,13.7777766 C13.2420667,13.7777766 16.6666667,17.3165357 16.6666667,21.7000031 C16.6666667,26.0834705 13.2420667,29.6222227 9,29.6222227 C4.75793333,29.6222227 1.33333333,26.0834705 1.33333333,21.7000031 C1.33333333,17.3165357 4.75793333,13.7777766 9,13.7777766 L9,13.7777766 Z M8.92706667,15.1447797 C8.70180264,15.1713467 8.50520912,15.3176215 8.40626667,15.5322796 L6.90626667,18.7291708 L3.57293333,19.2350561 C3.32517233,19.2741791 3.11975703,19.457454 3.04251115,19.7083077 C2.96526526,19.9591614 3.02948281,20.2344218 3.20833333,20.4190835 L5.6146,22.8947771 L5.05206667,26.3930571 C5.01425368,26.5965484 5.064693,26.8071849 5.18962393,26.9675012 C5.31455485,27.1278176 5.50094112,27.2210852 5.69793333,27.221859 C5.80725382,27.2208113 5.91461842,27.1912233 6.0104,27.135748 L9,25.4781096 L11.9896,27.135748 C12.2137688,27.2606288 12.4860724,27.2393979 12.6903133,27.0811149 C12.8945542,26.9228319 12.9946677,26.6554464 12.9479333,26.3930571 L12.3854,22.8947771 L14.7916667,20.4190835 C14.9705172,20.2344218 15.0347347,19.9591614 14.9574889,19.7083077 C14.880243,19.457454 14.6748277,19.2741791 14.4270667,19.2350561 L11.0937333,18.7291708 L9.59373333,15.5322796 C9.47172165,15.2677222 9.20478141,15.1125632 8.92706667,15.1447797 L8.92706667,15.1447797 Z M9,17.4159768 L10.0520667,19.6656116 C10.1496596,19.8701629 10.3366445,20.0110572 10.5520667,20.0423648 L12.9062667,20.4083369 L11.2083333,22.1520863 C11.0470403,22.3120672 10.9727087,22.546518 11.0104,22.7763916 L11.4270667,25.2520852 L9.30206667,24.0788045 C9.10968197,23.972403 8.87988469,23.972403 8.6875,24.0788045 L6.58333333,25.2520852 L6.9896,22.7763916 C7.02729126,22.546518 6.95295967,22.3120672 6.79166667,22.1520863 L5.09373333,20.4083369 L7.44793333,20.0423648 C7.66335553,20.0110572 7.85034039,19.8701629 7.94793333,19.6656116 L9,17.4159768 L9,17.4159768 Z" id="Shape"></path>
            </g>
        </g>
    </g>
</svg>