<?xml version="1.0" encoding="UTF-8"?>
<svg width="40px" height="40px" viewBox="0 0 40 40" version="1.1" xmlns="http://www.w3.org/2000/svg" xmlns:xlink="http://www.w3.org/1999/xlink">
    <!-- Generator: Sketch 41 (35326) - http://www.bohemiancoding.com/sketch -->
    <title>gulls</title>
    <desc>Created with Sketch.</desc>
    <defs></defs>
    <g id="Page-1" stroke="none" stroke-width="1" fill="none" fill-rule="evenodd">
        <g id="gulls" fill="#000000">
            <path d="M2.61190965,29.335319 C2.43080082,29.2533888 2.38767967,29.0420952 2.51273101,28.8566742 C2.83182752,28.3780294 6.81203183,24.7204609 8.30402361,23.4785718 C9.90381827,22.1461283 10.2617238,21.7580379 11.7925246,19.7140954 C13.0473501,18.0366827 14.0348244,16.6093727 14.655769,15.5701529 C15.0438593,14.9276478 15.2379045,14.4446909 15.2379045,14.1299065 C15.2379045,13.961734 15.1732228,13.7547525 15.0956047,13.6814466 C15.0222988,13.6167648 12.4350298,12.7543419 12.0900606,12.685348 C11.7968368,12.6249784 11.2491982,12.5646088 10.7360565,12.5430482 L10.2789723,12.5214876 L10.2013542,12.4352453 C10.0892392,12.310194 10.0935513,12.1463336 10.2056663,12.0342186 C10.2487875,11.9910975 10.3005329,11.9522885 10.3177813,11.9522885 C10.3350298,11.9522885 10.3910873,11.9393521 10.4471448,11.9264158 C10.5247628,11.9005431 10.5463234,11.8832946 10.5592598,11.8143008 C10.567884,11.7711796 10.5894446,11.71081 10.6110051,11.6892494 C10.6282536,11.6633768 10.8740441,11.4779558 11.1586437,11.2709743 C11.5769189,10.9648141 11.6890339,10.8958203 11.7623398,10.8958203 C11.8658306,10.8958203 12.1245575,10.9518778 12.8964261,11.1416108 C13.4440647,11.2752864 13.457001,11.2752864 13.5561797,11.3787772 L13.6553583,11.48658 L14.9058717,11.4305225 C15.5958101,11.4003377 16.5272269,11.3615287 16.979999,11.3485924 C18.4245575,11.3054712 18.5323604,11.296847 19.1964261,11.2321653 C21.1713747,11.0294959 22.305461,11.0079353 23.3533049,11.1631714 C24.0259949,11.2623501 24.405461,11.3787772 25.1816417,11.7280585 C26.5011489,12.3231304 27.4670626,12.6508511 27.9198347,12.6594753 C28.1828737,12.6637874 29.2091571,12.5473603 29.4247628,12.4913028 C29.5325657,12.461118 29.6748655,12.4395575 29.7438593,12.4395575 C30.1233255,12.4395575 30.257001,12.8405842 30.0284589,13.2976683 C29.769732,13.8194343 29.3643932,14.108346 28.7822577,14.1945883 C28.6270216,14.2204609 28.5752762,14.2377094 28.5666519,14.2722063 C28.5580277,14.298079 28.4760975,14.3627607 28.3855431,14.4145061 C28.2949887,14.4662515 28.0923193,14.6128634 27.9284589,14.7422269 C27.3980688,15.1518778 27.1393419,15.311426 26.8245575,15.4106047 C26.729691,15.4407895 26.3631612,15.5140954 26.0052556,15.5744651 C25.6473501,15.6348347 25.3498142,15.68658 25.3455021,15.6952043 C25.3196294,15.7167648 25.9276376,16.7602967 26.4062823,17.523541 C27.6007382,19.4294959 28.8253788,21.0422269 29.8904713,22.1073193 C30.6839004,22.9050605 31.119424,23.2198449 32.0120318,23.6381201 C34.3362618,24.7377094 34.9219713,25.2249784 36,25.9451016 C36.3406571,26.1736437 37.4790554,27.0231304 37.5523614,27.1050605 C37.6299795,27.1913028 37.6256674,27.3982844 37.5437372,27.4845267 C37.3022587,27.7389414 36.3967146,27.8165595 35.6291581,27.6526991 C34.9909651,27.5190236 34.5252567,27.346539 33.6110883,26.9239517 C32.6537988,26.4798039 34.1508409,27.2085513 32.318192,26.5143008 C31.8007382,26.3159435 31.1366725,26.0615287 30.8477608,25.9451016 C30.554537,25.8329866 30.2828737,25.7294959 30.2397526,25.7165595 C30.1966314,25.7079353 30.1405739,25.6820626 30.1190133,25.6648141 C30.0974528,25.6475657 29.881847,25.5440749 29.6403686,25.4405842 C28.5968368,24.9748757 27.8379045,24.5307279 26.7512515,23.7416108 C24.4528942,22.0814466 22.1372885,19.7960256 20.6539209,17.7391468 C20.5590544,17.6097833 20.4771242,17.5019805 20.4641879,17.4933562 C20.4383152,17.4761078 19.7958101,18.3687156 19.3990955,18.9767238 C19.0239415,19.5502351 18.7350298,20.0288798 18.441806,20.5722063 C18.2305123,20.9602967 18.1873912,21.0508511 17.9027916,21.6933562 C17.169732,23.3578326 16.1003275,24.53504 14.4013542,25.5526991 C13.6294856,26.0184076 13.1680893,26.2297012 9.30012218,27.9243624 C6.73441376,29.0455123 2.73264887,29.3870644 2.61190965,29.335319 Z M5.26303901,28.1800828 C6.00472279,28.0162225 4.83708316,28.1011591 5.72106673,27.9976683 C6.23420842,27.9372987 8.19190862,27.7475657 9.52435215,27.1654301 C12.3487875,25.9364774 13.004229,25.6346293 13.5777402,25.324157 C14.5652146,24.7894548 15.3112105,24.2461283 15.9149066,23.6165595 C16.5789723,22.922309 16.9584384,22.322925 17.5578224,20.9991057 C18.1183973,19.7572166 19.343038,17.8555739 20.4340031,16.5231304 C21.0032023,15.8288798 21.779383,15.0052659 21.9259949,14.9448963 C22.0381099,14.897463 22.1717854,14.9319599 22.2537156,15.0311386 C22.3183973,15.1044445 22.3270216,15.1346293 22.3140852,15.2596807 L22.3011489,15.4062926 L22.6202454,15.3890441 C23.3533049,15.3502351 24.4830791,15.2122474 25.6344138,15.0225143 C26.1001222,14.9448963 26.2855431,14.9060872 26.2294856,14.8931509 C26.0526889,14.8543419 25.979383,14.7594753 25.979383,14.5740544 C25.979383,14.4878121 25.9966314,14.449003 26.0613131,14.3886334 L26.1432433,14.3110154 L26.5097731,14.3110154 C26.919424,14.3110154 26.9797936,14.3368881 27.0401632,14.5136848 C27.0574117,14.5654301 27.0832844,14.6042392 27.1005329,14.5999271 C27.1652146,14.5740544 27.6524836,14.1945883 27.6222988,14.185964 C27.6050503,14.1816519 27.4282536,14.1687156 27.2385205,14.1600913 C26.9323604,14.1428429 26.8763029,14.1299065 26.8245575,14.0824733 C26.7771242,14.0393521 26.729691,14.0221037 26.6132639,14.0221037 C26.4364671,14.0221037 26.3459127,13.961734 26.2984795,13.8237464 C26.2596704,13.7159435 26.2941673,13.5779558 26.3760975,13.5046499 C26.4062823,13.4787772 26.4968368,13.4442802 26.5787669,13.4313439 C26.7210667,13.4097833 26.9754815,13.2976683 27.1264055,13.1941776 L27.1997115,13.1424322 L26.6606971,12.9613234 C26.0958101,12.7715903 25.5654199,12.5602967 24.8496088,12.2325759 C24.3278429,11.9954096 24.1984795,11.9479763 23.8491982,11.8574219 C23.469732,11.7625554 22.9695267,11.6935616 22.4089517,11.6590646 C21.6758922,11.6159435 20.8953994,11.6547525 19.1619292,11.822925 C18.5452967,11.8832946 18.0925246,11.9048552 17.2516622,11.9307279 C16.6479661,11.9479763 16.0830791,11.9652248 15.9968368,11.973849 C15.8502248,11.9867854 15.8416006,11.9910975 15.854537,12.0557792 C15.8760975,12.1635821 15.8243522,12.2929455 15.7381099,12.3533152 C15.6604918,12.4050605 15.6346191,12.4093727 15.3974528,12.3964363 C15.255153,12.3878121 14.8239415,12.3145061 14.4142906,12.2282638 L13.6855431,12.0816519 L13.1163439,12.0945883 C12.8015595,12.1032125 12.51696,12.1204609 12.4781509,12.1333973 C12.4652146,12.1678942 13.0171653,12.3403788 13.6639825,12.5516724 C14.504845,12.8233357 14.879999,12.9354507 14.9705534,12.9354507 C15.0654199,12.9354507 15.1344138,12.9570113 15.2465287,13.0260051 C15.3284589,13.0777505 15.5311283,13.1596807 15.6949887,13.2157382 C16.1089517,13.3537258 16.156385,13.3795985 16.2081304,13.4874014 C16.3029969,13.6857587 16.1606971,13.8927402 15.9407793,13.8927402 L15.8243522,13.8927402 L15.8243522,14.1299065 C15.8243522,14.7508511 15.5268162,15.3804199 14.4746602,16.9629661 C13.2284589,18.8430482 11.711499,21.4858323 11,22.2361403 C9.90472279,23.3831629 4.96119097,28.2318282 5,28.2361403 C5.01293634,28.2318282 5.13367556,28.2059555 5.26303901,28.1800828 Z M34.5213552,25.998974 C34.2583162,25.8652984 32.469116,24.5134794 31.9947834,24.2849373 C31.1323604,23.8666622 30.8218881,23.6898655 30.3993008,23.3664568 C29.1186027,22.3789825 27.5015595,20.3824733 25.8845164,17.7995164 C25.5093624,17.1958203 24.9919086,16.3161488 24.8280483,15.9884281 C24.7719908,15.8806252 24.7245575,15.7857587 24.7202454,15.7814466 C24.7159333,15.7771345 24.4658306,15.8030071 24.1596704,15.8418162 C23.4050503,15.9366827 22.7452967,15.9884281 22.1502248,16.0099887 L21.6500195,16.0272371 L21.2834897,16.4498244 C21.0808203,16.6826786 20.9040236,16.9025965 20.8867752,16.9327813 C20.8565903,16.997463 20.8953994,17.0664568 21.3912926,17.7218983 C22.9867752,19.8391468 25.4791776,22.1806252 27.7473501,23.6984897 C28.605461,24.272001 29.1358511,24.5609127 30.2225041,25.0352453 L30.4769189,25.1473603 L32.9991786,26.2145798 C34,26.2361403 35,26.2361403 35,26.2361403 L34.5213552,25.998974 Z M28.8900606,13.5607074 C29.0711694,13.5003377 29.2609025,13.3709743 29.3687053,13.2286745 C29.4161386,13.1639928 29.4506355,13.1079353 29.4420113,13.099311 C29.4376992,13.0949989 29.3643932,13.099311 29.2781509,13.1165595 C29.1919086,13.133808 28.9719908,13.1553685 28.7908819,13.172617 C28.6097731,13.1898655 28.4286643,13.2200503 28.3898552,13.2416108 C28.3467341,13.2631714 28.2475554,13.2804199 28.157001,13.2804199 C28.0103891,13.2804199 27.9931407,13.284732 27.8034076,13.435656 L27.6050503,13.58658 L27.7387259,13.6038285 C27.9888285,13.6340133 28.7391365,13.6081406 28.8900606,13.5607074 Z" id="Shape" transform="translate(20.024667, 20.118070) scale(1, -1) translate(-20.024667, -20.118070) "></path>
        </g>
    </g>
</svg>