<?xml version="1.0" encoding="UTF-8"?>
<svg width="40px" height="40px" viewBox="0 0 40 40" version="1.1" xmlns="http://www.w3.org/2000/svg" xmlns:xlink="http://www.w3.org/1999/xlink">
    <!-- Generator: Sketch 41 (35326) - http://www.bohemiancoding.com/sketch -->
    <title>coffee</title>
    <desc>Created with Sketch.</desc>
    <defs></defs>
    <g id="Page-1" stroke="none" stroke-width="1" fill="none" fill-rule="evenodd">
        <g id="coffee" fill="#979797">
            <g transform="translate(7.000000, 4.000000)">
                <path d="M5.50081926,12.2824404 C5.29370928,15.8959129 18.3025521,16.7116881 24.2413814,13.4378756 C24.5328967,13.2771762 24.5889313,12.8818245 24.3535534,12.6464466 C21.9830335,10.2759267 17.774249,9.22730023 13.1519105,9.4297617 C9.01813887,9.61082362 5.58870942,10.7490103 5.50081926,12.2824404 Z M6.49918074,12.3396625 C6.51442051,12.0737723 7.16377681,11.6167942 8.32176011,11.2324733 C9.61806838,10.8022441 11.3628045,10.5090845 13.1956692,10.4288038 C17.2290296,10.25214 20.9040279,11.0768594 23.12264,12.8817833 C17.4965648,15.4635264 6.36521933,14.6769031 6.49918074,12.3396625 Z" id="Path-5"></path>
                <path d="M22.4549373,13.029492 C16.8027807,10.3119754 13.574756,10.4887452 7.70788416,12.6175473 C7.55331983,12.6736404 7.55331983,12.6736404 7.39909389,12.7295408 C7.08294409,12.8440415 6.8494456,12.9277119 6.6198037,13.0083608 C6.35926156,13.0998616 6.22222652,13.3852489 6.31372736,13.645791 C6.40522821,13.9063331 6.69061543,14.0433682 6.95115757,13.9518673 C7.18443299,13.8699424 7.42068,13.785287 7.73962063,13.6697757 C7.89441629,13.6136687 7.89441629,13.6136687 8.04897535,13.5575775 C13.6867425,11.5119063 16.6528729,11.3494782 22.0216256,13.9307361 C22.2704973,14.0503918 22.5692478,13.9456416 22.6889035,13.6967699 C22.8085593,13.4478982 22.703809,13.1491477 22.4549373,13.029492 Z" id="Path-6"></path>
                <path d="M9.37529518,26.5962279 C8.88678183,25.4163972 7.7173569,22.8216565 7.57264957,22.474359 C6.26642553,19.3394213 5.91547736,16.70731 6.49613894,12.0620174 C6.53039018,11.7880074 6.33602734,11.5381123 6.06201737,11.5038611 C5.7880074,11.4696098 5.53811231,11.6639727 5.50386106,11.9379826 C4.90172694,16.7550556 5.27605813,19.5625395 6.64957265,22.8589744 C6.81257638,23.2501833 8.13048049,26.1724924 8.53576165,27.1856953 C8.59038404,27.3222513 8.70235826,27.4278324 8.84188612,27.4743416 C11.3669041,28.3160143 13.9427036,28.5 19,28.5 C19.1361187,28.5 19.2663538,28.4445041 19.3606365,28.3463254 C21.8017786,25.8043086 23.2419792,20.9223305 24.4937516,13.0787993 C24.5372713,12.8061078 24.3514908,12.549768 24.0787993,12.5062484 C23.8061078,12.4627287 23.549768,12.6485092 23.5062484,12.9212007 C22.3154323,20.3827828 20.9417941,25.1126815 18.7826632,27.4998811 C14.1306979,27.494725 11.6615171,27.3198853 9.37529518,26.5962279 Z" id="Path-7"></path>
                <path d="M5.81555361,15.2133616 C3.51777091,14.940145 2.1928346,16.3855686 2.5150517,18.3866974 C2.82234525,20.2951434 4.49585091,21.9799125 6.80786595,22.3960888 C7.07964039,22.4450098 7.33961541,22.2643514 7.38853641,21.9925769 C7.4374574,21.7208025 7.25679899,21.4608275 6.98502455,21.4119065 C5.08854779,21.0705295 3.74176039,19.7146777 3.5023351,18.2277273 C3.28394354,16.8714069 4.0708398,16.0129517 5.69748092,16.2063665 C5.97169167,16.2389714 6.22041487,16.0431112 6.25301974,15.7689004 C6.28562462,15.4946897 6.08976436,15.2459665 5.81555361,15.2133616 Z" id="Path-8"></path>
                <path d="M6.08937385,12.571904 C2.05875242,13.0327154 0.153727337,15.5317944 0.907468919,18.6268898 C1.61077559,21.5148838 4.4384963,23.99629 7.92928932,24.4949747 C8.20265633,24.5340272 8.45592232,24.3440777 8.49497475,24.0707107 C8.53402718,23.7973437 8.34407768,23.5440777 8.07071068,23.5050253 C4.9782588,23.0632464 2.48405223,20.8745085 1.87907301,18.3902772 C1.27260847,15.8999469 2.75137929,13.9600432 6.20296155,13.565432 C6.47731672,13.5340656 6.67429806,13.2862293 6.64293169,13.0118741 C6.61156531,12.737519 6.36372903,12.5405376 6.08937385,12.571904 Z" id="Path-9"></path>
                <path d="M12.0988286,2.41602515 C12.8074334,2.88842837 12.9380097,3.28912432 12.7280382,3.87818102 C12.6376063,4.13187995 12.5157552,4.3609162 12.2295002,4.84270011 C11.197664,6.57934017 11.108941,7.48717799 12.6204589,8.42488063 C12.855114,8.57045398 13.16335,8.49823895 13.3089233,8.26358385 C13.4544967,8.02892876 13.3822817,7.72069271 13.1476266,7.57511937 C12.2677542,7.0292716 12.3020534,6.67831307 13.0892014,5.35349727 C13.4088581,4.81549646 13.5503784,4.54948913 13.6699856,4.21394165 C14.0332398,3.19486333 13.74553,2.31197567 12.6535288,1.58397485 C12.4237644,1.43079862 12.1133298,1.49288556 11.9601535,1.7226499 C11.8069773,1.95241425 11.8690642,2.26284892 12.0988286,2.41602515 Z" id="Path-10"></path>
                <path d="M14.0988286,1.41602515 C14.8074334,1.88842837 14.9380097,2.28912432 14.7280382,2.87818102 C14.6376063,3.13187995 14.5157552,3.3609162 14.2295002,3.84270011 C13.197664,5.57934017 13.108941,6.48717799 14.6204589,7.42488063 C14.855114,7.57045398 15.16335,7.49823895 15.3089233,7.26358385 C15.4544967,7.02892876 15.3822817,6.72069271 15.1476266,6.57511937 C14.2677542,6.0292716 14.3020534,5.67831307 15.0892014,4.35349727 C15.4088581,3.81549646 15.5503784,3.54948913 15.6699856,3.21394165 C16.0332398,2.19486333 15.74553,1.31197567 14.6535288,0.583974853 C14.4237644,0.430798623 14.1133298,0.492885558 13.9601535,0.722649902 C13.8069773,0.952414246 13.8690642,1.26284892 14.0988286,1.41602515 Z" id="Path-10-Copy"></path>
                <path d="M17.0988286,2.41602515 C17.8074334,2.88842837 17.9380097,3.28912432 17.7280382,3.87818102 C17.6376063,4.13187995 17.5157552,4.3609162 17.2295002,4.84270011 C16.197664,6.57934017 16.108941,7.48717799 17.6204589,8.42488063 C17.855114,8.57045398 18.16335,8.49823895 18.3089233,8.26358385 C18.4544967,8.02892876 18.3822817,7.72069271 18.1476266,7.57511937 C17.2677542,7.0292716 17.3020534,6.67831307 18.0892014,5.35349727 C18.4088581,4.81549646 18.5503784,4.54948913 18.6699856,4.21394165 C19.0332398,3.19486333 18.74553,2.31197567 17.6535288,1.58397485 C17.4237644,1.43079862 17.1133298,1.49288556 16.9601535,1.7226499 C16.8069773,1.95241425 16.8690642,2.26284892 17.0988286,2.41602515 Z" id="Path-10-Copy-2"></path>
            </g>
        </g>
    </g>
</svg>