<?xml version="1.0" encoding="UTF-8"?>
<svg width="16px" height="16px" viewBox="0 0 16 16" version="1.1" xmlns="http://www.w3.org/2000/svg" xmlns:xlink="http://www.w3.org/1999/xlink">
    <!-- Generator: Sketch 41.1 (35376) - http://www.bohemiancoding.com/sketch -->
    <title>cross</title>
    <desc>Created with Sketch.</desc>
    <defs></defs>
    <g id="Page-1" stroke="none" stroke-width="1" fill="none" fill-rule="evenodd">
        <g id="cross" fill="#979797">
            <path d="M2.1,4.2 C3.79204181,5.46903136 5.14766038,6.74644117 6.89779483,8.64242015 C7.35992715,9.1430635 8.99630985,10.9547729 9.20435096,11.182818 C10.1922095,12.2656629 11.0317218,13.1530421 11.9393398,14.0606602 C12.5251263,14.6464466 13.4748737,14.6464466 14.0606602,14.0606602 C14.6464466,13.4748737 14.6464466,12.5251263 14.0606602,11.9393398 C13.1894321,11.0681117 12.3799888,10.212516 11.420649,9.16093202 C11.2224401,8.94366458 9.57757285,7.1225615 9.10220517,6.60757985 C7.23870325,4.58878611 5.75795819,3.19346864 3.9,1.8 C3.2372583,1.30294373 2.29705627,1.4372583 1.8,2.1 C1.30294373,2.7627417 1.4372583,3.70294373 2.1,4.2 Z" id="Path-13"></path>
            <path d="M4.28623939,13.7717436 C7.14818428,9.00183547 9.94593755,6.20408221 13.6708204,4.34164079 C14.4117881,3.97115691 14.7121247,3.07014735 14.3416408,2.32917961 C13.9711569,1.58821186 13.0701474,1.28787534 12.3291796,1.65835921 C8.05406245,3.79591779 4.85181572,6.99816453 1.71376061,12.2282564 C1.28753837,12.9386268 1.51788597,13.8600171 2.22825637,14.2862394 C2.93862677,14.7124616 3.86001715,14.482114 4.28623939,13.7717436 Z" id="Path-14"></path>
        </g>
    </g>
</svg>