<?xml version="1.0" encoding="UTF-8"?>
<svg width="40px" height="40px" viewBox="0 0 40 40" version="1.1" xmlns="http://www.w3.org/2000/svg" xmlns:xlink="http://www.w3.org/1999/xlink">
    <!-- Generator: Sketch 41.2 (35397) - http://www.bohemiancoding.com/sketch -->
    <title>dogs</title>
    <desc>Created with Sketch.</desc>
    <defs></defs>
    <g id="Page-1" stroke="none" stroke-width="1" fill="none" fill-rule="evenodd">
        <g id="dogs" fill="#262621">
            <path d="M36.9247771,17.866592 C34.3606935,16.138719 31.3707972,14.0564018 30.6714861,13.4468092 C30.1928016,13.0313563 29.9030715,12.4396507 29.8715791,11.8353557 C29.8211913,10.7337761 29.5629536,9.13491207 28.6559725,7.48569011 C28.7315543,7.03246881 28.4544212,6.59183698 28.0009306,6.47853166 C26.772727,6.16379464 22.7542969,6.01272088 22.3008064,6.00013139 C21.9103006,5.99383665 21.5827797,6.21415257 21.4442131,6.56665802 C21.1985724,7.18354257 21.0159165,7.76265868 20.8836484,8.30400635 C17.0100833,8.53691174 14.1820659,11.1995869 13.1302197,12.3641138 C12.8215942,12.7040298 12.6011474,13.1194827 12.4877748,13.5789987 C12.1917462,14.7435257 11.8516283,15.4674208 11.624883,15.8765789 C11.5052119,16.0843054 11.3036606,16.2479686 11.0643183,16.3298002 C8.13552521,17.2928955 5.97514663,18.6084962 4.94849442,19.3009177 C4.0793042,19.8926233 3.75808173,21.013087 4.19267684,21.9698876 C4.8918081,23.5183937 5.71690896,24.8088154 6.29007062,25.6145422 C7.03329124,26.6657638 8.11033129,27.4526064 9.3259379,27.8302908 C11.2091834,28.4157016 12.871982,28.6234281 14.2828415,28.6234281 C16.2794596,28.6234281 17.7659009,28.2079752 18.6665835,27.8617645 C19.1956558,27.6540381 20.4427548,27.5847959 20.5561274,27.5847959 C20.9394707,28.147497 24.4442935,33.1619276 28.1075432,34.7403281 C28.8980999,34.2928707 29.6503881,33.7856785 30.358276,33.2248832 L28.9295079,33.2248832 C26.3786236,32.3121459 23.6576803,29.0011125 22.4609692,27.4148379 C27.197426,26.5335743 28.2240782,22.5678879 28.2303767,22.5238247 C28.3437493,22.0454244 28.0540192,21.5670242 27.5753348,21.4537189 C27.0966503,21.3404135 26.6179658,21.6299716 26.5045932,22.1083718 C26.4982947,22.1461403 25.5220304,25.9985214 20.1179347,25.8096791 C19.3810125,25.7845002 18.612598,25.9166897 17.8630789,26.2125425 C16.8616206,26.6028164 15.003569,27.074922 12.4085953,26.7413007 C13.6556943,26.4958058 15.016166,26.1181214 16.2191756,25.5264158 C16.6600692,25.3060999 16.8427251,24.7773417 16.6222783,24.3367099 C16.40813,23.8960781 15.8727592,23.7135306 15.4318657,23.9338465 C12.67943,25.280921 8.80586487,25.3816368 8.32088192,25.3879315 C8.04374881,25.1550262 7.79180962,24.8906471 7.5776613,24.5884995 C7.38240843,24.311531 7.15566315,23.9779097 6.91632092,23.5939306 C7.99336097,22.9455723 8.69249223,21.7810454 8.69249223,20.4591499 C8.69249223,20.0311075 8.610612,19.6219494 8.47204544,19.2253808 C9.3286387,18.8036332 10.330097,18.3692961 11.4638234,17.9916117 C12.1125668,17.7712958 12.6605345,17.330664 12.994354,16.7452531 C13.4163521,16.0150632 13.769067,15.0897364 14.0462001,13.9944516 C14.0902895,13.8181989 14.1721697,13.6671251 14.2855423,13.5412303 C15.1484341,12.5844298 17.4032898,10.4379233 20.4328586,10.0917126 C20.1998149,13.8244936 22.6058342,15.2219259 22.9144597,15.2659891 C25.2700912,15.5996104 26.8321142,12.1123242 27.5879317,9.88398617 C27.8209755,10.6519445 27.9091542,11.3569554 27.9343481,11.9108925 C27.984736,12.9998826 28.4949128,14.0448095 29.3389091,14.7812941 C30.3446411,15.6571974 34.4104147,18.4874695 36.9851299,20.2280578 C36.9950111,19.9866014 37,19.7438833 37,19.5 C37,18.9492173 36.9745552,18.4043775 36.9247771,17.866592 Z M17.0341699,14.0182711 L15.6453337,14.3392017 C15.2162624,14.4402355 14.8888132,14.9038019 15.0356007,15.3376526 C15.3122388,16.1518656 15.9276175,15.9914002 15.9840743,15.9795139 L17.3729105,15.6585833 C17.8019818,15.5575495 18.0729743,15.1118125 17.9826435,14.6601324 C17.8923127,14.2084522 17.4632413,13.9231805 17.0341699,14.0182711 Z M22.7384119,8 C23.8847353,8.05035792 25.2955948,8.13218955 26.30965,8.23920013 C25.7175929,10.4801277 24.5838665,13.1113291 23.343066,13.5960241 C22.8013967,12.9791396 21.6802673,11.2166123 22.7384119,8 Z M6.16783715,20.7761268 C6.44497026,20.5872846 6.81658057,20.3543792 7.25747416,20.0900002 C7.28266808,20.2096002 7.29526504,20.335495 7.29526504,20.4613898 C7.29526504,21.1286323 6.95514713,21.7203379 6.42607482,22.0602539 C6.29380675,21.7958748 6.15524019,21.5252009 6.02927059,21.2419376 C5.95998731,21.0782744 6.01667363,20.8768427 6.16783715,20.7761268 Z" id="Combined-Shape" transform="translate(20.500000, 20.370164) scale(-1, 1) translate(-20.500000, -20.370164) "></path>
        </g>
    </g>
</svg>