<?xml version="1.0" encoding="UTF-8"?>
<svg width="40px" height="40px" viewBox="0 0 40 40" version="1.1" xmlns="http://www.w3.org/2000/svg" xmlns:xlink="http://www.w3.org/1999/xlink">
    <!-- Generator: Sketch 41.2 (35397) - http://www.bohemiancoding.com/sketch -->
    <title>history</title>
    <desc>Created with Sketch.</desc>
    <defs></defs>
    <g id="Page-1" stroke="none" stroke-width="1" fill="none" fill-rule="evenodd">
        <g id="history" fill="#000000">
            <g id="Group" transform="translate(6.000000, 8.000000)">
                <path d="M28.4422325,10.7772322 C22.8897693,7.25037902 17.3373061,3.72397272 11.7848429,0.197119579 C10.4710285,-0.637117695 9.2548937,1.39507894 10.5580606,2.22261372 C16.1105238,5.74946686 21.662987,9.27587317 27.2154502,12.8027263 C28.5288017,13.6374104 29.7449365,11.6047669 28.4422325,10.7772322 L28.4422325,10.7772322 Z" id="Shape"></path>
                <path d="M1.7848781,12.802908 C7.33698771,9.27600483 12.8895603,5.74954847 18.4421328,2.22264527 C19.7448624,1.39509875 18.5291666,-0.637126739 17.2153263,0.197122377 C11.6632167,3.72402558 6.11064415,7.25048194 0.558071596,10.7773851 C-0.745120977,11.6044848 0.471037776,13.6371571 1.7848781,12.802908 L1.7848781,12.802908 Z" id="Shape"></path>
                <path d="M2,6.14880619 L2,21.8508544 C2,23.3830485 4,23.3830485 4,21.8508544 L4,6.14880619 C4,4.6170646 2,4.6170646 2,6.14880619 L2,6.14880619 Z" id="Shape"></path>
                <path d="M24,6.14880619 L24,21.8508544 C24,23.3830485 26,23.3830485 26,21.8508544 L26,6.14880619 C26,4.6170646 24,4.6170646 24,6.14880619 L24,6.14880619 Z" id="Shape"></path>
            </g>
        </g>
    </g>
</svg>