<?xml version="1.0" encoding="UTF-8"?>
<svg width="40px" height="40px" viewBox="0 0 40 40" version="1.1" xmlns="http://www.w3.org/2000/svg" xmlns:xlink="http://www.w3.org/1999/xlink">
    <!-- Generator: Sketch 41 (35326) - http://www.bohemiancoding.com/sketch -->
    <title>kids</title>
    <desc>Created with Sketch.</desc>
    <defs></defs>
    <g id="Page-1" stroke="none" stroke-width="1" fill="none" fill-rule="evenodd">
        <g id="kids" fill="#000000">
            <g id="Group" transform="translate(6.000000, 6.000000)">
                <path d="M4.11806487,25.5409331 L2.38513316,16.1579869 C2.36596471,16.0531437 2.26338759,15.9837623 2.15925627,16.0032919 C2.05357075,16.0223075 1.9836318,16.1225252 2.00331832,16.2273684 L3.73314162,25.5758808 C3.73314162,26.5107321 6.31570203,27 8.86666039,27 C11.2285246,27 12.9329626,26.5703487 13.9317944,25.7223528 C14.0136489,25.6529714 14.0229741,25.5311683 13.9535532,25.4504802 C13.8836142,25.3692782 13.7608325,25.3610552 13.6794961,25.4288949 C12.7526755,26.2152183 11.1332004,26.6140334 8.86666039,26.6140334 C5.96963375,26.6140334 4.12117327,25.9988509 4.11806487,25.5409331 Z" id="Shape"></path>
                <path d="M12.841798,1.62888409 C12.8559066,1.54895143 12.8649764,1.46696922 12.8649764,1.38242506 L12.8649764,1.31940124 C12.8649764,0.591809099 12.3167568,0 11.6425676,0 L6.36141931,0 C5.68773404,0 5.13901058,0.591809099 5.13901058,1.31940124 L5.13901058,1.38242506 C5.13901058,1.45364711 5.14858427,1.52230721 5.15866184,1.59045493 C4.10958724,1.99268016 3.20562959,2.59371226 2.45333931,3.39047689 C-0.120470986,6.11843502 -0.00558673683,10.1304396 0.00297919406,10.3512791 L0.00297919406,10.3512791 C0.00297919406,10.3512791 0.00297919406,10.3512791 0.00297919406,10.3517915 L0.00297919406,10.3594774 C0.00297919406,10.3599898 0.00348307235,10.3605021 0.00348307235,10.3615269 C0.00449082893,10.4055924 0.0120490032,10.4496578 0.0216226907,10.4737401 L2.87458156,26.2901585 C2.87458156,27.4005051 6.03137903,28 9.00123766,28 C11.9710963,28 15.1278938,27.4010175 15.1248705,26.3244885 L17.9748061,10.4998719 C17.9919379,10.4476082 18,10.3989313 18,10.3507668 C18,10.2467518 17.9596897,10.1488856 17.8901545,10.0556308 C17.8412783,7.71760056 17.3630978,3.28390001 12.841798,1.62888409 Z M17.4190283,11.4124364 C17.4190283,11.9453208 14.1397884,12.7185155 9.00174154,12.7185155 C3.86369464,12.7185155 0.584454738,11.9448084 0.584454738,11.4124364 C0.584454738,11.3786187 0.573873294,11.3483878 0.558253067,11.3207188 L0.470074367,10.8308751 C1.63050606,11.7239688 6.00013858,12.0616331 9.07984267,12.0616331 C12.0214841,12.0616331 16.1401852,11.7536874 17.5152691,10.9476997 L17.449261,11.3140578 C17.4321292,11.3432639 17.4190283,11.3755444 17.4190283,11.4124364 Z M16.1779761,9.67082678 C16.869801,9.83889031 17.3217798,10.0192512 17.5056954,10.1883395 C17.5087187,10.2938916 17.5112381,10.4004685 17.5127497,10.5085825 C16.9640262,11.0317315 13.8016861,11.6773414 9.07984267,11.6773414 C3.87427608,11.6773414 0.552710406,10.8923617 0.552710406,10.3523039 C0.552710406,9.81327087 3.85865585,9.03085313 9.04104404,9.02726641 C12.237144,9.02880357 14.7222717,9.32137759 16.1779761,9.67082678 Z M5.5169193,1.38242506 L5.5169193,1.31940124 C5.5169193,0.803938074 5.89583577,0.384291622 6.36141931,0.384291622 L11.6425676,0.384291622 C12.1081512,0.384291622 12.4870677,0.803425685 12.4870677,1.31940124 L12.4870677,1.38242506 C12.4870677,1.42392856 12.4805172,1.46287011 12.4759823,1.50232405 C12.4618737,1.62171065 12.4281139,1.73289902 12.3777261,1.83332723 C12.233113,2.12026498 11.9595071,2.31702229 11.6430715,2.31702229 L6.36141931,2.31702229 C6.04699926,2.31702229 5.77540886,2.12333931 5.62978803,1.84050068 C5.57284979,1.7293123 5.53657055,1.60480182 5.52498135,1.47106833 C5.52246196,1.44134978 5.5169193,1.41316839 5.5169193,1.38242506 Z M2.72795297,3.65486952 C3.4328787,2.90780661 4.28342525,2.3441789 5.2685073,1.96244922 C5.4680431,2.39849211 5.88071942,2.7018263 6.36091543,2.7018263 L11.6420638,2.7018263 C12.1237714,2.7018263 12.5369516,2.39695495 12.7359835,1.95937489 C14.9636294,2.79661823 17.2048801,4.82619039 17.4860441,9.73180105 C17.2336011,9.59294367 16.8954988,9.46894558 16.4964272,9.35878198 C14.6572714,8.84639315 11.4777994,8.64195001 9.07984267,8.64195001 L9.04104404,8.64195001 L9.00174154,8.64195001 C5.9648671,8.64195001 1.68593268,8.9632178 0.390461597,9.80865937 C0.445384331,8.62606595 0.782982784,5.71467262 2.72795297,3.65486952 Z M14.7504889,26.2906709 C14.7504889,26.8440508 12.5636572,27.6162208 9.00174154,27.6162208 C5.43982592,27.6162208 3.25299415,26.8440508 3.249467,26.2563408 L0.682207126,12.008857 C2.05275607,12.7999854 6.10494526,13.1028072 9.00174154,13.1028072 C11.9010572,13.1028072 15.9577813,12.7999854 17.3248031,12.0068075 L14.7504889,26.2906709 Z" id="Shape"></path>
                <path d="M27.7343945,9.96194869 C27.5179014,9.67073949 27.1996514,9.48053067 26.8377913,9.4256726 L24.1287726,9.01603149 C23.3749406,8.90016304 22.6792554,9.42618529 22.5681535,10.1475433 L22.5380417,10.3387775 C22.4238247,11.0760289 22.9383203,11.7671381 23.6838455,11.8799304 L24.1812085,11.9552961 L23.0691506,19.1211957 L22.2343284,18.9945607 C21.4836114,18.8802303 20.7848113,19.4072779 20.678901,20.1009506 L19.0160058,25.695961 C18.9012697,26.4326998 19.4157652,27.123809 20.1623288,27.2371139 L25.0970209,27.9841065 C25.1671086,27.9948731 25.2371963,28 25.3057265,28 C25.9749341,28 26.5558831,27.5067901 26.6597167,26.8264474 L26.7651078,21.0484058 C26.8798439,20.3111544 26.3653484,19.6200452 25.6187848,19.5067402 L24.7839626,19.3801053 L25.8965397,12.2142057 L26.3933835,12.2890588 C27.1446196,12.4018511 27.8423815,11.8783923 27.9540026,11.1570343 L27.9835952,10.9658001 C28.0396653,10.6099917 27.9508876,10.2531579 27.7343945,9.96194869 Z M27.5994108,10.9088913 L27.5698182,11.1001255 C27.4903855,11.6164066 26.9945801,11.99221 26.4525686,11.9101792 L25.5710213,11.7768792 L24.3411123,19.7025887 L25.560638,19.8871579 C26.0948619,19.9681633 26.462952,20.463424 26.3788468,21.0161062 L26.2734557,26.7941478 C26.1929846,27.3104289 25.6971792,27.685207 25.1562061,27.6042016 L20.221514,26.857209 C19.6872901,26.7762036 19.3197191,26.2814556 19.3960368,25.7795299 L21.058932,20.1845194 C21.1316155,19.7164314 21.5474691,19.3631864 22.026142,19.3631864 C22.075463,19.3631864 22.1253031,19.3667753 22.1761816,19.3744656 L23.3962265,19.5590349 L24.6256164,11.6338381 L23.744069,11.5000254 C23.2103643,11.4190201 22.8422742,10.924272 22.9237836,10.3972244 L22.9538953,10.2059902 C23.0343663,9.68919641 23.5348443,9.31698184 24.0706257,9.39593645 L26.7796445,9.80557755 C27.0387094,9.84505486 27.2666241,9.9809183 27.4213362,10.189584 C27.5755291,10.3977371 27.6388676,10.6535705 27.5994108,10.9088913 Z" id="Shape"></path>
                <path d="M25.4516802,9.34666542 L23.7445754,9.01005475 C23.3876911,8.93788057 23.0605078,9.26296763 23.0077059,9.70571681 C22.9813049,9.92527187 23.0232636,10.1454334 23.1255673,10.3243526 C23.227871,10.5032718 23.3782622,10.6203274 23.5484541,10.6536852 L25.2555588,10.9902959 C25.28856,10.9969675 25.3215612,11 25.3536195,11 C25.674674,11 25.943398,10.7034187 25.9924283,10.2940273 C26.0466446,9.84218059 25.8038501,9.41702009 25.4516802,9.34666542 Z M25.3093036,10.5420882 L23.6021989,10.2054775 C23.5248818,10.1903149 23.4569936,10.1369424 23.4103205,10.0556706 C23.3641188,9.97439884 23.345261,9.8749319 23.3570471,9.77607147 C23.3787336,9.59351325 23.5031953,9.45583645 23.6465147,9.45583645 C23.661601,9.45583645 23.6762158,9.45704946 23.6913021,9.46008199 L25.3984068,9.79669266 C25.5577554,9.82823096 25.6680737,10.0217063 25.64403,10.2267052 C25.6195148,10.4274586 25.4677093,10.574233 25.3093036,10.5420882 Z" id="Shape"></path>
                <path d="M21.0022152,25.2604874 C20.9862352,25.3609513 21.058403,25.4545543 21.1640774,25.4697464 L24.7240133,25.9887284 C24.7771082,25.9965695 24.8296876,26 24.8817515,26 C25.3864109,26 25.831274,25.647151 25.9127205,25.1360101 L25.9879813,21.1292141 C26.0745827,20.5891591 25.6838454,20.0834089 25.1168125,20.0015676 C25.0111382,19.9888258 24.9126806,20.054985 24.8967006,20.1554489 C24.8807206,20.2559129 24.9528884,20.3495159 25.0585627,20.364708 C25.4147625,20.4161651 25.6606486,20.7342192 25.6039453,21.0983398 L25.5286846,25.1046457 C25.4735277,25.4437728 25.1379473,25.675575 24.7827785,25.625098 L21.2228426,25.106116 C21.1187147,25.092394 21.0187107,25.1600234 21.0022152,25.2604874 Z" id="Shape"></path>
            </g>
        </g>
    </g>
</svg>