<?xml version="1.0" encoding="UTF-8"?>
<svg width="40px" height="40px" viewBox="0 0 40 40" version="1.1" xmlns="http://www.w3.org/2000/svg" xmlns:xlink="http://www.w3.org/1999/xlink">
    <!-- Generator: Sketch 41.2 (35397) - http://www.bohemiancoding.com/sketch -->
    <title>picnic</title>
    <desc>Created with Sketch.</desc>
    <defs></defs>
    <g id="Page-1" stroke="none" stroke-width="1" fill="none" fill-rule="evenodd">
        <g id="picnic" fill="#000000">
            <g id="Group" transform="translate(6.000000, 13.000000)">
                <path d="M6.83498711,14 L6.67965206,14 C6.21364691,13.9016587 5.95475516,13.5082936 6.00653351,13.0657577 L8.33655928,1.65816812 C8.44011598,1.21563231 8.85434278,0.920608441 9.32034794,1.01894973 C9.78635309,1.11729102 10.0452448,1.51065618 9.99346649,1.95319198 L7.66344072,13.3607816 C7.61166237,13.7541468 7.24921392,14 6.83498711,14 Z" id="Shape"></path>
                <path d="M21.1572471,14 C20.7457814,14 20.4371822,13.7541468 20.3343158,13.3607816 L18.0198217,1.95319198 C17.9169553,1.51065618 18.2255545,1.11729102 18.6884533,1.01894973 C19.1513522,0.920608441 19.5628178,1.21563231 19.6656842,1.65816812 L21.9801783,13.0657577 C22.0830447,13.5082936 21.7744455,13.9016587 21.3115467,14 C21.2601135,14 21.2086803,14 21.1572471,14 Z" id="Shape"></path>
                <path d="M27.2183908,8 L0.735632184,8 C0.32183908,8 0,7.5625 0,7 C0,6.4375 0.32183908,6 0.735632184,6 L27.2643678,6 C27.6781609,6 28,6.4375 28,7 C28,7.5625 27.6321839,8 27.2183908,8 Z" id="Shape"></path>
                <path d="M21.3063584,2 L6.73988439,2 C6.32369942,2 6,1.5625 6,1 C6,0.4375 6.32369942,0 6.73988439,0 L21.2601156,0 C21.6763006,0 22,0.4375 22,1 C22,1.5625 21.6763006,2 21.3063584,2 Z" id="Shape"></path>
            </g>
        </g>
    </g>
</svg>