<?xml version="1.0" encoding="UTF-8"?>
<svg width="40px" height="40px" viewBox="0 0 40 40" version="1.1" xmlns="http://www.w3.org/2000/svg" xmlns:xlink="http://www.w3.org/1999/xlink">
    <!-- Generator: Sketch 41.2 (35397) - http://www.bohemiancoding.com/sketch -->
    <title>rockPools</title>
    <desc>Created with Sketch.</desc>
    <defs></defs>
    <g id="Page-1" stroke="none" stroke-width="1" fill="none" fill-rule="evenodd">
        <g id="rockPools" fill="#000000">
            <g id="noun_708881_cc" transform="translate(7.000000, 9.000000)">
                <g id="Group">
                    <path d="M19.1616438,9.271875 C18.9835616,9.271875 18.8054795,9.2359375 18.6273973,9.2 C18.2,9.05625 17.8438356,8.76875 17.630137,8.3375 C17.2027397,7.475 17.5232877,6.4328125 18.3780822,6.0015625 C19.2328767,5.5703125 20.2657534,5.89375 20.6931507,6.75625 C20.9068493,7.1515625 20.9424658,7.6546875 20.8,8.0859375 C20.6575342,8.5171875 20.3726027,8.8765625 19.9452055,9.0921875 C19.6958904,9.2 19.4109589,9.271875 19.1616438,9.271875 Z M19.1616438,7.04375 C19.090411,7.04375 19.0191781,7.04375 18.9479452,7.0796875 C18.8410959,7.1515625 18.7342466,7.2234375 18.6986301,7.3671875 C18.6630137,7.475 18.6630137,7.61875 18.7342466,7.7265625 C18.8054795,7.834375 18.8767123,7.9421875 19.0191781,7.978125 C19.1260274,8.0140625 19.2684932,8.0140625 19.3753425,7.9421875 L19.3753425,7.9421875 C19.6246575,7.834375 19.6958904,7.5109375 19.5890411,7.2953125 C19.4821918,7.1515625 19.339726,7.04375 19.1616438,7.04375 Z" id="Shape"></path>
                    <path d="M13.5342466,6.7203125 C13.3561644,6.7203125 13.1780822,6.684375 13,6.6484375 C12.5726027,6.5046875 12.2164384,6.2171875 12.0027397,5.7859375 C11.7890411,5.390625 11.7534247,4.9234375 11.8958904,4.45625 C12.0383562,3.9890625 12.3232877,3.665625 12.7506849,3.45 C13.6054795,3.01875 14.6383562,3.3421875 15.0657534,4.2046875 C15.4931507,5.0671875 15.1726027,6.109375 14.3178082,6.540625 L14.3178082,6.540625 C14.0684932,6.6484375 13.8191781,6.7203125 13.5342466,6.7203125 Z M13.5342466,4.4921875 C13.4630137,4.4921875 13.3917808,4.528125 13.3205479,4.5640625 C13.2136986,4.6359375 13.1068493,4.7078125 13.0712329,4.8515625 C13.0356164,4.959375 13.0356164,5.103125 13.1068493,5.2109375 C13.2136986,5.4625 13.5342466,5.534375 13.7479452,5.4265625 C13.9972603,5.31875 14.0684932,4.9953125 13.9616438,4.7796875 C13.890411,4.671875 13.8191781,4.5640625 13.6767123,4.528125 C13.6410959,4.4921875 13.6054795,4.4921875 13.5342466,4.4921875 Z" id="Shape"></path>
                    <path d="M7.58630137,7.8703125 C7.40821918,7.8703125 7.23013699,7.834375 7.05205479,7.7984375 C6.62465753,7.6546875 6.26849315,7.3671875 6.05479452,6.9359375 C5.84109589,6.540625 5.80547945,6.0734375 5.94794521,5.60625 C6.09041096,5.1390625 6.37534247,4.815625 6.80273973,4.6 C7.65753425,4.16875 8.69041096,4.4921875 9.11780822,5.3546875 C9.54520548,6.2171875 9.22465753,7.259375 8.36986301,7.690625 L8.36986301,7.690625 C8.12054795,7.7984375 7.83561644,7.8703125 7.58630137,7.8703125 Z M7.58630137,5.6421875 C7.51506849,5.6421875 7.44383562,5.678125 7.37260274,5.7140625 C7.26575342,5.7859375 7.15890411,5.8578125 7.12328767,6.0015625 C7.08767123,6.109375 7.08767123,6.253125 7.15890411,6.3609375 C7.26575342,6.6125 7.58630137,6.684375 7.8,6.5765625 C8.04931507,6.46875 8.12054795,6.1453125 8.01369863,5.9296875 C7.94246575,5.821875 7.87123288,5.7140625 7.72876712,5.678125 C7.65753425,5.678125 7.62191781,5.6421875 7.58630137,5.6421875 Z" id="Shape"></path>
                    <path d="M25.9287671,8.409375 L25.9287671,8.3375 L25.9287671,8.265625 L25.9287671,8.19375 L25.9287671,8.121875 L25.9287671,8.05 L25.9287671,8.0140625 C25.9287671,7.978125 25.9287671,7.978125 25.8931507,7.9421875 L25.8931507,7.9421875 C24.1123288,4.528125 21.1205479,1.940625 17.4520548,0.7546875 C13.7835616,-0.43125 9.86575342,-0.14375 6.44657534,1.653125 C0.712328767,4.6 -1.56712329,11.715625 1.35342466,17.5015625 C3.02739726,20.8078125 6.33972603,22.7125 9.79452055,22.7125 C11.2547945,22.7125 12.7150685,22.3890625 14.0684932,21.6703125 C17.2739726,20.0171875 18.8410959,16.3875 18.0575342,13.009375 L18.4136986,13.009375 C20.4438356,13.009375 24.3972603,12.4703125 25.8931507,8.553125 L25.8931507,8.553125 C25.8931507,8.4453125 25.8931507,8.4453125 25.9287671,8.409375 Z M20.4794521,11.5359375 C19.3041096,11.7875 18.2,11.7515625 17.6657534,11.715625 C17.5945205,11.5359375 17.5232877,11.3921875 17.4520548,11.2125 C16.7041096,9.703125 15.3863014,8.5890625 13.7835616,8.0859375 C12.1808219,7.5828125 10.5068493,7.690625 9.0109589,8.48125 C6.48219178,9.775 5.48493151,12.9015625 6.76712329,15.453125 C7.83561644,17.5375 10.4,18.4 12.4657534,17.321875 C14.1753425,16.4234375 14.8876712,14.303125 13.9972603,12.5421875 C13.2493151,11.1046875 11.5041096,10.49375 10.0438356,11.2484375 C9.1890411,11.6796875 8.83287671,12.7578125 9.26027397,13.584375 C9.4739726,13.9796875 9.83013699,14.303125 10.2575342,14.446875 C10.6849315,14.590625 11.1479452,14.5546875 11.5753425,14.3390625 C11.860274,14.1953125 12.0027397,13.8 11.860274,13.5125 C11.7178082,13.225 11.3260274,13.08125 11.0410959,13.225 C10.9342466,13.296875 10.7917808,13.296875 10.6849315,13.2609375 C10.5780822,13.225 10.4712329,13.1171875 10.4,13.009375 C10.2931507,12.79375 10.4,12.434375 10.6493151,12.3265625 C11.4684932,11.8953125 12.5013699,12.21875 12.9287671,13.08125 C13.4986301,14.1953125 13.0712329,15.596875 11.9315068,16.171875 C10.4712329,16.9265625 8.65479452,16.3515625 7.87123288,14.8421875 C6.8739726,12.9015625 7.65753425,10.5296875 9.58082192,9.5234375 C10.7917808,8.9125 12.1452055,8.8046875 13.4273973,9.2 C14.709589,9.63125 15.7424658,10.5296875 16.3479452,11.715625 C17.9506849,14.9140625 16.7041096,18.83125 13.5342466,20.484375 C9.50958904,22.56875 4.52328767,20.9515625 2.45753425,16.8546875 C-0.142465753,11.7515625 1.88767123,5.390625 7.01643836,2.73125 C13.4273973,-0.575 21.2630137,1.940625 24.6465753,8.265625 C23.8986301,9.990625 22.509589,11.06875 20.4794521,11.5359375 Z" id="Shape"></path>
                </g>
            </g>
        </g>
    </g>
</svg>