<?xml version="1.0" encoding="UTF-8"?>
<svg width="40px" height="40px" viewBox="0 0 40 40" version="1.1" xmlns="http://www.w3.org/2000/svg" xmlns:xlink="http://www.w3.org/1999/xlink">
    <!-- Generator: Sketch 41 (35326) - http://www.bohemiancoding.com/sketch -->
    <title>surfing</title>
    <desc>Created with Sketch.</desc>
    <defs></defs>
    <g id="Page-1" stroke="none" stroke-width="1" fill="none" fill-rule="evenodd">
        <g id="surfing" fill="#000000">
            <path d="M28,20 C28.4044444,20 28.7621618,19.6802453 28.7222222,19.2777778 C28,12 24.5466667,7 15.3888889,7 C10.2177778,7 6,11.2177778 6,16.3888889 C6,25.5466667 13.4533333,33 22.6111111,33 L31.2777778,33 C31.6822222,33 32,32.6822222 32,32.2777778 C32,31.8733333 31.6822222,31.5555556 31.2777778,31.5555556 L22.6111111,31.5555556 C18.3355556,31.5555556 14.4644444,29.7644444 11.6911111,26.9044444 C11.6911111,26.9044444 11,26 10.42,25.4311111 C8.54222222,22.8888889 7.44444444,19.7688889 7.44444444,16.3888889 C7.44444444,11.9977778 10.9977778,8.44444444 15.3888889,8.44444444 L15.88,8.44444444 C24,8.44444444 27,14.0755556 27.2777778,19.2777778 C27.2993428,19.6816469 27.5955556,20 28,20 Z" id="Shape-Copy"></path>
            <path d="M17.4977778,28.1755556 C17.5266667,28.0888889 17.5555556,28.0022222 17.5555556,27.9155556 L17.5555556,24.5066667 L18.9133333,21.7622222 C18.9422222,21.6755556 18.9711111,21.6177778 18.9711111,21.56 L18.9711111,21.3577778 C18.9711111,21.2711111 18.8033389,20.1317479 18,19 C17.1966611,17.8682521 16.44689,17.4154189 16,17 C15.55311,16.5845811 14.32,17.1977778 14.2911111,17.2266667 L9.95777778,20.1155556 C9.64,20.3466667 9.52444444,20.78 9.75555556,21.1266667 C9.9,21.3288889 10.1311111,21.4444444 10.3622222,21.4444444 C10.5066667,21.4444444 10.6511111,21.4155556 10.7666667,21.3288889 L14.6088889,18.7577778 L16.9777778,21.1266667 L13.7422222,22.1955556 C13.4244444,22.3111111 13.2222222,22.5711111 13.2222222,22.8888889 L13.2222222,26.0666667 L17.4977778,28.1755556 Z M14.6666667,26.5 L14.6666667,23.4088889 L16.8622222,22.6866667 L16.1977778,24.0155556 C16.14,24.1022222 16.1111111,24.2177778 16.1111111,24.3333333 L16.1111111,27.5111111 L14.6088889,26.76 C14.6377778,26.6733333 14.6666667,26.5866667 14.6666667,26.5 Z" id="Shape"></path>
            <path d="M15,17 C19,16 21,18 21,18 C21,18 22,19 21,19 C20,19 19,17 16,18 C15,18 14,18 15,17 Z" id="Path-4"></path>
            <path d="M12,15.5 C12,16.34 12.66,17 13.5,17 C14.34,17 15,16.34 15,15.5 C15,14.66 14.34,14 13.5,14 C12.66,14 12,14.66 12,15.5 Z" id="Shape"></path>
            <path d="M8.18569534,12.4642383 C13.046401,10.5199561 15.8785463,10.5199561 18.7226499,12.4160251 C19.5082532,12.9397607 20.1551895,13.7126497 21.1928901,15.2435104 C21.2880398,15.3838793 21.6196971,15.8765358 21.676144,15.9600322 C23.8638825,19.196142 25.3724312,20.5 28,20.5 C28.2761424,20.5 28.5,20.2761424 28.5,20 C28.5,19.7238576 28.2761424,19.5 28,19.5 C25.8155457,19.5 24.5185022,18.3789485 22.504593,15.3999678 C22.4490275,15.3177751 22.1168925,14.824409 22.0206416,14.6824155 C20.912223,13.0472285 20.2051753,12.202525 19.2773501,11.5839749 C16.1214537,9.48004392 12.953599,9.48004392 7.81430466,11.5357617 C7.5579129,11.6383184 7.43320495,11.9293036 7.53576165,12.1856953 C7.63831836,12.4420871 7.92930358,12.566795 8.18569534,12.4642383 Z" id="Path-2"></path>
            <path d="M28.2236068,19.5527864 C24.1853505,17.5336583 20.5267728,20.0178777 20.3753426,24.1064942 C20.2132969,28.4817278 24.0702673,32.0391277 30.9667405,32.4988926 C31.2422713,32.5172613 31.4805239,32.3087903 31.4988926,32.0332595 C31.5172613,31.7577287 31.3087903,31.5194761 31.0332595,31.5011074 C24.6402093,31.0749041 21.2342866,27.9335191 21.3746574,24.1435058 C21.5003144,20.7507668 24.4193615,18.7686978 27.7763932,20.4472136 C28.0233825,20.5707082 28.323719,20.470596 28.4472136,20.2236068 C28.5707082,19.9766175 28.470596,19.676281 28.2236068,19.5527864 Z" id="Path-3"></path>
            <path d="M9.8667771,25.4250392 C10.4601485,25.6219346 11.0557528,25.8012203 12.1775593,26.1292016 C14.7983061,26.8954266 15.9256633,27.2817672 17.2013305,27.9349379 C18.2064377,28.4495757 18.9225671,28.8919975 19.3433941,29.2451513 C19.4636214,29.3460449 19.5539908,29.4350765 19.6146493,29.5082543 C19.3610851,29.5225276 18.6017852,29.512967 17.640204,29.3260652 C14.6763135,28.7499759 11.5212336,27.2441811 9.8667771,25.4250392 C9.60721468,25.1396399 9.38458782,24.8465279 9.2054295,24.5480835 L8.7590246,25.3051143 L9.5987291,25.3348863 C9.68919973,25.3657036 9.7779634,25.3955687 9.8667771,25.4250392 Z M9.85247499,24.3648253 L9.70809766,24.3381356 L7.87401091,24.2731074 L8.3480528,25.0627729 C9.84583091,27.5577924 13.7694461,29.5924233 17.4494054,30.3076944 C19.1711954,30.6423574 20.3344011,30.5919848 20.6295534,29.8791471 C20.9645511,29.0700766 19.9505556,28.2191416 17.6570848,27.0448323 C16.3059196,26.3530049 15.1402911,25.9535489 12.4581805,25.169383 C11.1398149,24.7839339 10.559395,24.6070838 9.85247499,24.3648253 Z" id="board"></path>
        </g>
    </g>
</svg>