<?xml version="1.0" encoding="UTF-8"?>
<svg width="40px" height="40px" viewBox="0 0 40 40" version="1.1" xmlns="http://www.w3.org/2000/svg" xmlns:xlink="http://www.w3.org/1999/xlink">
    <!-- Generator: Sketch 41 (35326) - http://www.bohemiancoding.com/sketch -->
    <title>swimming</title>
    <desc>Created with Sketch.</desc>
    <defs></defs>
    <g id="Page-1" stroke="none" stroke-width="1" fill="none" fill-rule="evenodd">
        <g id="swimming" fill="#000000">
            <g id="Group" transform="translate(3.000000, 9.000000)">
                <path d="M16.2450325,6.20892946 C16.5317781,6.06581749 16.5317781,5.56492559 16.2450325,5.42181362 C14.5245589,4.4915858 12.8040853,4.13380587 10.9402389,3.99069389 C9.86494289,3.91913791 8.71796049,3.99069389 7.64266449,3.99069389 C5.85050449,4.42002981 3,2 6.99748689,1.12845445 L9.21976529,1.12845445 C16.4600917,1.12845445 22.6251221,5.42181362 24.2022229,12.6489682 C24.4172821,12.5058562 24.6323413,12.2911883 24.8474005,12.1480763 C22.6968085,11.0747365 20.1160981,10.1445087 17.6787605,10.0729527 C14.0227541,10.0013967 11.0836117,13.722308 7.35591889,11.0747365 C6.85411409,10.7169566 6.42399569,11.5040724 6.92580049,11.8618524 C8.50290129,13.0067481 9.86494289,13.0783041 11.7287893,12.7920802 C13.1625173,12.5774122 14.5962453,11.6471844 15.8149141,11.1462925 C18.0371925,10.2160647 22.4100629,11.9334084 24.3455957,12.9351922 C24.7040277,13.1498601 25.0624597,12.7920802 24.9907733,12.4343003 C24.0588501,8.21249708 21.6215125,4.92092171 18.0371925,2.48801819 C16.0299733,1.12845445 13.8793813,0.484450573 11.5137301,0.269782615 C9.79325649,0.126670643 5.77881809,-0.445777247 4.27340369,0.699118532 C2.12281169,2.27335023 2.83967569,4.42002981 5.34869969,4.92092171 C8.21615569,5.4933696 11.0836117,4.70625376 13.9510677,5.42181362 C16.1016597,5.92270552 12.0155349,7.71160517 11.4420437,8.0693851 C10.0083157,8.92805694 8.57458769,9.78672877 7.14085969,10.6454006 C6.63905489,10.8600686 7.14085969,11.6471844 7.64266449,11.3609605 C10.5101205,9.6436168 13.3775765,7.92627313 16.2450325,6.20892946 Z" id="Shape"></path>
                <path d="M0.527117871,13.0856172 C4.36417615,12.0431509 6.92221501,16.4364019 10.4750468,16.9576351 C12.4646325,17.2554826 14.1699918,15.1705499 15.5911245,14.0536217 C19.4281827,11.0751464 21.6309384,16.4364019 24.9706003,16.9576351 C28.1681488,17.4788683 29.7313948,13.0111553 32.5736602,13.3834647 C33.1421133,13.4579266 33.1421133,12.4899221 32.5736602,12.4154603 C29.0918851,11.968689 28.3102621,16.5853257 24.2600339,15.8407069 C22.6257313,15.5428593 22.3415048,13.6068504 21.0624853,12.7877697 C19.9966358,12.1176127 18.6465598,12.2665365 17.438597,12.3409984 C16.2306342,12.4154603 15.3068979,13.0111553 14.3831617,13.7557742 C11.6830095,15.8407069 9.7644804,16.2874782 7.06432828,14.4259311 C4.79051596,13.0111553 3.08515673,11.4474558 0.313947966,12.1920746 C-0.254505112,12.3409984 0.029721427,13.234541 0.527117871,13.0856172 L0.527117871,13.0856172 Z" id="Shape"></path>
                <path d="M33.4399869,18.0158772 C31.2490509,18.5830456 29.7648685,20.0718627 27.9273094,21.2770955 C24.1108403,23.7584573 21.2131509,18.8666298 17.3966818,19.2211101 C13.5095374,19.5755903 11.3186015,23.4748731 7.07808033,21.0644074 C5.09917045,19.9300706 3.75633875,18.5121496 1.42405212,18.2285654 C0.858649295,18.1576693 0.858649295,19.079318 1.42405212,19.150214 C4.39241693,19.5046943 6.2299761,22.1987442 9.12766555,22.9077047 C11.6013029,23.4748731 14.3576416,21.2770955 16.4779022,20.4263429 C19.8703192,19.0084219 22.838684,23.0494968 26.3017762,22.8368087 C29.1287903,22.6950166 30.9663495,19.5755903 33.7226883,18.8666298 C34.2174157,18.7248377 34.0053897,17.8740851 33.4399869,18.0158772 L33.4399869,18.0158772 Z" id="Shape"></path>
                <path d="M25.3078863,0.603242617 C24.5701043,1.42576639 24.3018199,2.31683381 24.1006066,3.48207582 C24.0335355,4.1675123 23.8323223,5.33275431 24.3018199,5.94964714 C25.6432418,7.66323834 28.2590144,8.69139306 30.137005,7.4576074 C31.612569,6.49799633 32.6857065,3.41353218 31.4784269,1.90557192 C30.2040761,0.123437082 27.7895168,-0.4249121 25.777384,0.329068026 C25.2408152,0.534698969 25.5090996,1.35722274 25.9785972,1.1515918 C27.3870902,0.671786265 28.7285121,0.80887356 30.0028628,1.56285369 C31.8808534,2.65955205 31.2772136,5.19566702 30.0028628,6.49799633 C28.661441,7.93741293 26.7163793,6.70362727 25.4420285,5.81255985 C24.1006066,4.92149243 25.106673,2.11120287 25.9115261,1.22013545 C26.2468816,0.740329912 25.7103129,0.19198073 25.3078863,0.603242617 L25.3078863,0.603242617 Z" id="Shape"></path>
            </g>
        </g>
    </g>
</svg>