<?xml version="1.0" encoding="UTF-8"?>
<svg width="16px" height="16px" viewBox="0 0 16 16" version="1.1" xmlns="http://www.w3.org/2000/svg" xmlns:xlink="http://www.w3.org/1999/xlink">
    <!-- Generator: Sketch 41.1 (35376) - http://www.bohemiancoding.com/sketch -->
    <title>tick</title>
    <desc>Created with Sketch.</desc>
    <defs></defs>
    <g id="Page-1" stroke="none" stroke-width="1" fill="none" fill-rule="evenodd">
        <g id="tick" fill="#979797">
            <path d="M2.32917961,10.3416408 C3.89650499,11.1253035 4.9877022,12.5087065 5.56302697,14.4302424 C5.80064327,15.2238607 6.63662409,15.6745893 7.43024238,15.436973 C8.22386067,15.1993567 8.67458934,14.3633759 8.43697303,13.5697576 C7.63317465,10.8851393 6.01084085,8.82836944 3.67082039,7.65835921 C2.92985265,7.28787534 2.02884309,7.58821186 1.65835921,8.32917961 C1.28787534,9.07014735 1.58821186,9.97115691 2.32917961,10.3416408 Z" id="Path-13"></path>
            <path d="M8.5,14 C8.5,10.867651 10.8388188,6.44988226 14.9370426,3.17130321 C15.5839355,2.65378889 15.6888175,1.70985033 15.1713032,1.06295743 C14.6537889,0.416064526 13.7098503,0.311182464 13.0629574,0.828696786 C8.28363021,4.65215856 5.5,9.91012674 5.5,14 C5.5,14.8284271 6.17157288,15.5 7,15.5 C7.82842712,15.5 8.5,14.8284271 8.5,14 Z" id="Path-14"></path>
        </g>
    </g>
</svg>