<?xml version="1.0" encoding="UTF-8"?>
<svg width="40px" height="40px" viewBox="0 0 40 40" version="1.1" xmlns="http://www.w3.org/2000/svg" xmlns:xlink="http://www.w3.org/1999/xlink">
    <!-- Generator: Sketch 41 (35326) - http://www.bohemiancoding.com/sketch -->
    <title>wild</title>
    <desc>Created with Sketch.</desc>
    <defs></defs>
    <g id="Page-1" stroke="none" stroke-width="1" fill="none" fill-rule="evenodd">
        <g id="wild" fill="#D1D1D1">
            <g id="Group-Copy" transform="translate(2.000000, 15.000000)">
                <path d="M19.1,19.8 C20.7,20.6 22.45,21.1 24.4,21.1 C25.05,21.1 25.7,21.05 26.4,20.9 C28.85,19.6 30.95,17.75 32.55,15.55 C31.85,15.1 31.2,14.7 30.6,14.4 C31.6,14.05 32.65,13.6 33.75,13 C33.85,13.05 33.9,13.1 34,13.15 C34.7,11.8 35.2,10.4 35.55,8.9 C35,8.3 34.45,7.75 33.9,7.25 C34.45,7.5 35.05,7.75 35.7,8.05 C35.8,7.35 35.9,6.7 35.95,5.95 C33.05,4.7 30.8,3.75 28.8,3.2 C21.4,-1.35 15.75,1.2 10.7,4.55 C7.7,3 4.25,2.15 0,3.35 C3.55271368e-15,3.9 3.55271368e-15,4.45 3.55271368e-15,5 L3.55271368e-15,5.45 C3.5,4.3 6.3,4.7 8.85,5.85 C8.6,6 8.35,6.2 8.1,6.35 C5.65,8.1 3.3,9.75 0.85,10.65 C1.15,11.6 1.55,12.55 2.05,13.45 C5.4,12.5 8.05,13.15 10.45,14.4 C8.45,15.4 6.15,15.9 3.2,15.3 C3.75,16.1 4.35,16.85 5.05,17.5 L5.6,17.5 C8.35,17.5 10.55,16.65 12.5,15.5 C13.2,15.95 13.85,16.4 14.5,16.85 C15.4,17.45 16.25,18.1 17.2,18.65 C15.75,19.8 14,20.9 11.85,21.85 C12.8,22.2 13.75,22.45 14.8,22.65 C16.5,21.8 17.9,20.8 19.1,19.8 Z M20.85,18.4 C24.3,15.5 26.2,13.9 31.05,16.95 C26.75,19.5 23.65,19.5 20.85,18.4 Z M19.7,10.7 C22.7,9.15 26.2,8.75 31.75,11.8 C26.8,14.15 23.2,12.95 19.7,10.7 Z M34.25,10.45 C34.1,10.55 33.95,10.6 33.85,10.7 C26.2,6.15 21.65,7.15 17.9,9.45 C17.35,9.05 16.85,8.65 16.3,8.25 C15.9,7.95 15.5,7.65 15.05,7.35 C21.2,4.6 23.95,3.9 28,5 C29.9,6.2 32,8 34.25,10.45 Z M21.75,2.8 C19.45,3.25 16.8,4.35 13.15,6 C13,5.9 12.85,5.8 12.7,5.7 C15.55,3.9 18.45,2.55 21.75,2.8 Z M11,7 C10.75,7.1 10.5,7.25 10.2,7.35 C10.4,7.2 10.65,7.05 10.85,6.9 C10.9,6.9 10.95,6.95 11,7 Z M6.85,11.1 C7.9,10.6 8.9,10.15 9.85,9.7 C10.95,9.2 12,8.7 12.95,8.25 C13.65,8.75 14.35,9.3 15.1,9.8 C15.45,10.05 15.8,10.3 16.15,10.55 C15.7,10.9 15.25,11.2 14.8,11.55 C14.05,12.1 13.3,12.65 12.55,13.15 C10.8,12.25 8.95,11.4 6.85,11.1 Z M15.65,15.3 C15.2,15 14.75,14.7 14.3,14.4 C14.85,14 15.4,13.6 15.9,13.25 C16.55,12.8 17.15,12.3 17.8,11.9 C19.35,12.95 20.95,13.9 22.65,14.5 C21.55,15.15 20.55,16 19.45,16.95 C19.25,17.1 19.05,17.3 18.8,17.5 C17.8,16.8 16.75,16.05 15.65,15.3 Z" id="Shape"></path>
            </g>
        </g>
    </g>
</svg>