<?xml version="1.0" encoding="UTF-8"?>
<svg width="100px" height="100px" viewBox="0 0 100 100" version="1.1" xmlns="http://www.w3.org/2000/svg" xmlns:xlink="http://www.w3.org/1999/xlink">
    <!-- Generator: Sketch 41.2 (35397) - http://www.bohemiancoding.com/sketch -->
    <title>AVATAR</title>
    <desc>Created with Sketch.</desc>
    <defs></defs>
    <g id="Page-1" stroke="none" stroke-width="1" fill="none" fill-rule="evenodd">
        <g id="AVATAR">
            <g id="FACE" transform="translate(27.000000, 34.000000)" fill="#9013FE">
                <g id="face-10" transform="translate(9.000000, 10.000000)">
                    <circle id="Oval" cx="3.04347826" cy="2.8" r="2.06956522"></circle>
                    <ellipse id="Oval" cx="25.9304348" cy="2.8" rx="2.06956522" ry="2.06956522"></ellipse>
                    <path d="M14.6086957,12.7043478 C16.1913043,12.7043478 17.8956522,11.8521739 18.8695652,10.5130435 C19.4782609,9.7826087 19.2347826,8.68695652 18.5043478,8.07826087 C17.773913,7.46956522 16.6782609,7.71304348 16.0695652,8.44347826 C15.7043478,8.80869565 15.0956522,9.17391304 14.6086957,9.17391304 C14.1217391,9.17391304 13.3913043,8.80869565 13.1478261,8.44347826 C12.7826087,7.95652174 12.2956522,7.59130435 11.6869565,7.59130435 C10.7130435,7.59130435 9.9826087,8.32173913 9.9826087,9.29565217 C9.9826087,9.66086957 10.1043478,10.026087 10.226087,10.2695652 C11.0782609,11.7304348 12.9043478,12.7043478 14.6086957,12.7043478 Z" id="Shape"></path>
                    <path d="M23.1304348,15.2086957 C20.8173913,17.5217391 17.773913,18.7391304 14.4869565,18.7391304 C11.2,18.7391304 8.15652174,17.5217391 5.84347826,15.2086957 C5.11304348,14.4782609 4.0173913,14.4782609 3.40869565,15.2086957 C2.67826087,15.9391304 2.67826087,17.0347826 3.40869565,17.6434783 C6.33043478,20.5652174 10.3478261,22.2695652 14.4869565,22.2695652 C18.626087,22.2695652 22.6434783,20.6869565 25.5652174,17.6434783 C26.2956522,16.9130435 26.2956522,15.8173913 25.5652174,15.2086957 C24.9565217,14.4782609 23.8608696,14.4782609 23.1304348,15.2086957 Z" id="Shape"></path>
                </g>
            </g>
            <g id="FEATURE" transform="translate(26.000000, 40.000000)"></g>
            <g id="HAIR" transform="translate(7.000000, -1.000000)"></g>
        </g>
    </g>
</svg>