<?xml version="1.0" encoding="UTF-8"?>
<svg width="100px" height="100px" viewBox="0 0 100 100" version="1.1" xmlns="http://www.w3.org/2000/svg" xmlns:xlink="http://www.w3.org/1999/xlink">
    <!-- Generator: Sketch 41.2 (35397) - http://www.bohemiancoding.com/sketch -->
    <title>AVATAR</title>
    <desc>Created with Sketch.</desc>
    <defs></defs>
    <g id="Page-1" stroke="none" stroke-width="1" fill="none" fill-rule="evenodd">
        <g id="AVATAR" fill="#000000">
            <g id="EYES" transform="translate(33.000000, 34.000000)">
                <g id="eyes9" transform="translate(1.000000, 7.000000)">
                    <path d="M8.8,2.6 L2,0.2 C1.2,-0.1 0.4,0.3 0.1,1.1 C-0.2,1.9 0.2,2.7 1,3 L4.1,4.1 C3.9,4.4 3.8,4.8 3.8,5.2 C3.8,6.3 4.7,7.2 5.8,7.2 C6.8,7.2 7.6,6.4 7.7,5.4 L7.9,5.5 C8.1,5.6 8.2,5.6 8.4,5.6 C9,5.6 9.6,5.2 9.8,4.6 C10,3.8 9.6,2.9 8.8,2.6 Z" id="Shape"></path>
                    <path d="M30,0.2 L23.1,2.6 C22.3,2.9 21.9,3.7 22.2,4.5 C22.4,5.1 23,5.5 23.6,5.5 C23.8,5.5 23.9,5.5 24.1,5.4 L24.3,5.3 C24.4,6.3 25.2,7.1 26.2,7.1 C27.3,7.1 28.2,6.2 28.2,5.1 C28.2,4.7 28.1,4.3 27.9,4 L31,2.9 C31.8,2.6 32.2,1.8 31.9,1 C31.6,0.2 30.8,6.66133815e-16 30,0.2 Z" id="Shape"></path>
                </g>
            </g>
        </g>
    </g>
</svg>