<?xml version="1.0" encoding="UTF-8"?>
<svg width="100px" height="100px" viewBox="0 0 100 100" version="1.1" xmlns="http://www.w3.org/2000/svg" xmlns:xlink="http://www.w3.org/1999/xlink">
    <!-- Generator: Sketch 41.2 (35397) - http://www.bohemiancoding.com/sketch -->
    <title>AVATAR</title>
    <desc>Created with Sketch.</desc>
    <defs></defs>
    <g id="Page-1" stroke="none" stroke-width="1" fill="none" fill-rule="evenodd">
        <g id="AVATAR">
            <g id="EYES" transform="translate(33.000000, 34.000000)" fill="#95FF73">
                <g id="eyes-2" transform="translate(0.000000, 14.000000)">
                    <path d="M0.517073171,2.48387097 C-0.043902439,3.0483871 -0.043902439,4.06451613 0.517073171,4.63016129 C1.07804878,5.19354839 2.2,5.19354839 2.76097561,4.63016129 C3.88292683,3.5 5.67804878,3.5 6.8,4.63016129 C7.13658537,4.96774194 7.47317073,5.08064516 7.8097561,5.08064516 C8.14634146,5.08064516 8.59512195,4.96774194 8.8195122,4.63016129 C9.3804878,4.06451613 9.3804878,3.0483871 8.8195122,2.48387097 C7.69756098,1.35483871 6.21097561,0.791451613 4.71092683,0.791451613 C3.2097561,0.791451613 1.69512195,1.35483871 0.517073171,2.48387097 Z" id="Clip-7"></path>
                    <path d="M23.6292683,2.48387097 C23.0682927,3.0483871 23.0682927,4.06451613 23.6292683,4.63016129 C23.9658537,4.96774194 24.302439,5.08064516 24.6390244,5.08064516 C24.9756098,5.08064516 25.4243902,4.96774194 25.6487805,4.63016129 C26.7707317,3.5 28.5658537,3.5 29.6878049,4.63016129 C30.2487805,5.19354839 31.2585366,5.19354839 31.8195122,4.63016129 C32.3804878,4.06451613 32.3804878,3.0483871 31.8195122,2.48387097 C30.7536585,1.35483871 29.295122,0.790322581 27.8085366,0.790322581 C26.3219512,0.790322581 24.8073171,1.35483871 23.6292683,2.48387097 Z" id="Clip-12"></path>
                </g>
            </g>
            <g id="HAIR" transform="translate(7.000000, -2.000000)"></g>
        </g>
    </g>
</svg>