<?xml version="1.0" encoding="UTF-8"?>
<svg width="100px" height="100px" viewBox="0 0 100 100" version="1.1" xmlns="http://www.w3.org/2000/svg" xmlns:xlink="http://www.w3.org/1999/xlink">
    <!-- Generator: Sketch 41.2 (35397) - http://www.bohemiancoding.com/sketch -->
    <title>AVATAR</title>
    <desc>Created with Sketch.</desc>
    <defs></defs>
    <g id="Page-1" stroke="none" stroke-width="1" fill="none" fill-rule="evenodd">
        <g id="AVATAR">
            <g id="EYES" transform="translate(33.000000, 34.000000)" fill="#417505">
                <g id="eyes-4" transform="translate(1.887380, 0.618820)">
                    <path d="M5.91212466,14.7387861 C7.0209269,14.7387861 7.92001605,13.8455935 7.92001605,12.7440632 C7.92001605,11.6425328 7.0209269,10.7493402 5.91212466,10.7493402 C4.80332241,10.7493402 3.90423326,11.6425328 3.90423326,12.7440632 C3.90423326,13.8455935 4.80332241,14.7387861 5.91212466,14.7387861" id="Fill-7"></path>
                    <path d="M25.0986424,14.7387861 C26.2074447,14.7387861 27.1065338,13.8455935 27.1065338,12.7440632 C27.1065338,11.6425328 26.2074447,10.7493402 25.0986424,10.7493402 C23.9898402,10.7493402 23.090751,11.6425328 23.090751,12.7440632 C23.090751,13.8455935 23.9898402,14.7387861 25.0986424,14.7387861" id="Fill-9"></path>
                    <path d="M21.5380973,3.87862792 C21.7611964,3.87862792 22.0958449,3.76780998 22.318944,3.65699204 C23.2113401,3.10290233 24.3268354,2.88126645 25.6654296,2.88126645 C26.8924744,2.88126645 28.1195191,3.21372028 29.0119153,3.65699204 C29.6812124,4.1002638 30.5736086,3.87862792 31.0198067,3.21372028 C31.4660048,2.54881263 31.2429057,1.66226911 30.5736086,1.21899735 C29.2350143,0.443271762 27.5617715,0 25.6654296,0 C23.8806373,0 22.0958449,0.443271762 20.7572507,1.21899735 C20.0879535,1.66226911 19.8648545,2.54881263 20.3110526,3.21372028 C20.6457011,3.65699204 21.0918992,3.87862792 21.5380973,3.87862792 Z" id="Shape"></path>
                    <path d="M1.45918339,3.87862792 C1.68228243,3.87862792 2.016931,3.76780998 2.24003004,3.65699204 C3.13242622,3.10290233 4.24792144,2.88126645 5.5865157,2.88126645 C6.81356044,2.88126645 8.04060518,3.21372028 8.93300135,3.65699204 C9.60229848,4.1002638 10.4946947,3.87862792 10.9408927,3.21372028 C11.3870908,2.54881263 11.1639918,1.66226911 10.4946947,1.21899735 C9.15610039,0.443271762 7.48285757,0 5.5865157,0 C3.80172335,0 2.016931,0.443271762 0.678336737,1.21899735 C0.00903960623,1.66226911 -0.214059437,2.54881263 0.23213865,3.21372028 C0.566787215,3.65699204 1.0129853,3.87862792 1.45918339,3.87862792 Z" id="Shape-Copy"></path>
                </g>
            </g>
            <g id="HAIR" transform="translate(7.000000, -2.000000)"></g>
        </g>
    </g>
</svg>