<?xml version="1.0" encoding="UTF-8"?>
<svg width="100px" height="100px" viewBox="0 0 100 100" version="1.1" xmlns="http://www.w3.org/2000/svg" xmlns:xlink="http://www.w3.org/1999/xlink">
    <!-- Generator: Sketch 41.2 (35397) - http://www.bohemiancoding.com/sketch -->
    <title>AVATAR</title>
    <desc>Created with Sketch.</desc>
    <defs></defs>
    <g id="Page-1" stroke="none" stroke-width="1" fill="none" fill-rule="evenodd">
        <g id="AVATAR">
            <g id="EYES" transform="translate(33.000000, 34.000000)" fill="#F8E71C">
                <g id="eyes1" transform="translate(0.000000, 6.000000)">
                    <circle id="Oval" cx="7.6" cy="6.4" r="1.6"></circle>
                    <path d="M12.6,4.5 C13.3,5 14.3,4.8 14.7,4.1 C15.2,3.4 15,2.4 14.3,2 C12.8,1 10.3,0.3 7.6,0.3 C4.9,0.3 2.3,0.9 0.9,2 C0.2,2.5 -4.4408921e-15,3.4 0.5,4.1 C0.8,4.5 1.3,4.7 1.8,4.7 C2.1,4.7 2.4,4.6 2.7,4.4 C3.4,3.9 5.1,3.3 7.7,3.3 C10.3,3.3 11.9,4 12.6,4.5 Z" id="Shape"></path>
                    <path d="M33.2,2 C31.7,1 29.2,0.3 26.5,0.3 C23.8,0.3 21.2,0.9 19.8,2 C19.1,2.5 18.9,3.4 19.4,4.1 C19.7,4.5 20.2,4.7 20.7,4.7 C21,4.7 21.3,4.6 21.6,4.4 C22.3,3.9 24,3.3 26.6,3.3 C29.2,3.3 30.8,3.9 31.6,4.4 C32.3,4.9 33.3,4.7 33.7,4 C34.1,3.4 33.9,2.5 33.2,2 Z" id="Shape"></path>
                    <circle id="Oval" cx="26.5" cy="6.4" r="1.6"></circle>
                </g>
            </g>
            <g id="HAIR" transform="translate(7.000000, -2.000000)"></g>
        </g>
    </g>
</svg>