<?xml version="1.0" encoding="UTF-8"?>
<svg width="100px" height="100px" viewBox="0 0 100 100" version="1.1" xmlns="http://www.w3.org/2000/svg" xmlns:xlink="http://www.w3.org/1999/xlink">
    <!-- Generator: Sketch 41.2 (35397) - http://www.bohemiancoding.com/sketch -->
    <title>AVATAR</title>
    <desc>Created with Sketch.</desc>
    <defs></defs>
    <g id="Page-1" stroke="none" stroke-width="1" fill="none" fill-rule="evenodd">
        <g id="AVATAR">
            <g id="FACE" transform="translate(27.000000, 34.000000)" fill="#417505">
                <g id="face-4" transform="translate(7.887380, 0.618820)">
                    <path d="M5.91212466,14.7387861 C7.0209269,14.7387861 7.92001605,13.8455935 7.92001605,12.7440632 C7.92001605,11.6425328 7.0209269,10.7493402 5.91212466,10.7493402 C4.80332241,10.7493402 3.90423326,11.6425328 3.90423326,12.7440632 C3.90423326,13.8455935 4.80332241,14.7387861 5.91212466,14.7387861" id="Fill-7"></path>
                    <path d="M25.0986424,14.7387861 C26.2074447,14.7387861 27.1065338,13.8455935 27.1065338,12.7440632 C27.1065338,11.6425328 26.2074447,10.7493402 25.0986424,10.7493402 C23.9898402,10.7493402 23.090751,11.6425328 23.090751,12.7440632 C23.090751,13.8455935 23.9898402,14.7387861 25.0986424,14.7387861" id="Fill-9"></path>
                    <path d="M21.5380973,3.87862792 C21.7611964,3.87862792 22.0958449,3.76780998 22.318944,3.65699204 C23.2113401,3.10290233 24.3268354,2.88126645 25.6654296,2.88126645 C26.8924744,2.88126645 28.1195191,3.21372028 29.0119153,3.65699204 C29.6812124,4.1002638 30.5736086,3.87862792 31.0198067,3.21372028 C31.4660048,2.54881263 31.2429057,1.66226911 30.5736086,1.21899735 C29.2350143,0.443271762 27.5617715,0 25.6654296,0 C23.8806373,0 22.0958449,0.443271762 20.7572507,1.21899735 C20.0879535,1.66226911 19.8648545,2.54881263 20.3110526,3.21372028 C20.6457011,3.65699204 21.0918992,3.87862792 21.5380973,3.87862792 Z" id="Shape"></path>
                    <path d="M1.45918339,3.87862792 C1.68228243,3.87862792 2.016931,3.76780998 2.24003004,3.65699204 C3.13242622,3.10290233 4.24792144,2.88126645 5.5865157,2.88126645 C6.81356044,2.88126645 8.04060518,3.21372028 8.93300135,3.65699204 C9.60229848,4.1002638 10.4946947,3.87862792 10.9408927,3.21372028 C11.3870908,2.54881263 11.1639918,1.66226911 10.4946947,1.21899735 C9.15610039,0.443271762 7.48285757,0 5.5865157,0 C3.80172335,0 2.016931,0.443271762 0.678336737,1.21899735 C0.00903960623,1.66226911 -0.214059437,2.54881263 0.23213865,3.21372028 C0.566787215,3.65699204 1.0129853,3.87862792 1.45918339,3.87862792 Z" id="Shape-Copy"></path>
                    <path d="M16.9555273,34.5751974 C16.5093292,35.0184692 15.6169331,35.0184692 15.170735,34.5751974 C14.6129874,34.0211077 13.6090417,34.0211077 13.0512941,34.5751974 C12.4935464,35.1292871 12.4935464,36.1266486 13.0512941,36.6807383 C13.8321407,37.4564639 14.9476359,37.8997357 16.0631311,37.8997357 C17.1786264,37.8997357 18.1825721,37.4564639 19.0749682,36.6807383 C19.6327158,36.1266486 19.6327158,35.1292871 19.0749682,34.5751974 C18.4056711,34.0211077 17.5132749,34.0211077 16.9555273,34.5751974 Z" id="Shape"></path>
                    <path d="M13.6090417,21.4986805 C14.7245369,20.3905011 16.6208788,20.3905011 17.6248244,21.4986805 C17.959473,21.8311343 18.2941216,21.9419522 18.6287701,21.9419522 C18.9634187,21.9419522 19.4096168,21.8311343 19.6327158,21.4986805 C20.1904634,20.9445908 20.1904634,19.9472293 19.6327158,19.3931396 C17.4017254,17.1767808 13.6090417,17.1767808 11.3780512,19.3931396 C10.8203036,19.9472293 10.8203036,20.9445908 11.3780512,21.4986805 C12.0473484,22.0527702 13.0512941,22.0527702 13.6090417,21.4986805 Z" id="Shape"></path>
                    <path d="M25.3217415,27.3720313 C24.9870929,26.5963057 24.0946967,26.2638519 23.3138501,26.7071237 C22.7561024,26.9287595 22.4214539,27.5936672 22.4214539,28.2585748 C20.525112,29.1451184 18.0710225,29.6992081 15.5053835,29.6992081 C12.9397445,29.6992081 10.4856551,29.1451184 8.7008627,28.2585748 C8.81241222,27.5936672 8.47776366,27.0395775 7.92001605,26.7071237 C7.1391694,26.3746698 6.24677322,26.7071237 5.91212466,27.3720313 L5.131278,29.1451184 C4.79662944,29.9208439 5.131278,30.8073875 5.80057513,31.1398413 C6.02367418,31.2506592 6.24677322,31.2506592 6.46987227,31.2506592 C6.80452083,31.2506592 7.1391694,31.1398413 7.47381796,30.9182054 C9.7048084,32.0263848 12.605096,32.6912925 15.6169331,32.6912925 C18.6287701,32.6912925 21.5290577,32.0263848 23.7600481,30.9182054 C23.9831472,31.1398413 24.4293453,31.3614772 24.7639938,31.3614772 C24.9870929,31.3614772 25.2101919,31.3614772 25.433291,31.2506592 C26.2141376,30.9182054 26.5487862,30.0316619 26.1025881,29.2559363 L25.3217415,27.3720313 Z" id="Shape"></path>
                </g>
            </g>
            <g id="FEATURE" transform="translate(26.000000, 40.000000)"></g>
            <g id="HAIR" transform="translate(7.000000, -1.000000)"></g>
        </g>
    </g>
</svg>