<?xml version="1.0" encoding="UTF-8"?>
<svg width="100px" height="100px" viewBox="0 0 100 100" version="1.1" xmlns="http://www.w3.org/2000/svg" xmlns:xlink="http://www.w3.org/1999/xlink">
    <!-- Generator: Sketch 41.2 (35397) - http://www.bohemiancoding.com/sketch -->
    <title>AVATAR</title>
    <desc>Created with Sketch.</desc>
    <defs></defs>
    <g id="Page-1" stroke="none" stroke-width="1" fill="none" fill-rule="evenodd">
        <g id="AVATAR">
            <g id="FACE" transform="translate(27.000000, 34.000000)" fill="#B96C00">
                <g id="face-11" transform="translate(6.000000, 3.000000)">
                    <path d="M13.6,12.9 C12.9,13.4 12.7,14.3 13.2,15 C14,16.2 15.6,17.1 17.1,17.1 C18.5,17.1 20,16.4 20.8,15.2 C21.3,14.5 21.2,13.6 20.5,13 C19.8,12.5 18.9,12.6 18.3,13.3 C18,13.7 17.5,13.9 17,13.9 C16.5,13.9 15.9,13.6 15.7,13.2 C15.3,12.7 14.4,12.5 13.6,12.9 Z" id="Shape"></path>
                    <circle id="Oval" cx="7.6" cy="10.4" r="1.6"></circle>
                    <path d="M12.6,4.5 C13.3,5 14.3,4.8 14.7,4.1 C15.2,3.4 15,2.4 14.3,2 C12.8,1 10.3,0.3 7.6,0.3 C4.9,0.3 2.3,0.9 0.9,2 C0.2,2.5 2.39808173e-14,3.4 0.5,4.1 C0.8,4.5 1.3,4.7 1.8,4.7 C2.1,4.7 2.4,4.6 2.7,4.4 C3.4,3.9 5.1,3.3 7.7,3.3 C10.3,3.3 11.9,4 12.6,4.5 Z" id="Shape"></path>
                    <path d="M33.2,2 C31.7,1 29.2,0.3 26.5,0.3 C23.8,0.3 21.2,0.9 19.8,2 C19.1,2.5 18.9,3.4 19.4,4.1 C19.7,4.5 20.2,4.7 20.7,4.7 C21,4.7 21.3,4.6 21.6,4.4 C22.3,3.9 24,3.3 26.6,3.3 C29.2,3.3 30.8,3.9 31.6,4.4 C32.3,4.9 33.3,4.7 33.7,4 C34.1,3.4 33.9,2.5 33.2,2 Z" id="Shape"></path>
                    <circle id="Oval" cx="26.5" cy="10.4" r="1.6"></circle>
                    <path d="M24.6,19.9 L9.5,19.9 C8.7,19.9 8,20.6 8,21.4 C8,22.2 8.7,22.9 9.5,22.9 L24.7,22.9 C25.5,22.9 26.2,22.2 26.2,21.4 C26.2,20.5 25.5,19.9 24.6,19.9 Z" id="Shape"></path>
                    <path d="M24.2,30.8 C23.5,30.3 22.5,30.5 22.1,31.2 C21.5,32.1 19.6,33 17.1,33 C14.6,33 12.7,32.1 12.1,31.2 C11.6,30.5 10.7,30.3 10,30.8 C9.3,31.3 9.1,32.2 9.6,32.9 C10.9,34.9 13.9,36.1 17.2,36.1 C20.5,36.1 23.5,34.8 24.7,32.9 C25.1,32.2 24.9,31.2 24.2,30.8 Z" id="Shape"></path>
                </g>
            </g>
            <g id="FEATURE" transform="translate(26.000000, 40.000000)"></g>
            <g id="HAIR" transform="translate(7.000000, -1.000000)"></g>
        </g>
    </g>
</svg>