<?xml version="1.0" encoding="UTF-8"?>
<svg width="100px" height="100px" viewBox="0 0 100 100" version="1.1" xmlns="http://www.w3.org/2000/svg" xmlns:xlink="http://www.w3.org/1999/xlink">
    <!-- Generator: Sketch 41.2 (35397) - http://www.bohemiancoding.com/sketch -->
    <title>AVATAR</title>
    <desc>Created with Sketch.</desc>
    <defs></defs>
    <g id="Page-1" stroke="none" stroke-width="1" fill="none" fill-rule="evenodd">
        <g id="AVATAR">
            <g id="FACE" transform="translate(27.000000, 34.000000)" fill="#2EC1FF">
                <g id="face15" transform="translate(6.000000, 1.000000)">
                    <path d="M17.0160151,37.2621083 C16.7922589,37.3867047 16.2328684,37.6358974 15.673478,37.6358974 C15.1140875,37.6358974 14.5546971,37.3867047 14.3309409,37.2621083 C13.7715504,36.6391263 12.8765257,36.6391263 12.2052571,37.2621083 C11.6458667,37.8850902 11.6458667,39.0064577 12.2052571,39.6294397 C12.9884038,40.5016144 14.3309409,41 15.5615999,41 C16.7922589,41 18.0229179,40.5016144 18.8060645,39.7540361 C19.365455,39.1310541 19.4773331,38.134283 18.9179426,37.3867047 C18.4704303,36.7637227 17.5754055,36.6391263 17.0160151,37.2621083 Z" id="Shape"></path>
                    <ellipse id="Oval" cx="5.35714286" cy="12.6153846" rx="2.14285714" ry="2.1025641"></ellipse>
                    <ellipse id="Oval" cx="27.8571429" cy="12.6153846" rx="2.14285714" ry="2.1025641"></ellipse>
                    <path d="M16.0714286,34.6923077 C19.1976136,34.6923077 22.2035607,33.7838226 24.1273668,32.0804129 C24.7285563,31.5126097 24.8487941,30.6041246 24.2476047,29.9227607 C23.6464153,29.3549575 22.6845122,29.2413969 21.9630849,29.8092001 C20.7607061,30.9448065 18.4761863,31.6261704 16.0714286,31.6261704 C13.6666709,31.6261704 11.502389,30.9448065 10.1797722,29.9227607 C9.57858281,29.3549575 8.49644185,29.3549575 7.89525243,30.0363214 C7.29406301,30.6041246 7.41430089,31.6261704 8.01549031,32.1939736 C9.93929646,33.7838226 12.8250057,34.6923077 16.0714286,34.6923077 Z" id="Shape"></path>
                    <path d="M0.722749724,1.31855882 C0.00963145965,1.79803475 -0.228074629,2.75698662 0.247337548,3.47620052 C0.485043636,3.95567645 1.07930886,4.19541442 1.55472103,4.19541442 C1.79242712,4.19541442 2.14898625,4.07554543 2.38669234,3.95567645 C4.169488,2.8768556 7.61622628,2.8768556 9.39902194,3.95567645 C10.1121402,4.43515238 11.0629646,4.19541442 11.5383767,3.47620052 C12.0137889,2.75698662 11.7760828,1.79803475 11.0629646,1.31855882 C9.63672803,0.479475933 7.85393237,0 5.95228366,0 C3.93178192,0 2.14898625,0.479475933 0.722749724,1.31855882 Z" id="Shape"></path>
                    <path d="M11.7857143,15.1974385 L11.7857143,25.2151051 C11.7857143,25.5651821 11.9025,26.0319513 12.2539286,26.2653359 C13.425,27.432259 14.9475,28.0146692 16.5867857,28.0146692 C18.1092857,28.0146692 19.6317857,27.432259 20.9196429,26.2653359 C21.5057143,25.6818744 21.5057143,24.7483359 20.9196429,24.0492333 C20.3346429,23.4657718 19.3982143,23.4657718 18.6953571,24.0492333 C17.6410714,25.0984128 16.1185714,25.2151051 14.9475,24.398259 L14.9475,13.6667718 C14.9475,13.6667718 11.7857143,13.6709769 11.7857143,15.1974385" id="Fill-1"></path>
                </g>
            </g>
            <g id="FEATURE" transform="translate(26.000000, 40.000000)"></g>
            <g id="HAIR" transform="translate(7.000000, -1.000000)"></g>
        </g>
    </g>
</svg>