<?xml version="1.0" encoding="UTF-8"?>
<svg width="100px" height="100px" viewBox="0 0 100 100" version="1.1" xmlns="http://www.w3.org/2000/svg" xmlns:xlink="http://www.w3.org/1999/xlink">
    <!-- Generator: Sketch 41.2 (35397) - http://www.bohemiancoding.com/sketch -->
    <title>AVATAR</title>
    <desc>Created with Sketch.</desc>
    <defs></defs>
    <g id="Page-1" stroke="none" stroke-width="1" fill="none" fill-rule="evenodd">
        <g id="AVATAR" fill="#95FF73">
            <g id="FACE" transform="translate(27.000000, 34.000000)">
                <g id="face-2" transform="translate(6.000000, 12.000000)">
                    <path d="M0.517073171,2.48387097 C-0.043902439,3.0483871 -0.043902439,4.06451613 0.517073171,4.63016129 C1.07804878,5.19354839 2.2,5.19354839 2.76097561,4.63016129 C3.88292683,3.5 5.67804878,3.5 6.8,4.63016129 C7.13658537,4.96774194 7.47317073,5.08064516 7.8097561,5.08064516 C8.14634146,5.08064516 8.59512195,4.96774194 8.8195122,4.63016129 C9.3804878,4.06451613 9.3804878,3.0483871 8.8195122,2.48387097 C7.69756098,1.35483871 6.21097561,0.791451613 4.71092683,0.791451613 C3.2097561,0.791451613 1.69512195,1.35483871 0.517073171,2.48387097 Z" id="Clip-7"></path>
                    <path d="M23.6292683,2.48387097 C23.0682927,3.0483871 23.0682927,4.06451613 23.6292683,4.63016129 C23.9658537,4.96774194 24.302439,5.08064516 24.6390244,5.08064516 C24.9756098,5.08064516 25.4243902,4.96774194 25.6487805,4.63016129 C26.7707317,3.5 28.5658537,3.5 29.6878049,4.63016129 C30.2487805,5.19354839 31.2585366,5.19354839 31.8195122,4.63016129 C32.3804878,4.06451613 32.3804878,3.0483871 31.8195122,2.48387097 C30.7536585,1.35483871 29.295122,0.790322581 27.8085366,0.790322581 C26.3219512,0.790322581 24.8073171,1.35483871 23.6292683,2.48387097 Z" id="Clip-12"></path>
                    <path d="M15.3101122,1.28980645 C15.3101122,1.28980645 12.8665024,0.933032258 13.1425024,3.62464516 C13.4173805,6.29593548 12.6342585,11.6294839 12.185478,12.8714194 C12.185478,12.9843226 12.0732829,13.0972258 12.0732829,13.210129 L12.0732829,13.3230323 C12.0732829,13.6617419 12.0732829,14.0004516 12.2976732,14.3391613 C13.1952341,15.694 14.7659659,16.4843226 16.3366976,16.4843226 C17.7952341,16.4843226 19.3659659,15.694 20.2635268,14.5649677 C20.7123073,13.8875484 20.6001122,12.9843226 19.9269415,12.4198065 C19.2537707,11.9681935 18.3562098,12.0810968 17.7952341,12.7585161 C17.4586488,13.210129 16.8976732,13.5488387 16.3366976,13.5488387 C16.0001122,13.5488387 15.5513317,13.4359355 15.2147463,13.210129 C16.0001122,10.5004516 16.6227951,3.99270968 15.5546976,1.22883871 L15.3101122,1.28980645 Z" id="Fill-27"></path>
                    <path d="M21.9351256,22.7948387 C21.37415,23.8109677 19.6912232,24.7141935 17.3351256,24.7141935 C14.979028,24.7141935 13.2961012,23.6980645 12.7351256,22.7948387 C12.2863451,22.1185484 11.3887841,21.8927419 10.7156134,22.2303226 C10.0424427,22.6819355 9.81805243,23.5851613 10.1546378,24.2625806 C11.3887841,26.2948387 14.1936622,27.6496774 17.3351256,27.6496774 C20.476589,27.6496774 23.2814671,26.2948387 24.5156134,24.2625806 C24.8521988,23.5851613 24.6278085,22.6819355 23.9546378,22.2303226 C23.7235158,22.0756452 23.4531256,22 23.1827354,22 C22.6666378,22 22.15615,22.2766129 21.9351256,22.7948387 Z" id="z"></path>
                </g>
            </g>
        </g>
    </g>
</svg>