<?xml version="1.0" encoding="UTF-8"?>
<svg width="100px" height="100px" viewBox="0 0 100 100" version="1.1" xmlns="http://www.w3.org/2000/svg" xmlns:xlink="http://www.w3.org/1999/xlink">
    <!-- Generator: Sketch 41.2 (35397) - http://www.bohemiancoding.com/sketch -->
    <title>AVATAR</title>
    <desc>Created with Sketch.</desc>
    <defs></defs>
    <g id="Page-1" stroke="none" stroke-width="1" fill="none" fill-rule="evenodd">
        <g id="AVATAR">
            <g id="FACE" transform="translate(27.000000, 34.000000)" fill="#000000">
                <g id="face-14" transform="translate(5.000000, 7.000000)">
                    <path d="M14.96,18.0931034 C16.0933333,16.9551724 18.02,16.9551724 19.1533333,18.0931034 C19.4933333,18.4344828 19.8333333,18.5482759 20.1733333,18.5482759 C20.5133333,18.5482759 20.9666667,18.4344828 21.1933333,18.0931034 C21.76,17.5241379 21.76,16.5 21.1933333,15.9310345 C18.9266667,13.6551724 15.0733333,13.6551724 12.8066667,15.9310345 C12.24,16.5 12.24,17.5241379 12.8066667,18.0931034 C13.3733333,18.662069 14.3933333,18.7758621 14.96,18.0931034 Z" id="Shape"></path>
                    <ellipse id="Oval" cx="6.57333333" cy="10.6965517" rx="2.49333333" ry="2.50344828"></ellipse>
                    <ellipse id="Oval" cx="27.4266667" cy="10.6965517" rx="2.49333333" ry="2.50344828"></ellipse>
                    <path d="M23.2333333,4.21034483 C23.46,4.21034483 23.8,4.09655172 24.0266667,3.98275862 C25.7266667,2.95862069 29.1266667,2.95862069 30.8266667,3.98275862 C31.5066667,4.43793103 32.4133333,4.21034483 32.8666667,3.52758621 C33.32,2.84482759 33.0933333,1.93448276 32.4133333,1.47931034 C31.0533333,0.682758621 29.3533333,0.227586207 27.4266667,0.227586207 C25.5,0.227586207 23.8,0.682758621 22.44,1.47931034 C21.76,1.93448276 21.5333333,2.84482759 21.9866667,3.52758621 C22.2133333,3.98275862 22.6666667,4.21034483 23.2333333,4.21034483 Z" id="Shape"></path>
                    <path d="M9.97333333,3.98275862 C10.6533333,4.43793103 11.56,4.21034483 12.0133333,3.52758621 C12.4666667,2.84482759 12.24,1.93448276 11.56,1.47931034 C10.2,0.682758621 8.5,0.227586207 6.57333333,0.227586207 C4.64666667,0.227586207 2.94666667,0.682758621 1.58666667,1.47931034 C0.906666667,1.93448276 0.68,2.84482759 1.13333333,3.52758621 C1.47333333,3.98275862 1.92666667,4.21034483 2.38,4.21034483 C2.60666667,4.21034483 2.94666667,4.09655172 3.17333333,3.98275862 C4.87333333,2.95862069 8.27333333,2.95862069 9.97333333,3.98275862 Z" id="Shape"></path>
                    <path d="M24.5933333,26.5137931 L20.4,24.0103448 C20.06,23.7827586 19.6066667,23.7827586 19.1533333,23.8965517 L19.04,23.8965517 C17.9066667,24.237931 16.5466667,24.3517241 15.3,24.0103448 L14.7333333,23.8965517 C14.3933333,23.7827586 13.94,23.8965517 13.6,24.0103448 L9.40666667,26.5137931 C8.95333333,26.7413793 8.72666667,27.1965517 8.72666667,27.6517241 C8.72666667,28.1068966 8.84,28.562069 9.18,28.9034483 C9.29333333,29.0172414 13.26,32.7724138 17.2266667,32.7724138 C21.08,32.7724138 24.5933333,29.2448276 24.9333333,28.7896552 C25.2733333,28.4482759 25.3866667,27.9931034 25.3866667,27.537931 C25.2733333,27.1965517 25.0466667,26.7413793 24.5933333,26.5137931 Z M17.2266667,29.8137931 C15.7533333,29.8137931 14.0533333,28.9034483 12.8066667,28.1068966 L14.62,27.0827586 C16.2066667,27.537931 17.9066667,27.537931 19.4933333,27.0827586 L21.3066667,28.2206897 C20.1733333,28.9034483 18.5866667,29.8137931 17.2266667,29.8137931 Z" id="Shape"></path>
                </g>
            </g>
            <g id="FEATURE" transform="translate(26.000000, 40.000000)"></g>
            <g id="HAIR" transform="translate(7.000000, -1.000000)"></g>
        </g>
    </g>
</svg>