<?xml version="1.0" encoding="UTF-8"?>
<svg width="100px" height="100px" viewBox="0 0 100 100" version="1.1" xmlns="http://www.w3.org/2000/svg" xmlns:xlink="http://www.w3.org/1999/xlink">
    <!-- Generator: Sketch 41.2 (35397) - http://www.bohemiancoding.com/sketch -->
    <title>AVATAR</title>
    <desc>Created with Sketch.</desc>
    <defs></defs>
    <g id="Page-1" stroke="none" stroke-width="1" fill="none" fill-rule="evenodd">
        <g id="AVATAR">
            <g id="FACE" transform="translate(27.000000, 34.000000)" fill="#000000">
                <g id="face20" transform="translate(10.519575, 9.700486)">
                    <path d="M12.3344613,9.82962885 C13.5041085,9.82962885 14.4610925,10.4706916 14.4610925,9.29540989 C14.4610925,8.12012818 13.5041085,7.15853406 12.3344613,7.15853406 C11.1648141,7.15853406 10.20783,8.12012818 10.20783,9.29540989 C10.20783,10.4706916 11.1648141,9.82962885 12.3344613,9.82962885 Z" id="Shape"></path>
                    <path d="M11.5901403,17.949757 L11.0584825,17.949757 C7.9748672,17.949757 6.2735622,19.9797891 6.16723064,22.0098211 C6.06089907,23.8261656 7.33687782,25.9630414 10.4204931,26.2835728 L10.952151,26.2835728 L11.3774772,26.2835728 L12.0154666,26.2835728 L12.1217981,26.2835728 C15.8434028,26.2835728 17.8637025,25.6425101 18.714355,24.2535408 C19.1396813,23.3987904 19.1396813,22.4371963 18.6080235,21.582446 C17.5447078,19.5524139 14.2484294,17.949757 11.5901403,17.949757 Z M12.0154666,22.9714153 L11.3774772,22.9714153 L10.7394878,22.9714153 C9.88883533,22.8645715 9.25084595,22.5440401 9.25084595,22.0098211 C9.25084595,21.4756022 9.88883533,21.048227 11.0584825,21.048227 L11.5901403,21.048227 C13.0787822,21.048227 14.8864188,21.9029773 15.6307397,22.5440401 C15.0990819,22.7577277 13.9294347,22.9714153 12.0154666,22.9714153 Z" id="Shape"></path>
                    <ellipse id="Oval" cx="2.12663125" cy="2.99162617" rx="2.12663125" ry="2.13687584"></ellipse>
                    <ellipse id="Oval" cx="21.3726441" cy="2.99162617" rx="2.12663125" ry="2.13687584"></ellipse>
                </g>
            </g>
            <g id="FEATURE" transform="translate(26.000000, 40.000000)"></g>
            <g id="HAIR" transform="translate(7.000000, -1.000000)"></g>
        </g>
    </g>
</svg>