<?xml version="1.0" encoding="UTF-8"?>
<svg width="100px" height="100px" viewBox="0 0 100 100" version="1.1" xmlns="http://www.w3.org/2000/svg" xmlns:xlink="http://www.w3.org/1999/xlink">
    <!-- Generator: Sketch 41.2 (35397) - http://www.bohemiancoding.com/sketch -->
    <title>AVATAR</title>
    <desc>Created with Sketch.</desc>
    <defs></defs>
    <g id="Page-1" stroke="none" stroke-width="1" fill="none" fill-rule="evenodd">
        <g id="AVATAR">
            <g id="FACE" transform="translate(27.000000, 34.000000)" fill="#000000">
                <g id="face-18" transform="translate(9.000000, 5.000000)">
                    <path d="M16.6019615,34.4779874 C16.1781588,34.8805031 15.118652,35.1823899 14.0591451,35.1823899 C12.9996383,35.1823899 11.8341808,34.7798742 11.5163287,34.3773585 C10.8806246,33.8742138 10.0330192,33.8742138 9.39731506,34.3773585 C8.86756165,34.9811321 8.86756165,35.7861635 9.39731506,36.3899371 C10.4568219,37.3962264 12.2579835,38 14.0591451,38 C15.7543561,38 17.449567,37.3962264 18.5090739,36.591195 C19.144778,36.0880503 19.144778,35.1823899 18.6150245,34.5786164 C18.0852711,33.9748428 17.131715,33.9748428 16.6019615,34.4779874 Z" id="Shape"></path>
                    <path d="M1.68667643,3.04950495 L8.11713031,3.04950495 L10.9633968,5.66336634 L10.9633968,17.970297 C10.9633968,20.2574257 12.7554905,22 14.863836,22 C15.9180088,22 16.8667643,21.5643564 17.6046852,20.8019802 C18.1317716,20.2574257 18.1317716,19.2772277 17.6046852,18.6237624 C17.0775988,18.0792079 16.1288433,18.0792079 15.4963397,18.6237624 C15.2855051,18.8415842 15.0746706,18.950495 14.7584187,18.950495 C14.2313324,18.950495 13.8096633,18.5148515 13.8096633,17.970297 L13.8096633,4.9009901 C13.8096633,4.46534653 13.5988287,4.02970297 13.2825769,3.7029703 L9.4875549,0.326732673 C9.17130307,0.108910891 8.85505124,0 8.53879941,0 L1.47584187,0 C0.63250366,0 0,0.653465347 0,1.52475248 C0,2.3960396 0.843338214,3.04950495 1.68667643,3.04950495 Z" id="Shape"></path>
                    <circle id="Oval" cx="4" cy="7" r="2"></circle>
                    <circle id="Oval" cx="24" cy="7" r="2"></circle>
                    <path d="M26.4648092,21.5785615 C26.0393321,20.9835233 25.0820084,20.7851772 24.4437926,21.2810424 C23.8055769,21.6777345 23.5928383,22.5702919 24.1246848,23.1653301 L24.7629005,24.0578874 C22.5291453,26.6363864 18.9125893,28.223155 15.0832947,28.223155 C11.254,28.223155 7.74381331,26.6363864 5.40368882,24.0578874 L6.04190459,23.1653301 C6.46738177,22.5702919 6.36101247,21.6777345 5.7227967,21.2810424 C5.08458093,20.8843502 4.12725728,20.9835233 3.7017801,21.5785615 L1.25528631,24.8512717 C0.829809128,25.4463099 0.936178423,26.3388673 1.57439419,26.7355594 C1.78713278,26.9339055 2.10624067,27.0330785 2.42534855,27.0330785 C2.85082573,27.0330785 3.38267221,26.8347324 3.5954108,26.4380403 L3.5954108,26.4380403 C6.46738177,29.3140584 10.6157843,31 14.9769254,31 C19.4444358,31 23.5928383,29.3140584 26.3584399,26.4380403 L26.3584399,26.5372133 C26.6775478,26.9339055 27.103025,27.1322516 27.5285022,27.1322516 C27.8476101,27.1322516 28.166718,27.0330785 28.3794566,26.8347324 C29.0176723,26.4380403 29.2304109,25.545483 28.6985644,24.9504447 L26.4648092,21.5785615 Z" id="Shape"></path>
                </g>
            </g>
            <g id="FEATURE" transform="translate(26.000000, 40.000000)"></g>
            <g id="HAIR" transform="translate(7.000000, -1.000000)"></g>
        </g>
    </g>
</svg>