<?xml version="1.0" encoding="UTF-8"?>
<svg width="100px" height="100px" viewBox="0 0 100 100" version="1.1" xmlns="http://www.w3.org/2000/svg" xmlns:xlink="http://www.w3.org/1999/xlink">
    <!-- Generator: Sketch 41.2 (35397) - http://www.bohemiancoding.com/sketch -->
    <title>AVATAR</title>
    <desc>Created with Sketch.</desc>
    <defs></defs>
    <g id="Page-1" stroke="none" stroke-width="1" fill="none" fill-rule="evenodd">
        <g id="AVATAR">
            <g id="FACE" transform="translate(27.000000, 34.000000)" fill="#2EFF9E">
                <g id="face13" transform="translate(6.000000, 4.000000)">
                    <ellipse id="Oval" cx="6.4" cy="9.8" rx="2.3" ry="1.2"></ellipse>
                    <ellipse id="Oval" cx="27.6" cy="9.8" rx="2.3" ry="1.2"></ellipse>
                    <path d="M12.2,3.1 C12.4,2.3 11.9,1.5 11.1,1.3 C8,0.4 4.5,0.9 1.2,2.7 C0.5,3.1 0.2,4 0.6,4.7 C0.9,5.2 1.4,5.5 1.9,5.5 C2.1,5.5 2.4,5.4 2.6,5.3 C5.3,3.9 7.9,3.5 10.4,4.2 C11.2,4.4 12,3.9 12.2,3.1 Z" id="Shape"></path>
                    <path d="M32.7,2.7 C29.3,0.9 25.9,0.5 22.8,1.3 C22,1.5 21.5,2.3 21.7,3.1 C21.9,3.9 22.7,4.4 23.5,4.2 C25.9,3.5 28.5,3.9 31.3,5.3 C31.5,5.4 31.8,5.5 32,5.5 C32.5,5.5 33.1,5.2 33.3,4.7 C33.8,3.9 33.5,3 32.7,2.7 Z" id="Shape"></path>
                    <path d="M22.5,27.3 C21.1,26.4 19.1,25.9 17,25.9 C14.9,25.9 13,26.4 11.5,27.3 C10.8,27.7 10.6,28.6 11,29.4 C11.4,30.1 12.3,30.3 13.1,29.9 C14.1,29.3 15.5,29 17,29 C18.5,29 20,29.3 20.9,29.9 C21.1,30 21.4,30.1 21.7,30.1 C22.2,30.1 22.7,29.8 23,29.4 C23.4,28.6 23.2,27.7 22.5,27.3 Z" id="Shape"></path>
                    <path d="M12,18.8 C12,21.2 15,22.8 17,22.8 C19,22.8 22,21.2 22,18.8 L22,18.7 L21,5.7 C20.9,4.9 20.2,4.3 19.4,4.3 C18.6,4.4 18,5.1 18,5.9 L19,18.8 C18.9,19.2 17.8,19.8 17,19.8 C16.2,19.8 15.1,19.1 15,18.8 L16,5.9 C16.1,5.1 15.4,4.4 14.6,4.3 C13.8,4.2 13.1,4.9 13,5.7 L12,18.7 C12,18.7 12,18.8 12,18.8 Z" id="Shape"></path>
                </g>
            </g>
            <g id="FEATURE" transform="translate(26.000000, 40.000000)"></g>
            <g id="HAIR" transform="translate(7.000000, -1.000000)"></g>
        </g>
    </g>
</svg>