<?xml version="1.0" encoding="UTF-8"?>
<svg width="100px" height="100px" viewBox="0 0 100 100" version="1.1" xmlns="http://www.w3.org/2000/svg" xmlns:xlink="http://www.w3.org/1999/xlink">
    <!-- Generator: Sketch 41.2 (35397) - http://www.bohemiancoding.com/sketch -->
    <title>AVATAR</title>
    <desc>Created with Sketch.</desc>
    <defs></defs>
    <g id="Page-1" stroke="none" stroke-width="1" fill="none" fill-rule="evenodd">
        <g id="AVATAR">
            <g id="FACE" transform="translate(27.000000, 34.000000)" fill="#000000">
                <g id="face16" transform="translate(6.000000, 5.000000)">
                    <path d="M16,15.8160267 C17.1,15.8160267 18,16.4918731 18,15.2528213 C18,14.0137696 17.1,13 16,13 C14.9,13 14,14.0137696 14,15.2528213 C14,16.4918731 14.9,15.8160267 16,15.8160267 Z" id="Shape"></path>
                    <ellipse id="Oval" cx="6.5" cy="9.5" rx="2.5" ry="2.5"></ellipse>
                    <path d="M11.9522723,1.13409816 C11.7358261,0.341092655 10.870041,-0.154535786 10.0042559,0.0437155899 L1.23818214,2.12535504 C0.37239707,2.32360642 -0.168718597,3.11661192 0.0477276698,3.90961743 C0.264173936,4.60349725 0.913512736,5 1.56285154,5 L1.99574407,5 L10.7618179,2.91836055 C11.6276029,2.72010917 12.1687186,1.92710367 11.9522723,1.13409816 Z" id="Shape"></path>
                    <ellipse id="Oval" cx="26.5" cy="9.5" rx="2.5" ry="2.5"></ellipse>
                    <path d="M31.7618179,2.12535504 L22.9957441,0.0437155899 C22.129959,-0.154535786 21.2641739,0.341092655 21.0477277,1.13409816 C20.8312814,1.92710367 21.3723971,2.72010917 22.2381821,2.91836055 L31.0042559,5 L31.4371485,5 C32.1947104,5 32.8440492,4.60349725 32.9522723,3.90961743 C33.1687186,3.21573761 32.6276029,2.32360642 31.7618179,2.12535504 Z" id="Shape"></path>
                    <path d="M16.5,21 C12.1071429,21 9,22.6410256 9,25 C9,27.3589744 12.1071429,29 16.5,29 C20.8928571,29 24,27.3589744 24,25 C24,22.6410256 20.8928571,21 16.5,21 Z M16.5,26.025641 C14.25,26.025641 12.75,25.4102564 12.3214286,25.1025641 C12.8571429,24.6923077 14.25,24.1794872 16.5,24.1794872 C18.75,24.1794872 20.25,24.7948718 20.6785714,25.1025641 C20.25,25.4102564 18.75,26.025641 16.5,26.025641 Z" id="Shape"></path>
                </g>
            </g>
            <g id="FEATURE" transform="translate(26.000000, 40.000000)"></g>
            <g id="HAIR" transform="translate(7.000000, -1.000000)"></g>
        </g>
    </g>
</svg>