<?xml version="1.0" encoding="UTF-8"?>
<svg width="100px" height="100px" viewBox="0 0 100 100" version="1.1" xmlns="http://www.w3.org/2000/svg" xmlns:xlink="http://www.w3.org/1999/xlink">
    <!-- Generator: Sketch 41.2 (35397) - http://www.bohemiancoding.com/sketch -->
    <title>AVATAR</title>
    <desc>Created with Sketch.</desc>
    <defs></defs>
    <g id="Page-1" stroke="none" stroke-width="1" fill="none" fill-rule="evenodd">
        <g id="AVATAR">
            <g id="FACE" transform="translate(27.000000, 34.000000)" fill="#BD10E0">
                <g id="face-19" transform="translate(7.000000, 8.000000)">
                    <path d="M18.4831461,23 L12.5168539,23 C11.7078652,23 11,23.7 11,24.5 C11,25.3 11.7078652,26 12.5168539,26 L18.4831461,26 C19.2921348,26 20,25.3 20,24.5 C20,23.7 19.2921348,23 18.4831461,23 Z" id="Shape"></path>
                    <path d="M15.0322591,15 C16.4166422,15 17.8010253,14.2005018 18.6909859,12.9441476 C19.1854085,12.1446494 19.0865239,11.1167232 18.3943324,10.545653 C17.7021408,9.97458292 16.8121803,10.0887969 16.3177577,10.8882951 C16.0211042,11.3451512 15.5266817,11.5735793 15.0322591,11.5735793 C14.5378366,11.5735793 14.0434141,11.2309372 13.7467605,10.7740811 C13.252338,9.97458292 12.3623774,9.74615487 11.6701859,10.317225 C10.9779943,10.8882951 10.7802253,11.9162213 11.2746479,12.7157195 C12.0657239,14.0862878 13.5489915,15 15.0322591,15 Z" id="Shape"></path>
                    <path d="M4.89837686,0 C3.06916026,0 1.34156681,0.7 0.325335368,1.9 C-0.182780353,2.5 -0.0811572088,3.5 0.528581656,4 C0.833451089,4.2 1.13832052,4.4 1.5448131,4.4 C1.95130567,4.4 2.4594214,4.2 2.76429083,3.9 C2.96753712,3.7 3.37402969,3.4 3.88214541,3.3 C3.57727598,3.6 3.47565284,4 3.47565284,4.4 C3.47565284,5.3 4.18701485,6 5.10162314,6 C6.01623144,6 6.72759345,5.3 6.72759345,4.4 C6.72759345,4 6.52434716,3.6 6.32110087,3.3 C6.8292166,3.5 7.23570917,3.7 7.33733232,3.9 C7.84544804,4.5 8.86167948,4.6 9.47141834,4.1 C10.0811572,3.6 10.1827804,2.6 9.67466463,2 C8.55681005,0.7 6.8292166,0 4.89837686,0 Z" id="Shape"></path>
                    <path d="M22.3220625,1.83050847 C21.8190584,2.44067797 21.9196592,3.45762712 22.5232641,3.96610169 C22.8250665,4.16949153 23.1268689,4.37288136 23.5292722,4.37288136 C23.9316754,4.37288136 24.4346794,4.16949153 24.7364818,3.86440678 C24.9376835,3.66101695 25.3400867,3.3559322 25.8430907,3.25423729 C25.5412883,3.55932203 25.4406875,3.96610169 25.4406875,4.37288136 C25.4406875,5.28813559 26.1448931,6 27.0503004,6 C27.9557077,6 28.6599133,5.28813559 28.6599133,4.37288136 C28.6599133,3.96610169 28.4587117,3.55932203 28.2575101,3.25423729 C28.7605141,3.45762712 29.1629174,3.66101695 29.364119,3.86440678 C29.867123,4.47457627 30.8731311,4.57627119 31.4767359,4.06779661 C32.0803408,3.55932203 32.1809416,2.54237288 31.6779375,1.93220339 C30.6719295,0.711864407 28.9617157,0 27.1509012,0 C25.3400867,0 23.3280705,0.610169492 22.3220625,1.83050847 Z" id="Shape"></path>
                </g>
            </g>
            <g id="FEATURE" transform="translate(26.000000, 40.000000)"></g>
            <g id="HAIR" transform="translate(7.000000, -1.000000)"></g>
        </g>
    </g>
</svg>