<?xml version="1.0" encoding="UTF-8"?>
<svg width="100px" height="100px" viewBox="0 0 100 100" version="1.1" xmlns="http://www.w3.org/2000/svg" xmlns:xlink="http://www.w3.org/1999/xlink">
    <!-- Generator: Sketch 41.2 (35397) - http://www.bohemiancoding.com/sketch -->
    <title>AVATAR</title>
    <desc>Created with Sketch.</desc>
    <defs></defs>
    <g id="Page-1" stroke="none" stroke-width="1" fill="none" fill-rule="evenodd">
        <g id="AVATAR">
            <g id="FACE" transform="translate(27.000000, 34.000000)" fill="#000000">
                <g id="face-17" transform="translate(8.000000, 13.000000)">
                    <path d="M15,15.8453608 C16.1111111,15.8453608 17,16.4639175 17,15.2268041 C17,13.9896907 16.1111111,13 15,13 C13.8888889,13 13,13.9896907 13,15.2268041 C13,16.4639175 13.8888889,15.8453608 15,15.8453608 Z" id="Shape"></path>
                    <path d="M23.375,18 L8.625,18 C7.75,18 7,18.6666667 7,19.4444444 C7,23.6666667 11,27 16,27 C21,27 25,23.5555556 25,19.4444444 C25,18.6666667 24.25,18 23.375,18 Z M16,24.2222222 C13.5,24.2222222 11.25,22.8888889 10.5,21 L21.375,21 C20.75,22.7777778 18.5,24.2222222 16,24.2222222 Z" id="Shape"></path>
                    <path d="M0.419254658,1.60714286 C-0.139751553,2.14285714 -0.139751553,3 0.419254658,3.64285714 C0.97826087,4.28571429 1.87267081,4.17857143 2.54347826,3.64285714 C2.87888199,3.32142857 3.32608696,3.10714286 3.66149068,3 C3.21428571,3.32142857 2.87888199,3.75 2.87888199,4.39285714 C2.87888199,5.35714286 3.66149068,6 4.55590062,6 C5.45031056,6 6.23291925,5.25 6.23291925,4.39285714 C6.23291925,3.85714286 5.89751553,3.32142857 5.45031056,3 C5.89751553,3.10714286 6.23291925,3.32142857 6.56832298,3.64285714 C6.90372671,3.96428571 7.23913043,4.07142857 7.57453416,4.07142857 C7.90993789,4.07142857 8.35714286,3.96428571 8.58074534,3.64285714 C9.13975155,3.10714286 9.13975155,2.25 8.58074534,1.60714286 C6.56832298,-0.535714286 2.76708075,-0.535714286 0.419254658,1.60714286 Z" id="Shape"></path>
                    <path d="M21.4192547,1.60714286 C20.8602484,2.14285714 20.8602484,3 21.4192547,3.64285714 C21.9782609,4.28571429 22.8726708,4.17857143 23.5434783,3.64285714 C23.878882,3.32142857 24.326087,3.10714286 24.6614907,3 C24.2142857,3.32142857 23.878882,3.75 23.878882,4.39285714 C23.878882,5.35714286 24.6614907,6 25.5559006,6 C26.5621118,6 27.2329193,5.25 27.2329193,4.39285714 C27.2329193,3.85714286 26.8975155,3.32142857 26.4503106,3 C26.8975155,3.10714286 27.2329193,3.32142857 27.568323,3.64285714 C27.9037267,3.96428571 28.2391304,4.07142857 28.5745342,4.07142857 C28.9099379,4.07142857 29.3571429,3.96428571 29.5807453,3.64285714 C30.1397516,3.10714286 30.1397516,2.25 29.5807453,1.60714286 C27.568323,-0.535714286 23.7670807,-0.535714286 21.4192547,1.60714286 Z" id="Shape"></path>
                </g>
            </g>
            <g id="FEATURE" transform="translate(26.000000, 40.000000)"></g>
            <g id="HAIR" transform="translate(7.000000, -1.000000)"></g>
        </g>
    </g>
</svg>