<?xml version="1.0" encoding="UTF-8"?>
<svg width="100px" height="100px" viewBox="0 0 100 100" version="1.1" xmlns="http://www.w3.org/2000/svg" xmlns:xlink="http://www.w3.org/1999/xlink">
    <!-- Generator: Sketch 41.2 (35397) - http://www.bohemiancoding.com/sketch -->
    <title>AVATAR</title>
    <desc>Created with Sketch.</desc>
    <defs></defs>
    <g id="Page-1" stroke="none" stroke-width="1" fill="none" fill-rule="evenodd">
        <g id="AVATAR">
            <g id="FACE" transform="translate(27.000000, 34.000000)" fill="#FF4593">
                <g id="face12" transform="translate(6.000000, 3.000000)">
                    <path d="M21.5724138,28 L12.1931034,28 C11.3724138,28 10.6689655,28.6857143 10.6689655,29.4857143 C10.6689655,30.2857143 11.3724138,30.9714286 12.1931034,30.9714286 L21.5724138,30.9714286 C22.3931034,30.9714286 23.0965517,30.2857143 23.0965517,29.4857143 C23.0965517,28.6857143 22.3931034,28 21.5724138,28 Z" id="Shape"></path>
                    <path d="M14.8896552,20.8 C16.062069,19.6571429 17.8206897,19.6571429 18.9931034,20.8 C19.3448276,21.1428571 19.6965517,21.2571429 20.0482759,21.2571429 C20.4,21.2571429 20.8689655,21.1428571 21.1034483,20.8 C21.6896552,20.2285714 21.6896552,19.3142857 21.1034483,18.7428571 C19.9310345,17.6 18.5241379,17.0285714 16.8827586,17.0285714 C15.2413793,17.0285714 13.8344828,17.6 12.662069,18.7428571 C12.0758621,19.3142857 12.0758621,20.2285714 12.662069,20.8 C13.2482759,21.3714286 14.3034483,21.3714286 14.8896552,20.8 Z" id="Shape"></path>
                    <ellipse id="Oval" cx="6.33103448" cy="10.4" rx="1.99310345" ry="1.94285714"></ellipse>
                    <ellipse id="Oval" cx="27.4344828" cy="10.4" rx="1.99310345" ry="1.94285714"></ellipse>
                    <path d="M10.6689655,0 L1.99310345,0 C1.17241379,0 0.468965517,0.685714286 0.468965517,1.48571429 C0.468965517,2.28571429 1.17241379,2.97142857 1.99310345,2.97142857 L10.6689655,2.97142857 C11.4896552,2.97142857 12.1931034,2.28571429 12.1931034,1.48571429 C12.1931034,0.685714286 11.4896552,0 10.6689655,0 Z" id="Shape"></path>
                    <path d="M31.7724138,0 L23.0965517,0 C22.2758621,0 21.5724138,0.685714286 21.5724138,1.48571429 C21.5724138,2.28571429 22.2758621,2.97142857 23.0965517,2.97142857 L31.7724138,2.97142857 C32.5931034,2.97142857 33.2965517,2.28571429 33.2965517,1.48571429 C33.2965517,0.685714286 32.5931034,0 31.7724138,0 Z" id="Shape"></path>
                </g>
            </g>
            <g id="FEATURE" transform="translate(26.000000, 40.000000)"></g>
            <g id="HAIR" transform="translate(7.000000, -1.000000)"></g>
        </g>
    </g>
</svg>