<?xml version="1.0" encoding="UTF-8"?>
<svg width="100px" height="100px" viewBox="0 0 100 100" version="1.1" xmlns="http://www.w3.org/2000/svg" xmlns:xlink="http://www.w3.org/1999/xlink">
    <!-- Generator: Sketch 41.2 (35397) - http://www.bohemiancoding.com/sketch -->
    <title>AVATAR</title>
    <desc>Created with Sketch.</desc>
    <defs></defs>
    <g id="Page-1" stroke="none" stroke-width="1" fill="none" fill-rule="evenodd">
        <g id="AVATAR">
            <g id="NOSE-MOUTH" transform="translate(27.000000, 34.000000)" fill="#9B9B9B">
                <g id="nosemouth-9" transform="translate(18.000000, 20.000000)">
                    <path d="M8.8,0.6 C8.1,0.1 7.2,0.2 6.7,0.9 C6.3,1.4 5.6,1.7 5.1,1.7 C4.5,1.7 3.7,1.3 3.4,0.8 C2.9,0.1 2,-0.1 1.3,0.4 C0.6,0.9 0.4,1.8 0.9,2.5 C1.8,3.8 3.5,4.7 5.1,4.7 C6.6,4.7 8.2,3.9 9.1,2.7 C9.6,2.1 9.5,1.1 8.8,0.6 Z" id="Nose"></path>
                    <path d="M7.2,13.6 L2.9,13.6 C2.1,13.6 1.4,14.3 1.4,15.1 C1.4,15.9 2.1,16.6 2.9,16.6 L7.2,16.6 C8,16.6 8.7,15.9 8.7,15.1 C8.7,14.3 8,13.6 7.2,13.6 Z" id="mounth"></path>
                </g>
            </g>
            <g id="EYES" transform="translate(33.000000, 34.000000)" fill="#000000">
                <g id="eyes-9" transform="translate(1.000000, 7.000000)">
                    <path d="M8.8,2.6 L2,0.2 C1.2,-0.1 0.4,0.3 0.1,1.1 C-0.2,1.9 0.2,2.7 1,3 L4.1,4.1 C3.9,4.4 3.8,4.8 3.8,5.2 C3.8,6.3 4.7,7.2 5.8,7.2 C6.8,7.2 7.6,6.4 7.7,5.4 L7.9,5.5 C8.1,5.6 8.2,5.6 8.4,5.6 C9,5.6 9.6,5.2 9.8,4.6 C10,3.8 9.6,2.9 8.8,2.6 Z" id="Shape"></path>
                    <path d="M30,0.2 L23.1,2.6 C22.3,2.9 21.9,3.7 22.2,4.5 C22.4,5.1 23,5.5 23.6,5.5 C23.8,5.5 23.9,5.5 24.1,5.4 L24.3,5.3 C24.4,6.3 25.2,7.1 26.2,7.1 C27.3,7.1 28.2,6.2 28.2,5.1 C28.2,4.7 28.1,4.3 27.9,4 L31,2.9 C31.8,2.6 32.2,1.8 31.9,1 C31.6,0.2 30.8,6.66133815e-16 30,0.2 Z" id="Shape"></path>
                </g>
            </g>
            <g id="HAIR" transform="translate(7.000000, -2.000000)"></g>
        </g>
    </g>
</svg>