<?xml version="1.0" encoding="UTF-8"?>
<svg width="100px" height="100px" viewBox="0 0 100 100" version="1.1" xmlns="http://www.w3.org/2000/svg" xmlns:xlink="http://www.w3.org/1999/xlink">
    <!-- Generator: Sketch 41.2 (35397) - http://www.bohemiancoding.com/sketch -->
    <title>AVATAR</title>
    <desc>Created with Sketch.</desc>
    <defs></defs>
    <g id="Page-1" stroke="none" stroke-width="1" fill="none" fill-rule="evenodd">
        <g id="AVATAR">
            <g id="FEATURE" transform="translate(26.000000, 40.000000)" fill="#E70067">
                <path d="M19.544822,44.1586567 L28.1317785,44.1586567 C28.1317785,44.1586567 34.544822,39.8815168 34.544822,39.9911871 L34.544822,29.2435022 C34.544822,27.2694376 33.6752568,25.4050433 32.1535177,24.0890002 L29.2187351,21.7859249 C28.0230829,20.7988926 26.6100394,20.2505413 25.0883003,20.2505413 L22.4796046,20.2505413 C20.9578655,20.2505413 19.4361264,20.7988926 18.3491698,21.7859249 L15.5230829,24.0890002 C14.0013438,25.295373 13.1317785,27.1597673 13.1317785,29.1338319 L13.1317785,39.8815168 C13.0230829,39.7718466 19.544822,44.1586567 19.544822,44.1586567 Z M16.0665611,36.92042 L16.0665611,29.2435022 C16.0665611,28.1467996 16.5013438,27.1597673 17.370909,26.5017458 L20.1969959,24.1986705 C20.8491698,23.6503192 21.6100394,23.4309787 22.4796046,23.4309787 L25.0883003,23.4309787 C25.8491698,23.4309787 26.7187351,23.7599895 27.370909,24.1986705 L30.3056916,26.6114161 C31.1752568,27.2694376 31.6100394,28.2564699 31.6100394,29.3531724 L31.6100394,36.92042 C31.6100394,37.5784415 31.3926481,38.236463 31.0665611,38.7848143 C29.9796046,39.5525061 29.0013438,39.9911871 28.2404742,39.9911871 L19.4361264,39.9911871 C18.6752568,39.9911871 17.5883003,39.4428358 16.5013438,38.675144 C16.2839525,38.236463 16.0665611,37.5784415 16.0665611,36.92042 L16.0665611,36.92042 Z" id="face-5-goatee"></path>
            </g>
            <g id="HAIR" transform="translate(7.000000, -2.000000)"></g>
        </g>
    </g>
</svg>