<?xml version="1.0" encoding="UTF-8"?>
<svg width="100px" height="100px" viewBox="0 0 100 100" version="1.1" xmlns="http://www.w3.org/2000/svg" xmlns:xlink="http://www.w3.org/1999/xlink">
    <!-- Generator: Sketch 41.2 (35397) - http://www.bohemiancoding.com/sketch -->
    <title>AVATAR</title>
    <desc>Created with Sketch.</desc>
    <defs></defs>
    <g id="Page-1" stroke="none" stroke-width="1" fill="none" fill-rule="evenodd">
        <g id="AVATAR">
            <g id="FACE" transform="translate(27.000000, 34.000000)"></g>
            <g id="FEATURE" transform="translate(26.000000, 40.000000)" fill="#9012FE">
                <path d="M4.7833133,19.0640246 C6.48388032,20.6365677 8.7917927,21.6042865 11.3426432,21.6042865 C15.7155299,21.6042865 19.359602,18.7011301 20.4528237,14.70929 C20.5742928,14.5883252 20.6957618,14.5883252 20.8172309,14.4673603 C22.8822051,12.4109578 26.2833392,12.4109578 28.3483134,14.4673603 C28.4697825,14.5883252 28.5912516,14.70929 28.7127206,14.70929 C29.8059423,18.7011301 33.4500145,21.6042865 37.8229011,21.6042865 C40.3737516,21.6042865 42.3330478,20.6994694 44.382231,18.9430598 C46.4314143,17.1866501 46.8784205,12.1303194 46.8784205,12.1303194 C46.8784205,7.24092012 44.382231,5.27403164 44.382231,5.27403164 C42.681664,3.70148858 40.3737516,2.73376978 37.9443702,2.73376978 C33.3285454,2.73376978 29.5630042,5.99982075 28.7127206,10.3545554 C26.1618701,9.14490687 23.2466124,9.14490687 20.6957618,10.3545554 C19.8454783,5.99982075 15.958468,2.73376978 11.4641123,2.73376978 C8.91326177,2.73376978 6.60534939,3.70148858 4.90478237,5.39499649 C4.90478237,5.39499649 2.21181303,8.65620887 2.21181303,12.1242711 C2.21181303,16.4354584 4.7833133,19.0640246 4.7833133,19.0640246 M43.8963547,12.1690281 C43.8963547,15.4350791 41.2240351,18.0963058 37.9443702,18.0963058 C34.6647052,18.0963058 31.9923856,15.4350791 31.9923856,12.1690281 C31.9923856,8.90297717 34.6647052,6.24175045 37.9443702,6.24175045 C41.2240351,6.24175045 43.8963547,8.90297717 43.8963547,12.1690281 M17.2946278,12.1690281 C17.2946278,15.4350791 14.6223082,18.0963058 11.3426432,18.0963058 C8.06297826,18.0963058 5.39065866,15.4350791 5.39065866,12.1690281 C5.39065866,8.90297717 8.06297826,6.24175045 11.3426432,6.24175045 C14.6223082,6.24175045 17.2946278,8.90297717 17.2946278,12.1690281" id="feature-10"></path>
            </g>
            <g id="HAIR" transform="translate(7.000000, -1.000000)"></g>
        </g>
    </g>
</svg>