<?xml version="1.0" encoding="UTF-8"?>
<svg width="100px" height="100px" viewBox="0 0 100 100" version="1.1" xmlns="http://www.w3.org/2000/svg" xmlns:xlink="http://www.w3.org/1999/xlink">
    <!-- Generator: Sketch 41.2 (35397) - http://www.bohemiancoding.com/sketch -->
    <title>AVATAR</title>
    <desc>Created with Sketch.</desc>
    <defs></defs>
    <g id="Page-1" stroke="none" stroke-width="1" fill="none" fill-rule="evenodd">
        <g id="AVATAR">
            <g id="FEATURE" transform="translate(26.000000, 40.000000)" fill="#7ED321">
                <path d="M48.9849167,20.1378987 C50.4323081,21.8395357 52.5511879,22.8407694 54.8296153,22.8407694 C59.0658518,22.8407694 62.5,19.4066212 62.5,15.1703847 C62.5,10.9341482 59.0658518,7.5 54.8296153,7.5 C52.1751975,7.5 49.7516969,8.86050408 48.3538258,11.0580927 C47.9091982,11.7570904 48.1154059,12.6841819 48.8144036,13.1288095 C49.5134013,13.5734371 50.4404928,13.3672294 50.8851204,12.6682317 C51.7379869,11.3274431 53.2119323,10.5 54.8296153,10.5 C57.4089975,10.5 59.5,12.5910025 59.5,15.1703847 C59.5,17.749767 57.4089975,19.8407694 54.8296153,19.8407694 C53.4403722,19.8407694 52.1533591,19.2326175 51.270072,18.194174 C50.7333272,17.5631458 49.7866602,17.486714 49.155632,18.0234588 C48.5246038,18.5602035 48.448172,19.5068705 48.9849167,20.1378987 Z" id="face-3---earring"></path>
            </g>
            <g id="HAIR" transform="translate(7.000000, -2.000000)"></g>
        </g>
    </g>
</svg>