<?xml version="1.0" encoding="UTF-8"?>
<svg width="100px" height="100px" viewBox="0 0 100 100" version="1.1" xmlns="http://www.w3.org/2000/svg" xmlns:xlink="http://www.w3.org/1999/xlink">
    <!-- Generator: Sketch 41.2 (35397) - http://www.bohemiancoding.com/sketch -->
    <title>AVATAR</title>
    <desc>Created with Sketch.</desc>
    <defs></defs>
    <g id="Page-1" stroke="none" stroke-width="1" fill="none" fill-rule="evenodd">
        <g id="AVATAR">
            <g id="FEATURE" transform="translate(26.000000, 40.000000)" fill="#417505">
                <path d="M4.5369491,8.80351666 L7.54878619,8.80351666 C8.21808332,12.0172369 11.1183709,14.4552316 14.5764061,14.4552316 C18.0344412,14.4552316 20.8231793,12.1280549 21.6040259,8.9143346 C23.1657192,7.58451931 25.5082592,7.58451931 27.0699525,8.9143346 C27.8507992,12.1280549 30.6395372,14.4552316 34.0975724,14.4552316 C37.5556076,14.4552316 40.4558951,12.0172369 41.1251923,8.80351666 L44.2485789,8.80351666 L44.1370293,5.81143226 L41.0136427,5.81143226 C40.3443456,2.59771199 37.444058,0.159717298 33.9860229,0.159717298 C30.6395372,0.159717298 27.8507992,2.48689405 27.0699525,5.47897844 C25.2851602,4.8140708 23.2772688,4.8140708 21.4924764,5.47897844 C20.7116298,2.37607611 17.9228917,0.159717298 14.5764061,0.159717298 C11.1183709,0.159717298 8.21808332,2.59771199 7.54878619,5.81143226 L4.42539958,5.81143226 L4.5369491,8.80351666 Z M29.747141,7.36288343 C29.747141,5.03570668 31.6434829,3.15180169 33.9860229,3.15180169 C36.3285628,3.15180169 38.2249047,5.03570668 38.2249047,7.36288343 C38.2249047,9.69006018 36.3285628,11.5739652 33.9860229,11.5739652 C31.6434829,11.5739652 29.747141,9.69006018 29.747141,7.36288343 Z M14.5764061,11.5739652 C12.2338661,11.5739652 10.3375242,9.69006018 10.3375242,7.36288343 C10.3375242,5.03570668 12.2338661,3.15180169 14.5764061,3.15180169 C16.918946,3.15180169 18.8152879,5.03570668 18.8152879,7.36288343 C18.8152879,9.69006018 16.918946,11.5739652 14.5764061,11.5739652 Z" id="face-4-glasses"></path>
            </g>
            <g id="HAIR" transform="translate(7.000000, -2.000000)"></g>
        </g>
    </g>
</svg>