<?xml version="1.0" encoding="UTF-8"?>
<svg width="100px" height="100px" viewBox="0 0 100 100" version="1.1" xmlns="http://www.w3.org/2000/svg" xmlns:xlink="http://www.w3.org/1999/xlink">
    <!-- Generator: Sketch 41.2 (35397) - http://www.bohemiancoding.com/sketch -->
    <title>AVATAR</title>
    <desc>Created with Sketch.</desc>
    <defs></defs>
    <g id="Page-1" stroke="none" stroke-width="1" fill="none" fill-rule="evenodd">
        <g id="AVATAR">
            <g id="FACE" transform="translate(27.000000, 34.000000)"></g>
            <g id="FEATURE" transform="translate(26.000000, 40.000000)" fill="#FF4593">
                <g id="feature12" transform="translate(13.000000, 32.000000)">
                    <path d="M3.03333333,4.86875 C1.98333333,4.86875 1.05,5.81875 1.05,6.8875 L1.05,13.65625 C1.05,14.725 1.98333333,15.675 3.03333333,15.675 C4.08333333,15.675 5.01666667,14.725 5.01666667,13.65625 L5.01666667,6.8875 C5.01666667,5.7 4.2,4.86875 3.03333333,4.86875 Z" id="Shape"></path>
                    <path d="M8.28333333,0.11875 C7.23333333,0.11875 6.3,1.06875 6.3,2.1375 L6.3,16.15 C6.3,17.21875 7.23333333,18.16875 8.28333333,18.16875 C9.33333333,18.16875 10.2666667,17.21875 10.2666667,16.15 L10.2666667,2.1375 C10.2666667,0.95 9.33333333,0.11875 8.28333333,0.11875 Z" id="Shape"></path>
                    <path d="M13.5333333,0.11875 C12.4833333,0.11875 11.55,1.06875 11.55,2.1375 L11.55,16.15 C11.55,17.21875 12.4833333,18.16875 13.5333333,18.16875 C14.5833333,18.16875 15.5166667,17.21875 15.5166667,16.15 L15.5166667,2.1375 C15.5166667,0.95 14.5833333,0.11875 13.5333333,0.11875 Z" id="Shape"></path>
                    <path d="M18.6666667,4.86875 C17.6166667,4.86875 16.6833333,5.81875 16.6833333,6.8875 L16.6833333,13.65625 C16.6833333,14.725 17.6166667,15.675 18.6666667,15.675 C19.7166667,15.675 20.65,14.725 20.65,13.65625 L20.65,6.8875 C20.65,5.7 19.8333333,4.86875 18.6666667,4.86875 Z" id="Shape"></path>
                </g>
            </g>
            <g id="HAIR" transform="translate(7.000000, -1.000000)"></g>
        </g>
    </g>
</svg>