<?xml version="1.0" encoding="UTF-8"?>
<svg width="100px" height="100px" viewBox="0 0 100 100" version="1.1" xmlns="http://www.w3.org/2000/svg" xmlns:xlink="http://www.w3.org/1999/xlink">
    <!-- Generator: Sketch 41.2 (35397) - http://www.bohemiancoding.com/sketch -->
    <title>AVATAR</title>
    <desc>Created with Sketch.</desc>
    <defs></defs>
    <g id="Page-1" stroke="none" stroke-width="1" fill="none" fill-rule="evenodd">
        <g id="AVATAR">
            <g id="FACE" transform="translate(27.000000, 34.000000)"></g>
            <g id="FEATURE" transform="translate(26.000000, 40.000000)" fill="#2EC1FF">
                <path d="M23.5782351,7.59754554 C24.8311576,7.59754554 25.9704624,8.05951836 26.8825316,8.86797078 C27.5663229,11.7542604 30.072168,13.8320976 33.0345688,13.8320976 L35.0849004,13.8320976 C37.9336835,13.8320976 40.4395286,11.8697536 41.23798,9.21340991 L41.3515978,9.09895718 C41.920729,8.52149117 42.7181381,8.05951836 43.5165895,8.05951836 L43.5165895,5.17322876 C42.7181381,5.17322876 41.920729,5.40421516 41.1233199,5.75069477 C40.3259108,3.0943511 37.9336835,1.01651392 34.9712827,1.01651392 L32.920951,1.01651392 C30.072168,1.01651392 27.6799407,2.86440517 26.8825316,5.40421516 C25.8568446,4.82674915 24.6039221,4.59576274 23.3499572,4.59576274 C22.0970347,4.59576274 20.9577299,4.82674915 19.8184251,5.40421516 C19.021016,2.86440517 16.6287888,1.01651392 13.7800057,1.01651392 L11.7296741,1.01651392 C8.76727321,1.01651392 6.37504592,2.9788579 5.57763683,5.75069477 C4.77918537,5.40421516 3.98177627,5.17322876 3.18436718,5.17322876 L3.18749427,8.27489757 L3.41264508,8.29050476 C4.21005417,8.40599797 5.00746327,8.75247758 5.57763683,9.32890311 L5.69125459,9.44439631 C6.48866369,12.10074 8.88089097,14.063084 11.8432918,14.063084 L13.8936234,14.063084 C15.8313797,14.063084 17.9452955,12.8363589 18.7927381,11.7542604 C19.6412231,10.6721619 20.0477454,9.59526581 20.2332863,8.66715827 C21.3100492,7.56633116 23.0091039,7.59754554 23.5782351,7.59754554 M38.3891969,7.59754554 C38.3891969,9.44439631 36.9079965,11.0613012 34.9712827,11.0613012 L32.920951,11.0613012 C31.097855,11.0613012 29.5030368,9.55988952 29.5030368,7.59754554 C29.5030368,5.63520157 30.9842372,4.13378993 32.920951,4.13378993 L34.9712827,4.13378993 C36.7943788,4.24928313 38.3891969,5.75069477 38.3891969,7.59754554 M17.3115377,7.59754554 C17.3115377,9.44439631 15.8313797,11.0613012 13.8936234,11.0613012 L11.8432918,11.0613012 C10.0201957,11.0613012 8.42537754,9.55988952 8.42537754,7.59754554 C8.42537754,5.63520157 9.90657797,4.13378993 11.8432918,4.13378993 L13.8936234,4.13378993 C15.8313797,4.24928313 17.3115377,5.75069477 17.3115377,7.59754554" id="feature15"></path>
            </g>
            <g id="HAIR" transform="translate(7.000000, -1.000000)"></g>
        </g>
    </g>
</svg>