<?xml version="1.0" encoding="UTF-8"?>
<svg width="100px" height="100px" viewBox="0 0 100 100" version="1.1" xmlns="http://www.w3.org/2000/svg" xmlns:xlink="http://www.w3.org/1999/xlink">
    <!-- Generator: Sketch 41.2 (35397) - http://www.bohemiancoding.com/sketch -->
    <title>AVATAR</title>
    <desc>Created with Sketch.</desc>
    <defs></defs>
    <g id="Page-1" stroke="none" stroke-width="1" fill="none" fill-rule="evenodd">
        <g id="AVATAR">
            <g id="FACE" transform="translate(27.000000, 34.000000)"></g>
            <g id="FEATURE" transform="translate(26.000000, 40.000000)" fill="#FF4593">
                <path d="M45.2247949,6.07273512 L42.0225409,6.07273512 L42.0225409,4.45002158 C42.0225409,2.71139994 40.5157354,1.20459451 38.7771138,1.20459451 L30.6635461,1.20459451 C28.9249245,1.20459451 27.418119,2.71139994 27.418119,4.45002158 L27.418119,5.14547024 C26.4908541,4.6818378 25.331773,4.45002158 24.2886001,4.45002158 C23.2454271,4.45002158 22.086346,4.6818378 21.1590811,5.14547024 L21.1590811,4.45002158 C21.1590811,2.71139994 19.6522757,1.20459451 17.913654,1.20459451 L9.80008634,1.20459451 C8.06146469,1.20459451 6.55465927,2.71139994 6.55465927,4.45002158 L6.55465927,6.07273512 L4.46831329,6.07273512 L4.35240518,8.97043787 L6.43875116,8.97043787 L6.43875116,10.5931514 C6.43875116,12.331773 7.94555658,13.8385785 9.68417823,13.8385785 L17.7977459,13.8385785 C19.5363676,13.8385785 21.043173,12.331773 21.043173,10.5931514 L21.043173,8.73862165 C21.043173,8.73862165 21.1590811,8.73862165 21.1590811,8.62271354 C22.7817946,7 25.5635893,7 27.1863028,8.62271354 C27.1863028,8.62271354 27.3022109,8.62271354 27.3022109,8.73862165 L27.3022109,10.5931514 C27.3022109,12.331773 28.8090163,13.8385785 30.547638,13.8385785 L38.6612057,13.8385785 C40.3998273,13.8385785 41.9066327,12.331773 41.9066327,10.5931514 L41.9066327,8.97043787 L43.9929787,8.97043787 L45.2247949,6.07273512 Z M18.0295621,10.5931514 C18.0295621,10.7090595 17.913654,10.8249676 17.7977459,10.8249676 L9.68417823,10.8249676 C9.56827012,10.8249676 9.45236201,10.7090595 9.45236201,10.5931514 L9.45236201,4.45002158 C9.45236201,4.33411348 9.56827012,4.21820537 9.68417823,4.21820537 L17.7977459,4.21820537 C17.913654,4.21820537 18.0295621,4.33411348 18.0295621,4.45002158 L18.0295621,10.5931514 Z M39.00893,10.5931514 C39.00893,10.7090595 38.8930219,10.8249676 38.7771138,10.8249676 L30.6635461,10.8249676 C30.547638,10.8249676 30.4317299,10.7090595 30.4317299,10.5931514 L30.4317299,4.45002158 C30.4317299,4.33411348 30.547638,4.21820537 30.6635461,4.21820537 L38.7771138,4.21820537 C38.8930219,4.21820537 39.00893,4.33411348 39.00893,4.45002158 L39.00893,10.5931514 Z" id="feature11"></path>
            </g>
            <g id="HAIR" transform="translate(7.000000, -1.000000)"></g>
        </g>
    </g>
</svg>