<?xml version="1.0" encoding="UTF-8"?>
<svg width="100px" height="100px" viewBox="0 0 100 100" version="1.1" xmlns="http://www.w3.org/2000/svg" xmlns:xlink="http://www.w3.org/1999/xlink">
    <!-- Generator: Sketch 41.2 (35397) - http://www.bohemiancoding.com/sketch -->
    <title>AVATAR</title>
    <desc>Created with Sketch.</desc>
    <defs></defs>
    <g id="Page-1" stroke="none" stroke-width="1" fill="none" fill-rule="evenodd">
        <g id="AVATAR">
            <g id="FEATURE" transform="translate(26.000000, 40.000000)" fill="#95FF73">
                <path d="M42.0996488,9.08680645 L41.9874537,9.08680645 C41.8752585,13.0384194 38.6216,16.1997097 34.8069659,16.1997097 C32.8996488,16.1997097 30.9923317,15.4093871 29.6459902,14.0545484 C28.2996488,12.6997097 27.5142829,10.8932581 27.626478,8.97390323 C27.626478,7.95777419 28.1874537,7.16745161 29.4216,6.49003226 C30.8801366,5.69970968 32.8996488,5.24809677 34.919161,5.24809677 C36.9386732,5.24809677 38.9581854,5.69970968 40.416722,6.49003226 C41.7630634,7.28035484 41.9874537,8.18358065 42.0996488,8.74809677 L42.0996488,9.08680645 Z M11.919161,16.1997097 C10.0118439,16.1997097 8.10452683,15.4093871 6.75818537,14.0545484 C5.4118439,12.6997097 4.73867317,11.0061613 4.73867317,9.19970968 L4.73867317,8.97390323 L4.62647805,8.97390323 C4.62647805,7.95777419 5.29964878,7.16745161 6.4216,6.49003226 C7.88013659,5.69970968 9.89964878,5.24809677 11.919161,5.24809677 C13.9386732,5.24809677 15.9581854,5.69970968 17.416722,6.49003226 C19.0996488,7.50616129 19.0996488,8.52229032 19.0996488,8.97390323 C19.0996488,13.0384194 15.8459902,16.1997097 11.919161,16.1997097 L11.919161,16.1997097 Z M41.8752585,3.75212903 C41.6991122,3.67083871 41.5790634,3.62116129 41.5095024,3.68551613 C37.7958439,1.57535484 31.5443317,1.70406452 27.8508683,3.78035484 C26.616722,4.45777419 25.719161,5.361 25.1581854,6.49003226 C24.5972098,6.26422581 23.924039,6.15132258 23.2508683,6.15132258 C22.5776976,6.15132258 22.016722,6.26422581 21.3435512,6.49003226 C20.7825756,5.47390323 19.9972098,4.57067742 18.7630634,3.89325806 C15.0606244,1.63519355 8.55330732,1.63519355 4.73867317,3.78035484 C4.73867317,3.78035484 4.72857561,3.78374194 4.72633171,3.78374194 C4.67920976,3.59293548 4.54233171,3.64487097 4.31120976,3.75212903 C0.971160976,5.30229032 -2.26005854,8.29535484 4.39086829,16.0179355 C4.64330732,16.3114839 4.76447805,16.4142258 4.80038049,16.3577742 C6.68974634,18.169871 9.19281951,19.1351935 11.8069659,19.1351935 C15.1728195,19.1351935 18.6183317,17.0340645 20.1094049,14.844871 C21.600478,12.6556774 22.130039,9.49551613 22.130039,9.49551613 C22.7246732,9.19632258 23.026478,9.08680645 23.2508683,9.08680645 C23.8118439,9.08680645 24.2606244,9.3126129 24.5972098,9.65132258 C24.7094049,12.1351935 25.719161,14.3932581 27.5142829,16.0868065 C29.4216,18.0061613 32.0020878,19.1351935 34.8069659,19.1351935 C37.6118439,19.1351935 40.1923317,18.0061613 41.9874537,16.0868065 L42.8681854,14.6992258 C43.726478,13.5837419 44.3424293,12.5856774 44.7878439,11.6768065 L44.8731122,11.5413226 L44.8753561,11.4927742 C46.9633073,7.03196774 44.4636,4.95341935 41.8752585,3.75212903 L41.8752585,3.75212903 Z" id="face-2---glasses"></path>
            </g>
            <g id="HAIR" transform="translate(7.000000, -2.000000)"></g>
        </g>
    </g>
</svg>