<?xml version="1.0" encoding="UTF-8"?>
<svg width="100px" height="100px" viewBox="0 0 100 100" version="1.1" xmlns="http://www.w3.org/2000/svg" xmlns:xlink="http://www.w3.org/1999/xlink">
    <!-- Generator: Sketch 41.2 (35397) - http://www.bohemiancoding.com/sketch -->
    <title>AVATAR</title>
    <desc>Created with Sketch.</desc>
    <defs></defs>
    <g id="Page-1" stroke="none" stroke-width="1" fill="none" fill-rule="evenodd">
        <g id="AVATAR">
            <path d="M26,39 L26,57.277 L26,63.777 C26,66.077 26.8,68.477 28.2,70.277 L36.1,80.377 C36.6,80.977 41.3,86.577 45.8,86.577 L54.4,86.577 C58.9,86.577 63.6,81.077 64.2,80.377 L72,70.377 C73.4,68.577 74.2,66.277 74.2,63.877 L74.2,39.277 L70.2,39.257 L70.2,63.877 C70.2,65.377 69.7,66.777 68.8,67.877 L61.6,77.077 L58.1,81.077 C57.1,82.077 56.4,83.077 50.1,83.077 C43.8,83.077 43.1,82.077 42.1,81.077 L38.6,77.077 L31.4,67.877 C30.5,66.777 30,65.277 30,63.877 L30,39.05 L26,39 Z" id="face-bottom" fill="#D1D1D1"></path>
            <g id="FACE" transform="translate(27.000000, 34.000000)"></g>
            <g id="HAIR" transform="translate(7.000000, 0.000000)" fill="#FF8B17">
                <path d="M19,63.2 C19,65.5 19.8,67.9 21.2,69.7 L24.322,73.743 L27.5,71.4 L29.8,70 C30.9,69.3 31.7,68.2 31.8,66.8 C31.9,65.5 31.4,64.2 30.3,63.4 C26.3,60.1 23,51.1 23,46 L23,45.7 L23,43.7 C24.3,43.4 25.5,42.6 26.6,41.2 C28,39.5 29.1,37 29.6,34.4 C29.9,32.9 30,31.6 29.9,30.3 C30.4,29.4 32.5,26.6 36.9,27.1 C49.4,28.5 54,24.5 55.7,21.6 C56.6,22.3 57.4,23.1 58.1,24 C56.2,26 55.4,30 56.3,34.4 C56.8,37.1 57.9,39.5 59.3,41.2 C60.5,42.6 61.8,43.5 63.1,43.7 L63.1,47.1 C62.7,52.3 59.6,60.3 55.7,63.5 C54.7,64.3 54.1,65.6 54.2,66.9 C54.3,68.2 55,69.4 56.2,70.1 L58.5,71.5 L61.806,73.576 L64.9,69.8 C66.3,68 67.1,65.7 67.1,63.3 L67.1,56.8 L67.1,38.7 L67.1,37.1 C67.1,23.8 56.3,13 43,13 C37.7,13 32.8,14.7 28.8,17.7 L25.8,14.1 C25.3,13.5 24.3,13.4 23.7,13.9 C23.1,14.4 23,15.4 23.5,16 L26.5,19.6 C26.2,19.9 25.9,20.2 25.5,20.6 L22.6,17.1 C22.1,16.5 21.1,16.4 20.5,16.9 C19.9,17.4 19.8,18.4 20.3,19 L23.6,22.9 C20.7,26.9 19,31.8 19,37.1 L19,38.7 L19,63.2 Z M63.1,40.6 C62.6,40.4 62.1,39.9 61.6,39.3 C60.5,38 59.7,35.9 59.2,33.8 C58.6,30.6 59,27.9 59.9,26.5 C61.8,29.6 63,33.2 63,37.2 L63,40.6 L63.1,40.6 Z M53.2,19.9 C52.1,22.1 48.5,25.5 37.2,24.1 C33.6,23.7 30.9,24.9 29.2,26.5 C28.9,25.6 28.5,24.9 27.9,24.3 L27.9,24 C31.6,19.8 37,17.1 43,17.1 C46.7,17 50.2,18.1 53.2,19.9 L53.2,19.9 Z M25.9,26.6 C26.7,28.1 27.1,30.7 26.6,33.8 C26.2,36 25.3,38 24.2,39.3 C23.8,39.8 23.3,40.2 22.9,40.5 L22.9,37.1 C22.9,33.2 24,29.6 25.9,26.6 L25.9,26.6 Z M22.9,57.8 C24.3,61 26.2,64 28.5,65.8 C28.8,66 28.9,66.4 28.9,66.7 C28.9,66.9 28.8,67.3 28.4,67.5 L25.7,69.1 L24.3,67.3 C23.4,66.2 22.9,64.7 22.9,63.3 L22.9,57.8 Z M61.7,67.3 L60.4,69 L57.7,67.5 C57.3,67.3 57.2,66.9 57.2,66.7 C57.2,66.4 57.3,66 57.6,65.8 C59.8,64 61.7,61.1 63.1,58 L63.1,63.3 C63.1,64.7 62.6,66.2 61.7,67.3 L61.7,67.3 Z" id="hair-8"></path>
            </g>
        </g>
    </g>
</svg>