<?xml version="1.0" encoding="UTF-8"?>
<svg width="100px" height="100px" viewBox="0 0 100 100" version="1.1" xmlns="http://www.w3.org/2000/svg" xmlns:xlink="http://www.w3.org/1999/xlink">
    <!-- Generator: Sketch 41.2 (35397) - http://www.bohemiancoding.com/sketch -->
    <title>AVATAR</title>
    <desc>Created with Sketch.</desc>
    <defs>
        <path d="M55,18 C58.861523,18 62,14.8670751 62,11.0049709 L62,6.99502908 C62,3.12952356 58.8662663,0 55,0 L55,4 C56.6583302,4 58,5.33986728 58,6.99502908 L58,11.0049709 C58,12.6563491 56.6539679,14 55,14 L55,18 Z" id="path-1"></path>
    </defs>
    <g id="Page-1" stroke="none" stroke-width="1" fill="none" fill-rule="evenodd">
        <g id="AVATAR">
            <path d="M26,39 L26,57.277 L26,63.777 C26,66.077 26.8,68.477 28.2,70.277 L36.1,80.377 C36.6,80.977 41.3,86.577 45.8,86.577 L54.4,86.577 C58.9,86.577 63.6,81.077 64.2,80.377 L72,70.377 C73.4,68.577 74.2,66.277 74.2,63.877 L74.2,39.277 L70.2,39.257 L70.2,63.877 C70.2,65.377 69.7,66.777 68.8,67.877 L61.6,77.077 L58.1,81.077 C57.1,82.077 56.4,83.077 50.1,83.077 C43.8,83.077 43.1,82.077 42.1,81.077 L38.6,77.077 L31.4,67.877 C30.5,66.777 30,65.277 30,63.877 L30,39.05 L26,39 Z" id="face-bottom" fill="#D1D1D1"></path>
            <g id="ears" transform="translate(19.000000, 39.000000)">
                <path d="M7,18 C3.13373374,18 0,14.8704764 0,11.0049709 L0,6.99502908 C0,3.13292487 3.13847703,0 7,0 L7,4 C5.34603211,4 4,5.3436509 4,6.99502908 L4,11.0049709 C4,12.6601327 5.34166981,14 7,14 L7,18 Z" id="ear-left" fill="#D1D1D1"></path>
                <mask id="mask-2" fill="white">
                    <use xlink:href="#path-1"></use>
                </mask>
                <use id="ear-right" fill="#D1D1D1" xlink:href="#path-1"></use>
            </g>
            <g id="FACE" transform="translate(27.000000, 34.000000)"></g>
            <g id="HAIR" transform="translate(7.000000, 0.000000)" fill="#F9E71C">
                <path d="M59.0457,24.3 C55.5677,21.5 51.4577,21.8 47.4537,22.2 C46.0837,22.3 44.7137,22.4 43.3437,22.4 C41.9737,22.4 40.6037,22.3 39.2337,22.2 C35.2287,21.9 31.1187,21.5 27.6417,24.3 C27.4307,24.5 27.1147,24.7 26.9037,24.9 C30.1707,20.5 35.7557,18.1 43.3437,18.1 C50.9307,18.1 56.4107,20.5 59.7837,24.9 C59.5727,24.7 59.2567,24.5 59.0457,24.3 M43.2387,14 C28.0627,14 18.9997,22.7 18.9997,37.3 L18.9997,39.3 L23.6167,39.3 C24.2737,34.684 26.6647,30.437 30.4867,27.4 C31.7517,26.3 33.3317,26 35.2287,26 C36.2827,26 37.4417,26.1 38.8117,26.2 C40.2877,26.3 41.7627,26.5 43.3437,26.5 C44.9247,26.5 46.3997,26.4 47.8747,26.2 C51.7747,25.9 54.1977,25.7 56.3057,27.4 C60.0387,30.437 62.4157,34.684 63.0707,39.3 L67.2407,39.3 L67.2407,32.738 C65.5057,20.915 56.8477,14 43.2387,14" id="Hair-1"></path>
            </g>
        </g>
    </g>
</svg>