<?xml version="1.0" encoding="UTF-8"?>
<svg width="100px" height="100px" viewBox="0 0 100 100" version="1.1" xmlns="http://www.w3.org/2000/svg" xmlns:xlink="http://www.w3.org/1999/xlink">
    <!-- Generator: Sketch 41.2 (35397) - http://www.bohemiancoding.com/sketch -->
    <title>AVATAR</title>
    <desc>Created with Sketch.</desc>
    <defs>
        <path d="M55,18 C58.861523,18 62,14.8670751 62,11.0049709 L62,6.99502908 C62,3.12952356 58.8662663,0 55,0 L55,4 C56.6583302,4 58,5.33986728 58,6.99502908 L58,11.0049709 C58,12.6563491 56.6539679,14 55,14 L55,18 Z" id="path-1"></path>
    </defs>
    <g id="Page-1" stroke="none" stroke-width="1" fill="none" fill-rule="evenodd">
        <g id="AVATAR">
            <path d="M74.2,39.7 L74.2,38.1 C74.2,24.8 63.4,14 50.1,14 C36.8,14 26,24.8 26,38.1 L26,57.7 L26,64.2 C26,66.5 26.8,68.9 28.2,70.7 L36.1,80.8 C36.6,81.4 41.3,87 45.8,87 L54.4,87 C58.9,87 63.6,81.5 64.2,80.8 L72,70.8 C73.4,69 74.2,66.7 74.2,64.3 L74.2,39.7 Z M70.2,64.3 C70.2,65.8 69.7,67.2 68.8,68.3 L61.6,77.5 L58.1,81.5 C57.1,82.5 56.4,83.5 50.1,83.5 C43.8,83.5 43.1,82.5 42.1,81.5 L38.6,77.5 L31.4,68.3 C30.5,67.2 30,65.7 30,64.3 L30,38.1 C30,27 39,18 50.1,18 C61.2,18 70.2,27 70.2,38.1 L70.2,64.3 Z" id="face-border" fill="#D1D1D1"></path>
            <g id="ears" transform="translate(19.000000, 39.000000)">
                <path d="M7,18 C3.13373374,18 0,14.8704764 0,11.0049709 L0,6.99502908 C0,3.13292487 3.13847703,0 7,0 L7,4 C5.34603211,4 4,5.3436509 4,6.99502908 L4,11.0049709 C4,12.6601327 5.34166981,14 7,14 L7,18 Z" id="ear-left" fill="#D1D1D1"></path>
                <mask id="mask-2" fill="white">
                    <use xlink:href="#path-1"></use>
                </mask>
                <use id="ear-right" fill="#D1D1D1" xlink:href="#path-1"></use>
            </g>
            <g id="FACE" transform="translate(27.000000, 34.000000)"></g>
            <g id="HAIR" transform="translate(7.000000, 0.000000)" fill="#4556FF">
                <path d="M66.9172,35.0222 C66.2722,29.8092 63.9542,25.1222 60.5002,21.5002 L64.1002,19.9002 C64.9002,19.6002 65.2002,18.7002 64.9002,17.9002 C64.6002,17.1002 63.7002,16.8002 62.9002,17.1002 L59.7002,18.5002 L61.3002,15.4002 C61.7002,14.7002 61.4002,13.8002 60.7002,13.4002 C60.0002,13.0002 59.1002,13.3002 58.7002,14.0002 L56.6002,18.1002 C52.7002,15.5002 48.1002,13.9002 43.0002,13.9002 C31.3652,13.9002 21.6442,22.1642 19.3922,33.1372 C20.2862,33.3052 21.4172,33.4132 23.4002,34.1002 C25.6002,34.5002 27.9002,34.7002 30.1002,34.7002 C35.9002,34.7002 41.7002,33.3002 47.1002,30.7002 C50.1002,34.5002 54.6002,36.6002 59.3002,36.6002 C60.6002,36.6002 61.8002,36.4002 63.1002,36.1002 C64.6032,35.4052 65.6262,35.5672 66.9172,35.0222 M57.1002,23.7002 C59.5002,26.0002 61.2002,28.9002 62.2002,32.2002 C58.0002,33.4002 53.4002,32.0002 50.5002,28.8002 C52.8002,27.3002 55.1002,25.6002 57.1002,23.7002 M43.0002,17.9002 C47.0002,17.9002 50.8002,19.1002 54.0002,21.2002 C51.8002,23.2002 49.4002,24.9002 46.8002,26.3002 C46.7002,26.3002 46.6002,26.4002 46.5002,26.4002 L46.4002,26.5002 C39.6002,30.1002 32.0002,31.5002 24.5002,30.2002 C27.5002,23.0002 34.7002,17.9002 43.0002,17.9002" id="hair-6"></path>
            </g>
        </g>
    </g>
</svg>