<?xml version="1.0" encoding="UTF-8"?>
<svg width="100px" height="100px" viewBox="0 0 100 100" version="1.1" xmlns="http://www.w3.org/2000/svg" xmlns:xlink="http://www.w3.org/1999/xlink">
    <!-- Generator: Sketch 41.2 (35397) - http://www.bohemiancoding.com/sketch -->
    <title>AVATAR</title>
    <desc>Created with Sketch.</desc>
    <defs></defs>
    <g id="Page-1" stroke="none" stroke-width="1" fill="none" fill-rule="evenodd">
        <g id="AVATAR">
            <g id="FACE" transform="translate(27.000000, 34.000000)"></g>
            <g id="FEATURE" transform="translate(26.000000, 40.000000)"></g>
            <g id="HAIR" transform="translate(7.000000, -1.000000)" fill="#9EB900">
                <g id="Hair-17" transform="translate(12.000000, 6.000000)">
                    <path d="M60.2646,22.9425 C59.4126,19.4985 58.6816,18.6655 57.6666,16.6025 C55.6306,12.4645 51.7056,7.7955 47.0826,5.0205 C42.3386,2.1255 36.7426,0.5565 31.1456,0.5565 L29.5646,0.5565 C20.4406,1.0395 12.1676,5.6235 6.9366,13.2245 C1.4626,21.0665 0.1236,30.7175 3.1656,39.7665 L4.8686,44.9535 C2.1926,46.0395 0.3676,48.6935 0.3676,51.5895 C0.3676,55.4495 3.4086,58.5865 7.3016,58.8275 C7.5446,61.8435 8.6396,64.7395 10.5866,67.1525 L17.3986,75.7175 C18.2506,76.6825 22.7516,81.7505 27.1316,81.7505 L35.6476,81.7505 C40.0266,81.7505 44.5276,76.6825 45.3796,75.5975 L52.0706,67.1525 C53.8956,64.7395 55.1116,61.8435 55.3556,58.8275 C59.1266,58.5865 62.1676,55.4495 62.1676,51.5895 C62.1676,48.5735 60.2216,45.9185 57.5446,44.8335 L59.4916,39.0425 C60.2216,36.7505 60.6386,34.4635 60.9516,32.1655 C61.2646,29.8675 61.1166,26.3865 60.2646,22.9425 L60.2646,22.9425 Z M10.5866,15.6375 C15.0876,9.1225 22.1436,5.1415 29.9296,4.7795 L31.2676,4.7795 C36.1336,4.7795 40.8786,6.1065 45.0146,8.6405 C54.7466,14.5515 59.1266,26.8575 55.3556,37.9565 L55.2336,38.1975 L55.2336,35.4225 C55.2336,31.4415 54.2606,27.4605 52.3136,23.9615 C52.1926,23.8415 50.1246,20.2215 47.0826,18.1705 C41.9736,14.7925 36.7426,15.7585 36.4986,15.7585 C35.7686,15.8785 35.1606,16.3615 34.9176,16.9645 C34.6736,17.5675 34.6736,18.4125 35.0386,18.8945 L38.4456,24.0825 C24.5766,26.7365 19.5886,19.7395 19.3456,19.3775 C18.9806,18.8945 18.4936,18.5325 17.8856,18.4125 C17.2776,18.2915 16.6696,18.4125 16.1826,18.7745 L13.7496,20.5835 C13.7496,20.5835 13.6276,20.5835 13.6276,20.7045 C10.2216,23.7205 8.0316,27.8225 7.4236,32.1655 C7.3016,33.1305 7.1796,34.0955 7.1796,35.1815 L7.1796,38.4395 L7.0586,38.1975 C4.7466,30.7175 5.8416,22.3935 10.5866,15.6375 L10.5866,15.6375 Z M11.5596,40.8515 L11.5596,35.4225 C11.5596,34.5785 11.5596,33.7335 11.6816,33.0105 C12.0466,29.6325 13.7496,26.6155 16.4256,24.2035 L17.1556,23.5995 C20.0756,26.4955 27.7396,31.5625 42.3386,27.7015 C42.9466,27.5815 43.5546,27.0985 43.7976,26.3745 C44.0416,25.7715 43.9196,25.0475 43.5546,24.4445 L40.8786,20.2215 C42.0946,20.4635 43.4336,20.9455 44.7716,21.7905 C46.9606,23.2375 48.6646,26.1335 48.6646,26.1335 C50.2456,29.0285 51.0976,32.1655 51.0976,35.5435 L51.0976,40.9725 L50.7326,52.1925 L50.7326,57.8625 C50.9756,60.2755 50.1246,62.6885 48.5426,64.6185 L41.9736,73.0635 C40.3916,74.9935 37.3506,77.6485 35.5256,77.6485 L27.0096,77.6485 C25.3066,77.6485 22.1436,74.8735 20.6836,73.1845 L13.9926,64.7395 C12.4116,62.8085 11.5596,60.2755 11.5596,57.8625 L11.5596,52.1925 L11.5596,40.8515 Z M4.7466,51.7095 C4.7466,50.1415 5.8416,48.9345 7.3016,48.6935 L7.3016,54.7255 C5.8416,54.4845 4.7466,53.1575 4.7466,51.7095 L4.7466,51.7095 Z M55.2336,54.7255 L55.2336,48.6935 C56.6936,48.9345 57.7886,50.1415 57.7886,51.7095 C57.7886,53.1575 56.6936,54.4845 55.2336,54.7255 L55.2336,54.7255 Z" id="hair17a"></path>
                    <path d="M59.1507,33.1782 C61.2187,33.7812 65.3557,35.9532 64.7467,43.6742 C64.5037,46.4492 63.5307,50.3092 62.5577,54.4112 C59.0297,67.5612 54.5277,85.5372 69.1267,93.9822 C69.4917,94.2232 69.8567,94.2232 70.2217,94.2232 C70.8297,94.2232 71.4377,93.9822 71.8027,93.5002 C72.4117,92.7762 72.5327,91.5692 71.8027,90.8452 C71.6817,90.7252 64.9907,81.9182 73.8707,60.0812 C79.8317,45.4832 80.3187,33.7812 75.0877,27.2662 C72.6547,24.1302 67.6667,20.6312 57.8127,21.8372 C58,25 59.1507,29 59.1507,33.1782 Z M65.3557,84.2102 C61.3407,76.3682 64.1387,65.0282 66.5717,55.6182 C67.6667,51.3952 68.6397,47.4142 68.8837,44.2772 C69.6127,34.2642 64.1387,30.7652 60.8537,29.5592 C60.9757,28.5932 60.9757,27.6282 60.8537,26.6632 C60.8537,26.4222 60.7327,26.1812 60.7327,25.9392 C65.8417,25.6982 69.6127,27.0252 71.9247,29.9202 C76.0607,35.2292 75.4527,45.6042 70.0997,58.5132 C65.2337,70.0952 64.6257,78.5402 65.3557,84.2102 L65.3557,84.2102 Z" id="Fill-4"></path>
                </g>
            </g>
        </g>
    </g>
</svg>