<?xml version="1.0" encoding="UTF-8"?>
<svg width="100px" height="100px" viewBox="0 0 100 100" version="1.1" xmlns="http://www.w3.org/2000/svg" xmlns:xlink="http://www.w3.org/1999/xlink">
    <!-- Generator: Sketch 41.2 (35397) - http://www.bohemiancoding.com/sketch -->
    <title>AVATAR</title>
    <desc>Created with Sketch.</desc>
    <defs>
        <path d="M55,18 C58.861523,18 62,14.8670751 62,11.0049709 L62,6.99502908 C62,3.12952356 58.8662663,0 55,0 L55,4 C56.6583302,4 58,5.33986728 58,6.99502908 L58,11.0049709 C58,12.6563491 56.6539679,14 55,14 L55,18 Z" id="path-1"></path>
    </defs>
    <g id="Page-1" stroke="none" stroke-width="1" fill="none" fill-rule="evenodd">
        <g id="AVATAR">
            <path d="M74.2,39.7 L74.2,38.1 C74.2,24.8 63.4,14 50.1,14 C36.8,14 26,24.8 26,38.1 L26,57.7 L26,64.2 C26,66.5 26.8,68.9 28.2,70.7 L36.1,80.8 C36.6,81.4 41.3,87 45.8,87 L54.4,87 C58.9,87 63.6,81.5 64.2,80.8 L72,70.8 C73.4,69 74.2,66.7 74.2,64.3 L74.2,39.7 Z M70.2,64.3 C70.2,65.8 69.7,67.2 68.8,68.3 L61.6,77.5 L58.1,81.5 C57.1,82.5 56.4,83.5 50.1,83.5 C43.8,83.5 43.1,82.5 42.1,81.5 L38.6,77.5 L31.4,68.3 C30.5,67.2 30,65.7 30,64.3 L30,38.1 C30,27 39,18 50.1,18 C61.2,18 70.2,27 70.2,38.1 L70.2,64.3 Z" id="face-border" fill="#D1D1D1"></path>
            <g id="ears" transform="translate(19.000000, 39.000000)">
                <path d="M7,18 C3.13373374,18 0,14.8704764 0,11.0049709 L0,6.99502908 C0,3.13292487 3.13847703,0 7,0 L7,4 C5.34603211,4 4,5.3436509 4,6.99502908 L4,11.0049709 C4,12.6601327 5.34166981,14 7,14 L7,18 Z" id="ear-left" fill="#D1D1D1"></path>
                <mask id="mask-2" fill="white">
                    <use xlink:href="#path-1"></use>
                </mask>
                <use id="ear-right" fill="#D1D1D1" xlink:href="#path-1"></use>
            </g>
            <g id="FACE" transform="translate(27.000000, 34.000000)"></g>
            <g id="FEATURE" transform="translate(26.000000, 40.000000)"></g>
            <g id="HAIR" transform="translate(7.000000, -1.000000)" fill="#2EFF9E">
                <path d="M23.1,39.1 C26.8,38.6 30.2,36.8 32.8,33.9 C34.3,32.3 35.4,30.4 36.1,28.4 C40.3,39.3 50.8,47.1 63.2,47.4 L67.2,46.4 L67.2,37.8 C67.2,24.8 56.9,15 43.1,15 C29.3,15 19,24.8 19,37.8 L19,39.4 L23.1,39.1 Z M63.2,37.8 L63.2,42.7 C56.5,41 48.3,32.7 47.3,19.3 C56.6,21 63.2,28.4 63.2,37.8 L63.2,37.8 Z M44.3,19 C45,27.9 49.5,38.8 57.5,43.6 C46.4,40.9 38.1,31.4 37.2,19.7 C39.1,19.2 41,18.9 43.1,18.9 C43.5,19 43.9,19 44.3,19 L44.3,19 Z M34.1,20.8 C34.1,20.9 34.1,20.9 34.1,20.8 C34.5,25 33.2,28.9 30.5,31.9 C28.5,34.1 25.9,35.6 23.1,36.1 C23.7,29.2 27.9,23.6 34.1,20.8 L34.1,20.8 Z" id="hair13"></path>
            </g>
        </g>
    </g>
</svg>