<?xml version="1.0" encoding="UTF-8"?>
<svg width="100px" height="100px" viewBox="0 0 100 100" version="1.1" xmlns="http://www.w3.org/2000/svg" xmlns:xlink="http://www.w3.org/1999/xlink">
    <!-- Generator: Sketch 41.2 (35397) - http://www.bohemiancoding.com/sketch -->
    <title>AVATAR</title>
    <desc>Created with Sketch.</desc>
    <defs></defs>
    <g id="Page-1" stroke="none" stroke-width="1" fill="none" fill-rule="evenodd">
        <g id="AVATAR">
            <g id="FACE" transform="translate(27.000000, 34.000000)"></g>
            <g id="FEATURE" transform="translate(26.000000, 40.000000)"></g>
            <g id="HAIR" transform="translate(7.000000, -1.000000)" fill="#BD10E0">
                <path d="M67.187291,44.772423 C67.0802676,44.772423 67.0802676,44.772423 67.187291,44.772423 L67.0802676,39.0963855 C67.0802676,25.8165997 56.270903,15 43,15 C29.729097,15 18.9197324,25.8165997 18.9197324,39.0963855 L18.9197324,44.772423 L18.7056856,44.772423 C14.4247492,44.772423 11,48.1994645 11,52.4832664 L11,57.5167336 C11,61.8005355 14.4247492,65.227577 18.7056856,65.227577 L18.9197324,65.227577 L18.9197324,70.4752343 C18.9197324,73.9022758 20.09699,77.3293173 22.2374582,80.1137885 L28.9799331,88.7884873 C29.8361204,89.8594378 34.3311037,95 38.7190635,95 L47.2809365,95 C51.6688963,95 56.1638796,89.8594378 57.1270903,88.7884873 L63.8695652,80.2208835 C66.0100334,77.4364123 67.187291,74.1164659 67.187291,70.5823293 L67.187291,65.334672 L67.2943144,65.334672 C71.5752508,65.334672 75,61.9076305 75,57.6238286 L75,52.5903614 C74.7859532,48.1994645 71.361204,44.772423 67.187291,44.772423 Z M18.5986622,60.8366801 C16.6722408,60.8366801 15.173913,59.3373494 15.173913,57.4096386 L15.173913,52.3761714 C15.173913,50.4484605 16.6722408,48.9491299 18.5986622,48.9491299 L18.812709,48.9491299 L18.812709,60.8366801 C18.812709,60.9437751 18.7056856,60.8366801 18.5986622,60.8366801 Z M62.7993311,70.4752343 C62.7993311,72.8313253 62.0501672,75.1874163 60.6588629,77.1151272 L60.6588629,63.8353414 C60.6588629,62.978581 59.909699,62.2289157 59.0535117,62.2289157 C58.1973244,62.2289157 57.4481605,62.978581 57.4481605,63.8353414 L57.4481605,81.291834 L55.3076923,84.0763052 L55.3076923,67.7978581 C55.3076923,66.9410977 54.5585284,66.1914324 53.7023411,66.1914324 C52.8461538,66.1914324 52.09699,66.9410977 52.09699,67.7978581 L52.09699,87.7175368 C51.4548495,88.3601071 50.7056856,89.0026774 49.9565217,89.4310576 L49.9565217,74.2235609 C49.9565217,73.3668005 49.2073579,72.6171352 48.3511706,72.6171352 C47.4949833,72.6171352 46.7458194,73.3668005 46.7458194,74.2235609 L46.7458194,90.6091031 L44.6053512,90.6091031 L44.6053512,76.4725569 C44.6053512,75.6157965 43.8561873,74.8661312 43,74.8661312 C42.1438127,74.8661312 41.3946488,75.6157965 41.3946488,76.4725569 L41.3946488,90.6091031 L39.2541806,90.6091031 L39.2541806,74.2235609 C39.2541806,73.3668005 38.5050167,72.6171352 37.6488294,72.6171352 C36.7926421,72.6171352 36.0434783,73.3668005 36.0434783,74.2235609 L36.0434783,89.5381526 C35.2943144,89.0026774 34.5451505,88.4672021 33.90301,87.8246319 L33.90301,67.7978581 C33.90301,66.9410977 33.1538462,66.1914324 32.2976589,66.1914324 C31.4414716,66.1914324 30.6923077,66.9410977 30.6923077,67.7978581 L30.6923077,83.9692102 L28.5518395,81.184739 L28.5518395,63.8353414 C28.5518395,62.978581 27.8026756,62.2289157 26.9464883,62.2289157 C26.090301,62.2289157 25.3411371,62.978581 25.3411371,63.8353414 L25.3411371,77.1151272 C23.9498328,75.1874163 23.2006689,72.8313253 23.2006689,70.4752343 L23.2006689,39.0963855 C23.2006689,28.1726908 32.083612,19.2838019 43,19.2838019 C53.916388,19.2838019 62.7993311,28.1726908 62.7993311,39.0963855 L62.7993311,70.4752343 Z M70.5050167,57.4096386 C70.5050167,59.3373494 69.006689,60.8366801 67.0802676,60.8366801 L66.9732441,60.8366801 L66.9732441,49.0562249 L67.0802676,49.0562249 C69.006689,49.0562249 70.5050167,50.5555556 70.5050167,52.4832664 L70.5050167,57.4096386 Z" id="hair-19"></path>
            </g>
        </g>
    </g>
</svg>