<?xml version="1.0" encoding="UTF-8"?>
<svg width="100px" height="100px" viewBox="0 0 100 100" version="1.1" xmlns="http://www.w3.org/2000/svg" xmlns:xlink="http://www.w3.org/1999/xlink">
    <!-- Generator: Sketch 41.2 (35397) - http://www.bohemiancoding.com/sketch -->
    <title>AVATAR</title>
    <desc>Created with Sketch.</desc>
    <defs></defs>
    <g id="Page-1" stroke="none" stroke-width="1" fill="none" fill-rule="evenodd">
        <g id="AVATAR" fill="#417505">
            <g id="HAIR" transform="translate(7.000000, 0.000000)">
                <path d="M77.6448402,36.9506425 C73.8521565,36.0640989 73.1828593,32.8503787 72.7366613,29.5258405 C72.5135622,27.4202996 72.1789137,25.7580305 71.7327156,24.2065793 C65.4859423,2.15380914 45.0723798,5.92161912 42.9529389,6.36489088 C40.833498,5.92161912 20.308386,1.93217326 14.2847118,23.9849434 C13.8385137,25.5363946 13.5038652,27.1986637 13.2807661,29.3042046 C12.9461176,32.5179248 12.1652709,35.7316451 8.4841367,36.5073707 C5.47229961,37.0614604 -0.216726006,40.2751807 0.00637303762,48.2540724 C0.229472081,56.6762359 7.14554243,59.8899562 8.37258717,60.4440459 C8.70723574,60.6656817 10.3804786,61.7738611 10.3804786,63.879402 C10.3804786,67.2039402 10.8266767,71.415022 13.9500633,74.4071064 C16.7388013,76.955919 20.9776831,78.0640984 27.0013573,77.7316446 L29.1207982,80.5020931 C29.6785458,81.1670007 34.2520762,86.5970798 38.7140571,86.5970798 L47.1918208,86.5970798 C51.6538016,86.5970798 56.3388816,81.1670007 56.8966292,80.5020931 L58.9045206,77.9532805 C59.7969167,78.0640984 60.6893129,78.0640984 61.4701596,78.0640984 C66.266789,78.0640984 69.8363737,76.955919 72.1789137,74.7395602 C75.4138498,71.7474758 75.7484983,67.5363941 75.7484983,64.2118558 C75.7484983,62.106315 77.4217412,60.9981356 77.7563897,60.7764997 C78.9834345,60.22241 85.8995048,57.0086897 86.0110544,48.5865262 C86.2341534,40.7184524 80.5451278,37.5047322 77.6448402,36.9506425 M34.1405267,35.3991913 C35.5906705,33.8477401 37.0408143,32.185471 38.3794085,30.1907481 C41.6143447,25.6472125 43.5106865,21.2144949 44.4030827,18.9981361 C54.7771882,19.6630437 62.9203033,28.1960252 62.9203033,38.6129116 L62.9203033,45.9268957 L63.0318529,48.91898 L63.0318529,64.3226738 C63.0318529,65.763307 62.5856548,67.2039402 61.6932586,68.3121196 L53.8847921,78.0640984 C52.6577473,79.6155496 49.3112617,82.7184519 47.3033703,82.7184519 L38.8256066,82.7184519 C37.0408143,82.7184519 33.9174277,80.0588213 32.3557344,78.1749163 L24.6588174,68.3121196 C23.7664212,67.2039402 23.3202231,65.763307 23.3202231,64.3226738 L23.3202231,48.91898 L23.2086736,45.9268957 L23.2086736,42.6023574 C25.439664,41.8266319 27.5591049,40.7184524 29.6785458,39.1670013 C29.7900954,39.1670013 34.1405267,35.3991913 34.1405267,35.3991913 M76.306246,57.2303256 C76.1946964,57.2303256 76.1946964,57.3411435 76.0831469,57.3411435 C75.8600479,57.4519615 71.8442651,59.5575023 71.9558146,64.3226738 C71.9558146,67.0931223 71.7327156,70.0852067 69.7248242,71.9691117 C68.1631309,73.4097449 65.5974919,74.1854705 62.1394567,74.1854705 L64.8166452,70.7501143 C66.266789,68.9770273 67.0476356,66.6498505 67.0476356,64.4334917 L67.0476356,38.6129116 C67.0476356,25.5363946 56.3388816,15.0086902 43.2875875,15.0086902 C42.9529389,15.0086902 42.5067408,15.1195082 42.2836418,15.3411441 C41.8374437,15.5627799 41.6143447,16.0060517 41.3912456,16.4493235 C41.2796961,16.6709594 33.6943286,38.9453654 16.8503508,40.1643627 C15.7348556,40.2751807 14.954009,41.1617242 15.0655585,42.2699036 C15.177108,43.2672651 15.9579547,44.0429907 17.0734499,44.0429907 L17.1849994,44.0429907 C17.965846,43.9321727 18.7466927,43.8213548 19.5275394,43.7105368 L19.5275394,64.3226738 C19.5275394,66.6498505 20.308386,68.8662093 21.7585298,70.7501143 L24.3241688,73.9638346 C20.9776831,73.8530167 18.5235937,73.0772911 17.0734499,71.6366579 C15.0655585,69.7527529 14.7309099,66.6498505 14.7309099,63.99022 C14.7309099,59.3358665 10.7151271,57.1195076 10.4920281,57.0086897 C10.3804786,57.0086897 10.3804786,56.8978718 10.268929,56.8978718 C10.04583,56.7870538 4.46835391,54.570695 4.24525487,48.2540724 C4.13370534,41.7158139 8.93033478,40.4968166 9.59963191,40.3859986 C16.4041527,38.8345475 17.1849994,32.5179248 17.519648,29.7474763 C17.742747,27.8635713 18.0773956,26.4229381 18.4120441,24.9823049 C23.6548717,5.69998324 41.6143447,10.0218829 42.3951913,10.2435188 L42.5067408,10.2435188 L42.8413894,10.3543367 L43.6222361,10.3543367 L43.9568846,10.2435188 L44.0684342,10.2435188 C44.8492808,10.0218829 62.8087538,5.81080118 68.2746804,25.2039408 C68.609329,26.5337561 68.9439775,28.0852072 69.1670766,29.9691122 C69.5017251,32.6287428 70.2825718,39.0561833 77.1986421,40.6076345 C77.4217412,40.6076345 82.6645687,41.7158139 82.5530192,48.4757083 C82.1068211,54.9031488 76.529345,57.1195076 76.306246,57.2303256" id="hair-4-copy"></path>
            </g>
        </g>
    </g>
</svg>