<?xml version="1.0" encoding="UTF-8"?>
<svg width="100px" height="100px" viewBox="0 0 100 100" version="1.1" xmlns="http://www.w3.org/2000/svg" xmlns:xlink="http://www.w3.org/1999/xlink">
    <!-- Generator: Sketch 41.2 (35397) - http://www.bohemiancoding.com/sketch -->
    <title>AVATAR</title>
    <desc>Created with Sketch.</desc>
    <defs>
        <path d="M55,18 C58.861523,18 62,14.8670751 62,11.0049709 L62,6.99502908 C62,3.12952356 58.8662663,0 55,0 L55,4 C56.6583302,4 58,5.33986728 58,6.99502908 L58,11.0049709 C58,12.6563491 56.6539679,14 55,14 L55,18 Z" id="path-1"></path>
    </defs>
    <g id="Page-1" stroke="none" stroke-width="1" fill="none" fill-rule="evenodd">
        <g id="AVATAR">
            <path d="M74.2,39.7 L74.2,38.1 C74.2,24.8 63.4,14 50.1,14 C36.8,14 26,24.8 26,38.1 L26,57.7 L26,64.2 C26,66.5 26.8,68.9 28.2,70.7 L36.1,80.8 C36.6,81.4 41.3,87 45.8,87 L54.4,87 C58.9,87 63.6,81.5 64.2,80.8 L72,70.8 C73.4,69 74.2,66.7 74.2,64.3 L74.2,39.7 Z M70.2,64.3 C70.2,65.8 69.7,67.2 68.8,68.3 L61.6,77.5 L58.1,81.5 C57.1,82.5 56.4,83.5 50.1,83.5 C43.8,83.5 43.1,82.5 42.1,81.5 L38.6,77.5 L31.4,68.3 C30.5,67.2 30,65.7 30,64.3 L30,38.1 C30,27 39,18 50.1,18 C61.2,18 70.2,27 70.2,38.1 L70.2,64.3 Z" id="face-border" fill="#D1D1D1"></path>
            <g id="ears" transform="translate(19.000000, 39.000000)">
                <path d="M7,18 C3.13373374,18 0,14.8704764 0,11.0049709 L0,6.99502908 C0,3.13292487 3.13847703,0 7,0 L7,4 C5.34603211,4 4,5.3436509 4,6.99502908 L4,11.0049709 C4,12.6601327 5.34166981,14 7,14 L7,18 Z" id="ear-left" fill="#D1D1D1"></path>
                <mask id="mask-2" fill="white">
                    <use xlink:href="#path-1"></use>
                </mask>
                <use id="ear-right" fill="#D1D1D1" xlink:href="#path-1"></use>
            </g>
            <g id="FACE" transform="translate(27.000000, 34.000000)"></g>
            <g id="HAIR" transform="translate(7.000000, 0.000000)" fill="#7ED321">
                <g id="Hair-3" transform="translate(26.000000, 21.000000)">
                    <circle id="Oval" cx="5.2" cy="4.6" r="1.2"></circle>
                    <circle id="Oval" cx="9.9" cy="4.6" r="1.2"></circle>
                    <circle id="Oval" cx="14.6" cy="4.6" r="1.2"></circle>
                    <circle id="Oval" cx="19.3" cy="4.6" r="1.2"></circle>
                    <circle id="Oval" cx="24" cy="4.6" r="1.2"></circle>
                    <circle id="Oval" cx="28.7" cy="4.6" r="1.2"></circle>
                    <circle id="Oval" cx="5.7" cy="11.2" r="1.2"></circle>
                    <circle id="Oval" cx="10.2" cy="11.2" r="1.2"></circle>
                    <circle id="Oval" cx="1.2" cy="11.2" r="1.2"></circle>
                    <circle id="Oval" cx="14.7" cy="11.2" r="1.2"></circle>
                    <circle id="Oval" cx="19.2" cy="11.2" r="1.2"></circle>
                    <circle id="Oval" cx="23.7" cy="11.2" r="1.2"></circle>
                    <circle id="Oval" cx="28.2" cy="11.2" r="1.2"></circle>
                    <circle id="Oval" cx="32.7" cy="11.2" r="1.2"></circle>
                    <circle id="Oval" cx="8.4" cy="1.2" r="1.2"></circle>
                    <circle id="Oval" cx="12.6" cy="1.2" r="1.2"></circle>
                    <circle id="Oval" cx="16.9" cy="1.2" r="1.2"></circle>
                    <circle id="Oval" cx="21.1" cy="1.2" r="1.2"></circle>
                    <circle id="Oval" cx="25.3" cy="1.2" r="1.2"></circle>
                    <circle id="Oval" cx="7.6" cy="7.9" r="1.2"></circle>
                    <circle id="Oval" cx="12.3" cy="7.9" r="1.2"></circle>
                    <circle id="Oval" cx="2.9" cy="7.9" r="1.2"></circle>
                    <circle id="Oval" cx="17" cy="7.9" r="1.2"></circle>
                    <circle id="Oval" cx="21.7" cy="7.9" r="1.2"></circle>
                    <circle id="Oval" cx="26.4" cy="7.9" r="1.2"></circle>
                    <circle id="Oval" cx="31.1" cy="7.9" r="1.2"></circle>
                </g>
            </g>
        </g>
    </g>
</svg>