<?xml version="1.0" encoding="UTF-8"?>
<svg width="100px" height="100px" viewBox="0 0 100 100" version="1.1" xmlns="http://www.w3.org/2000/svg" xmlns:xlink="http://www.w3.org/1999/xlink">
    <!-- Generator: Sketch 41.2 (35397) - http://www.bohemiancoding.com/sketch -->
    <title>AVATAR</title>
    <desc>Created with Sketch.</desc>
    <defs>
        <path d="M55,18 C58.861523,18 62,14.8670751 62,11.0049709 L62,6.99502908 C62,3.12952356 58.8662663,0 55,0 L55,4 C56.6583302,4 58,5.33986728 58,6.99502908 L58,11.0049709 C58,12.6563491 56.6539679,14 55,14 L55,18 Z" id="path-1"></path>
    </defs>
    <g id="Page-1" stroke="none" stroke-width="1" fill="none" fill-rule="evenodd">
        <g id="AVATAR">
            <path d="M26,39 L26,57.277 L26,63.777 C26,66.077 26.8,68.477 28.2,70.277 L36.1,80.377 C36.6,80.977 41.3,86.577 45.8,86.577 L54.4,86.577 C58.9,86.577 63.6,81.077 64.2,80.377 L72,70.377 C73.4,68.577 74.2,66.277 74.2,63.877 L74.2,39.277 L70.2,39.257 L70.2,63.877 C70.2,65.377 69.7,66.777 68.8,67.877 L61.6,77.077 L58.1,81.077 C57.1,82.077 56.4,83.077 50.1,83.077 C43.8,83.077 43.1,82.077 42.1,81.077 L38.6,77.077 L31.4,67.877 C30.5,66.777 30,65.277 30,63.877 L30,39.05 L26,39 Z" id="face-bottom" fill="#D1D1D1"></path>
            <g id="ears" transform="translate(19.000000, 39.000000)">
                <path d="M7,18 C3.13373374,18 0,14.8704764 0,11.0049709 L0,6.99502908 C0,3.13292487 3.13847703,0 7,0 L7,4 C5.34603211,4 4,5.3436509 4,6.99502908 L4,11.0049709 C4,12.6601327 5.34166981,14 7,14 L7,18 Z" id="ear-left" fill="#D1D1D1"></path>
                <mask id="mask-2" fill="white">
                    <use xlink:href="#path-1"></use>
                </mask>
                <use id="ear-right" fill="#D1D1D1" xlink:href="#path-1"></use>
            </g>
            <g id="FACE" transform="translate(27.000000, 34.000000)"></g>
            <g id="HAIR" transform="translate(7.000000, 0.000000)" fill="#E70067">
                <g id="hair-5-cap" transform="translate(18.000000, 3.000000)">
                    <path d="M24.5652174,0.783529412 C21.6304348,0.783529412 19.1304348,3.17764706 19.1304348,6.11588235 L17.6086957,6.11588235 C8.47826087,6.11588235 0.97826087,13.6247059 0.97826087,22.7658824 L0.97826087,29.8394118 L0.869565217,36.7344706 L4.89130435,34.6276471 C8.15217391,33.7570588 16.6304348,31.6894118 24.8913043,31.6894118 C33.2608696,31.6894118 41.7391304,33.7570588 45,34.6276471 L49.1304348,36.5788529 L49.1304348,29.8394118 L49.1304348,22.7658824 C49.1304348,13.6247059 41.6304348,6.11588235 32.5,6.11588235 L30.9782609,6.11588235 C30.8695652,3.17764706 28.4782609,0.783529412 25.5434783,0.783529412 L24.5652174,0.783529412 Z M24.5652174,4.81 L25.5434783,4.81 C26.3043478,4.81 26.9565217,5.35411765 27.0652174,6.11588235 L23.1521739,6.11588235 C23.1521739,5.35411765 23.8043478,4.81 24.5652174,4.81 Z M18.2608696,10.1423529 L31.6304348,10.1423529 C35,12.1011765 35,17.8688235 34.8913043,22.1129412 C32.0652174,21.5688235 28.9130435,21.2423529 25.4347826,21.2423529 C21.4608696,21.2423529 18.0173913,21.5612059 15,22.1989118 L15,22.2217647 L14.8913043,22.2217647 C14.9271739,22.2141471 14.9630435,22.2065294 15,22.1989118 C15,17.9569706 15.0054348,12.2067353 18.2608696,10.1423529 Z M39.0217391,23.2011765 L39.0217391,22.9835294 L39.0217391,22.1129412 C39.0217391,18.8482353 39.0217391,14.6041176 37.6086957,11.1217647 C41.9565217,13.1894118 45.1086957,17.6511765 45.1086957,22.7658824 L45.1086957,26.3570588 C43.4782609,25.0511765 41.4130435,23.9629412 39.0217391,23.2011765 Z M4.89130435,22.9835294 C4.89130435,17.6511765 8.04347826,13.1894118 12.3913043,11.2305882 C10.9782609,14.7129412 10.9782609,18.9570588 10.9782609,22.2217647 L10.9782609,23.0923529 L10.9782609,23.5276471 C8.47826087,24.3982353 6.41304348,25.4864706 4.89130435,26.7923529 L4.89130435,22.9835294 Z M25.5434783,25.2688235 C33.6956522,25.2688235 40.1086957,27.1188235 43.1521739,29.9482353 C38.8043478,28.9688235 31.9565217,27.6629412 25,27.6629412 C18.2608696,27.6629412 11.6304348,28.86 7.2826087,29.8394118 C10.6521739,27.1188235 17.3913043,25.2688235 25.5434783,25.2688235 Z" id="Clip-4"></path>
                    <path d="M29.5652174,15.2352941 C29.5652174,12.7323529 27.5,10.6647059 25,10.6647059 C22.5,10.6647059 20.4347826,12.7323529 20.4347826,15.2352941 C20.4347826,17.7382353 22.5,19.8058824 25,19.8058824 C27.5,19.8058824 29.5652174,17.7382353 29.5652174,15.2352941 Z M25,16.8676471 C24.1304348,16.8676471 23.3695652,16.1058824 23.3695652,15.2352941 C23.3695652,14.3647059 24.1304348,13.6029412 25,13.6029412 C25.8695652,13.6029412 26.6304348,14.3647059 26.6304348,15.2352941 C26.6304348,16.1058824 25.8695652,16.8676471 25,16.8676471 Z" id="Shape"></path>
                </g>
            </g>
        </g>
    </g>
</svg>