<?xml version="1.0" encoding="UTF-8"?>
<svg width="100px" height="100px" viewBox="0 0 100 100" version="1.1" xmlns="http://www.w3.org/2000/svg" xmlns:xlink="http://www.w3.org/1999/xlink">
    <!-- Generator: Sketch 41.2 (35397) - http://www.bohemiancoding.com/sketch -->
    <title>AVATAR</title>
    <desc>Created with Sketch.</desc>
    <defs>
        <path d="M55,18 C58.861523,18 62,14.8670751 62,11.0049709 L62,6.99502908 C62,3.12952356 58.8662663,0 55,0 L55,4 C56.6583302,4 58,5.33986728 58,6.99502908 L58,11.0049709 C58,12.6563491 56.6539679,14 55,14 L55,18 Z" id="path-1"></path>
    </defs>
    <g id="Page-1" stroke="none" stroke-width="1" fill="none" fill-rule="evenodd">
        <g id="AVATAR">
            <path d="M26,39 L26,57.277 L26,63.777 C26,66.077 26.8,68.477 28.2,70.277 L36.1,80.377 C36.6,80.977 41.3,86.577 45.8,86.577 L54.4,86.577 C58.9,86.577 63.6,81.077 64.2,80.377 L72,70.377 C73.4,68.577 74.2,66.277 74.2,63.877 L74.2,39.277 L70.2,39.257 L70.2,63.877 C70.2,65.377 69.7,66.777 68.8,67.877 L61.6,77.077 L58.1,81.077 C57.1,82.077 56.4,83.077 50.1,83.077 C43.8,83.077 43.1,82.077 42.1,81.077 L38.6,77.077 L31.4,67.877 C30.5,66.777 30,65.277 30,63.877 L30,39.05 L26,39 Z" id="face-bottom" fill="#D1D1D1"></path>
            <g id="ears" transform="translate(19.000000, 39.000000)">
                <path d="M7,18 C3.13373374,18 0,14.8704764 0,11.0049709 L0,6.99502908 C0,3.13292487 3.13847703,0 7,0 L7,4 C5.34603211,4 4,5.3436509 4,6.99502908 L4,11.0049709 C4,12.6601327 5.34166981,14 7,14 L7,18 Z" id="ear-left" fill="#D1D1D1"></path>
                <mask id="mask-2" fill="white">
                    <use xlink:href="#path-1"></use>
                </mask>
                <use id="ear-right" fill="#D1D1D1" xlink:href="#path-1"></use>
            </g>
            <g id="FACE" transform="translate(27.000000, 34.000000)"></g>
            <g id="FEATURE" transform="translate(26.000000, 40.000000)"></g>
            <g id="HAIR" transform="translate(7.000000, -1.000000)" fill="#FF4593">
                <path d="M66.5977225,34.0782769 L66.5977225,28.6433457 C66.5977225,20.6456861 66.2500062,4.53445883 43.9961627,4.53445883 C33.2169573,4.53445883 28.2330236,9.05487511 24.2922388,12.6480265 C19.6560214,16.8207185 17.2220073,19.1388807 7.25413986,12.7639346 C6.67461269,12.4162103 5.86327465,12.3003022 5.28374747,12.6480265 C4.7042203,12.9957508 4.24059856,13.5752914 4.24059856,14.3866482 C4.00878769,22.2683996 6.79051813,37.452362 18.9605888,40.3500648 L23.017279,41.1417171 L23.017279,37.3364539 C23.1331844,35.7137404 23.4809007,33.1637619 25.1035768,31.6569565 C26.4944421,30.3819673 28.8125508,30.1501511 31.8260921,30.9615079 C32.9851464,31.4251403 41.678054,34.0910268 51.1822997,28.0638051 C56.2821388,24.818378 61.2660725,28.4115294 62.7728432,29.8024268 L66.5977225,34.0782769 Z M8.29728878,17.9797996 C18.3810616,23.3115726 22.5536573,19.486605 26.9580638,15.5457293 C30.6670377,12.1843941 34.7237279,8.47533457 43.9961627,8.47533457 C58.9479638,8.47533457 61.9615051,16.1252698 62.5410323,24.818378 C58.9479638,22.7320321 53.9640301,21.4570429 48.9800964,24.7024699 C40.7508105,29.9183349 33.3328627,27.3683565 33.1010518,27.2524483 C32.9851464,27.2524483 32.9851464,27.2524483 32.869241,27.1365402 C28.4648345,25.9774591 24.9876714,26.5569997 22.5536573,28.6433457 C20.1196431,30.7296916 19.3083051,33.9751187 19.0764942,36.2932809 C10.8472083,33.6273944 8.87681595,23.4274807 8.29728878,17.9797996 L8.29728878,17.9797996 Z" id="hair12"></path>
            </g>
        </g>
    </g>
</svg>