<?xml version="1.0" encoding="UTF-8"?>
<svg width="100px" height="100px" viewBox="0 0 100 100" version="1.1" xmlns="http://www.w3.org/2000/svg" xmlns:xlink="http://www.w3.org/1999/xlink">
    <!-- Generator: Sketch 41.2 (35397) - http://www.bohemiancoding.com/sketch -->
    <title>AVATAR</title>
    <desc>Created with Sketch.</desc>
    <defs></defs>
    <g id="Page-1" stroke="none" stroke-width="1" fill="none" fill-rule="evenodd">
        <g id="AVATAR">
            <path d="M26,39 L26,57.277 L26,63.777 C26,66.077 26.8,68.477 28.2,70.277 L36.1,80.377 C36.6,80.977 41.3,86.577 45.8,86.577 L54.4,86.577 C58.9,86.577 63.6,81.077 64.2,80.377 L72,70.377 C73.4,68.577 74.2,66.277 74.2,63.877 L74.2,39.277 L70.2,39.257 L70.2,63.877 C70.2,65.377 69.7,66.777 68.8,67.877 L61.6,77.077 L58.1,81.077 C57.1,82.077 56.4,83.077 50.1,83.077 C43.8,83.077 43.1,82.077 42.1,81.077 L38.6,77.077 L31.4,67.877 C30.5,66.777 30,65.277 30,63.877 L30,39.05 L26,39 Z" id="face-bottom" fill="#D1D1D1"></path>
            <g id="FACE" transform="translate(27.000000, 34.000000)"></g>
            <g id="HAIR" transform="translate(7.000000, 0.000000)" fill="#95FF73">
                <path d="M66.7049706,24.1080451 C66.7049706,23.5136032 66.4671938,22.9191613 65.9916403,22.4436077 C65.5160868,22.0869426 64.9216448,21.8491658 64.3272029,21.9680542 C64.3272029,21.9680542 59.096114,22.8002729 43.7595126,24.2269335 C26.7584737,25.8913708 18.5551752,32.6680087 18.5551752,45.151289 L18.5551752,64.2923187 C18.5551752,66.6700864 19.3873939,68.9289657 20.8140545,70.8311798 L28.6606878,80.8178041 C28.8984646,81.1744692 29.6117949,81.8877995 30.4440136,82.7200182 L20.338501,82.7200182 L20.338501,78.6778131 C20.338501,77.8455945 19.6251707,77.1322642 18.792952,77.1322642 C17.9607333,77.1322642 17.247403,77.8455945 17.247403,78.6778131 L17.247403,82.7200182 L14.9885237,82.7200182 L14.9885237,72.0200637 C14.9885237,71.187845 14.2751934,70.4745147 13.4429747,70.4745147 C12.6107561,70.4745147 11.8974258,71.187845 11.8974258,72.0200637 L11.8974258,82.7200182 L8.6874394,82.7200182 L8.6874394,35.1646648 C8.6874394,17.0936305 23.3107106,4.47035928 41.3817449,4.47035928 C59.4527792,4.47035928 74.0760504,17.0936305 74.0760504,35.2835531 C73.8382736,44.2001819 71.5793943,50.5012662 66.7049706,55.2568016 L66.7049706,24.1080451 Z M4.16968083,35.2835531 L4.16968083,84.8600091 C4.16968083,86.0488929 5.1207879,87 6.30967173,87 L43.1567485,87 L36.5727098,82.1576761 C35.7048246,81.6892559 34.7703619,80.9771145 33.9084211,80.1983956 C33.1035467,79.467232 32.394972,78.7289352 31.8706742,78.0833712 L24.1429293,68.096747 C23.3107106,67.0267516 22.8351571,65.600091 22.8351571,64.1734304 L22.8351571,55.2568016 C22.8399126,54.0441401 22.8351571,42.1850238 22.8351571,42.2979678 C23.9051525,33.9757809 30.4440136,29.6957991 43.8784009,28.5069153 C53.7461368,27.5558082 59.3338908,26.9613663 62.187212,26.6047011 L62.187212,42.1885905 L62.4107222,55.1379132 L62.4249888,56.981872 L66.7049706,60.8445556 C66.823859,60.8445556 66.9427474,60.7256672 66.9427474,60.6067788 C74.5516039,54.7812481 77.999367,46.696838 77.999367,35.1646648 C78.1182554,14.8347512 61.4738817,0.309265851 41.1439681,0.309265851 C20.8140545,0.309265851 4.16968083,14.8347512 4.16968083,35.2835531 Z" id="hair-2"></path>
            </g>
        </g>
    </g>
</svg>