<?xml version="1.0" encoding="UTF-8"?>
<svg width="100px" height="100px" viewBox="0 0 100 100" version="1.1" xmlns="http://www.w3.org/2000/svg" xmlns:xlink="http://www.w3.org/1999/xlink">
    <!-- Generator: Sketch 41.2 (35397) - http://www.bohemiancoding.com/sketch -->
    <title>AVATAR</title>
    <desc>Created with Sketch.</desc>
    <defs></defs>
    <g id="Page-1" stroke="none" stroke-width="1" fill="none" fill-rule="evenodd">
        <g id="AVATAR">
            <g id="FACE" transform="translate(27.000000, 34.000000)"></g>
            <g id="FEATURE" transform="translate(26.000000, 40.000000)"></g>
            <g id="HAIR" transform="translate(7.000000, -1.000000)" fill="#000000">
                <path d="M74,56.9879518 C74,53.0843373 70.9756098,49.8313253 67.087108,49.6144578 L67.087108,40.5060241 C67.087108,31.939759 62.5505226,24.3493976 55.8536585,20.0120482 L55.8536585,19.9036145 C55.8536585,12.746988 50.1289199,7 43,7 C35.8710801,7 30.1463415,12.8554217 30.1463415,20.0120482 L30.1463415,20.1204819 C23.3414634,24.4578313 18.912892,31.939759 18.912892,40.6144578 L18.912892,49.7228916 C15.1324042,49.939759 12,53.1927711 12,57.0963855 C12,61 15.0243902,64.253012 18.912892,64.4698795 C19.1289199,67.6144578 20.2090592,70.6506024 22.1533101,73.1445783 L28.9581882,81.8192771 C29.8222997,82.9036145 34.358885,88 38.6794425,88 L47.3205575,88 C51.7491289,88 56.2857143,82.7951807 57.1498258,81.7108434 L63.8466899,73.0361446 C65.7909408,70.5421687 66.8710801,67.5060241 67.087108,64.3614458 C70.9756098,64.1445783 74,61 74,56.9879518 Z M43,11.4457831 C46.9965157,11.4457831 50.3449477,14.1566265 51.3170732,17.8433735 C48.7247387,16.8674699 45.9163763,16.3253012 43,16.3253012 C40.0836237,16.3253012 37.2752613,16.8674699 34.6829268,17.8433735 C35.6550523,14.1566265 39.0034843,11.4457831 43,11.4457831 Z M43,20.6626506 C50.3449477,20.6626506 56.825784,24.6746988 60.174216,30.746988 C59.2020906,31.939759 58.0139373,32.6987952 56.6097561,33.0240964 C51.7491289,34 45.8083624,29.2289157 45.7003484,29.2289157 C45.2682927,28.9036145 44.8362369,28.7951807 44.2961672,28.9036145 C43.8641115,29.0120482 43.4320557,29.3373494 43.2160279,29.7710843 C37.7073171,41.5903614 27.2299652,40.8313253 23.2334495,39.9638554 C23.5574913,29.3373494 32.3066202,20.6626506 43,20.6626506 Z M16.3205575,56.9879518 C16.3205575,55.4698795 17.4006969,54.1686747 18.912892,53.9518072 L18.912892,60.0240964 C17.4006969,59.8072289 16.3205575,58.6144578 16.3205575,56.9879518 Z M62.8745645,63.3855422 C62.8745645,65.8795181 62.010453,68.373494 60.4982578,70.4337349 L53.8013937,79 C52.1811847,80.9518072 49.1567944,83.6626506 47.3205575,83.6626506 L38.6794425,83.6626506 C36.9512195,83.6626506 33.8188153,80.8433735 32.3066202,79.1084337 L25.6097561,70.4337349 C24.097561,68.4819277 23.2334495,65.9879518 23.2334495,63.3855422 L23.2334495,43.2168675 C24.3135889,43.4337349 25.71777,43.5421687 27.2299652,43.5421687 C32.738676,43.5421687 40.4076655,41.6987952 45.4843206,32.8072289 C47.9686411,34.4337349 52.8292683,37.0361446 57.4738676,36.1686747 C59.0940767,35.8433735 60.6062718,35.0843373 61.7944251,33.8915663 C62.5505226,35.9518072 62.9825784,38.2289157 62.9825784,40.6144578 L62.9825784,63.3855422 L62.8745645,63.3855422 Z M67.087108,60.1325301 L67.087108,54.060241 C68.5993031,54.2771084 69.6794425,55.5783133 69.6794425,57.0963855 C69.6794425,58.6144578 68.5993031,59.8072289 67.087108,60.1325301 Z" id="hair-16"></path>
            </g>
        </g>
    </g>
</svg>