<?xml version="1.0" encoding="UTF-8"?>
<svg width="100px" height="100px" viewBox="0 0 100 100" version="1.1" xmlns="http://www.w3.org/2000/svg" xmlns:xlink="http://www.w3.org/1999/xlink">
    <!-- Generator: Sketch 41.2 (35397) - http://www.bohemiancoding.com/sketch -->
    <title>AVATAR</title>
    <desc>Created with Sketch.</desc>
    <defs></defs>
    <g id="Page-1" stroke="none" stroke-width="1" fill="none" fill-rule="evenodd">
        <g id="AVATAR">
            <g id="FACE" transform="translate(27.000000, 34.000000)"></g>
            <g id="FEATURE" transform="translate(26.000000, 40.000000)"></g>
            <g id="HAIR" transform="translate(7.000000, -1.000000)" fill="#000000">
                <g id="hair-14" transform="translate(11.000000, 9.000000)">
                    <path d="M62.4375,34.3421053 C62.4375,31.9381579 61.2,29.7631579 59.4,28.6184211 C59.5125,28.3894737 59.625,28.0460526 59.625,27.7026316 C59.625,12.3631579 47.5875,0.686842105 31.6125,0.686842105 C15.6375,0.686842105 3.6,12.2486842 3.6,27.5881579 C3.6,27.9315789 3.7125,28.1605263 3.825,28.5039474 C1.9125,29.7631579 0.675,31.9381579 0.675,34.3421053 L0.675,38.8065789 C0.675,40.6381579 1.35,42.2407895 2.475,43.5 L2.475,43.7289474 L2.475,84.3671053 C2.475,85.5118421 3.375,86.4276316 4.5,86.4276316 L22.8375,86.4276316 C23.9625,86.4276316 24.8625,85.5118421 24.8625,84.3671053 L24.8625,78.0710526 C25.65,78.4144737 26.55,78.6434211 27.3375,78.6434211 L35.8875,78.6434211 C36.675,78.6434211 37.575,78.4144737 38.3625,78.0710526 L38.3625,84.3671053 C38.3625,85.5118421 39.2625,86.4276316 40.3875,86.4276316 L58.725,86.4276316 C59.85,86.4276316 60.75,85.5118421 60.75,84.3671053 L60.75,43.7289474 L60.75,43.5 C61.875,42.2407895 62.55,40.6381579 62.55,38.8065789 L62.55,34.3421053 L62.4375,34.3421053 Z M55.575,31.4802632 L55.575,31.4802632 C57.15,31.4802632 58.3875,32.7394737 58.3875,34.3421053 L58.3875,38.8065789 C58.3875,40.4092105 57.15,41.6684211 55.575,41.6684211 L55.575,41.6684211 L55.575,31.4802632 Z M31.6125,4.69342105 C43.875,4.69342105 53.4375,12.5921053 55.35,23.6960526 L46.6875,23.6960526 L41.4,18.3157895 C41.0625,17.9723684 40.5,17.7434211 39.9375,17.7434211 C39.375,17.7434211 38.8125,17.9723684 38.475,18.4302632 L33.75,23.6960526 L31.8375,23.6960526 L31.8375,17.8578947 C31.8375,17.0565789 31.1625,16.3697368 30.375,16.3697368 C29.5875,16.3697368 28.9125,17.0565789 28.9125,17.8578947 L28.9125,23.6960526 L24.525,23.6960526 L24.525,13.05 C24.525,12.2486842 23.85,11.5618421 23.0625,11.5618421 C22.275,11.5618421 21.6,12.2486842 21.6,13.05 L21.6,23.6960526 L7.875,23.6960526 C9.7875,12.5921053 19.35,4.69342105 31.6125,4.69342105 Z M4.6125,38.8065789 L4.6125,34.3421053 C4.6125,32.7394737 5.85,31.4802632 7.425,31.4802632 L7.425,31.4802632 L7.425,41.6684211 L7.425,41.6684211 C5.85,41.6684211 4.6125,40.4092105 4.6125,38.8065789 Z M20.7,82.3065789 L17.8875,82.3065789 L17.8875,76.5828947 C17.8875,75.7815789 17.2125,75.0947368 16.425,75.0947368 C15.6375,75.0947368 14.9625,75.7815789 14.9625,76.5828947 L14.9625,82.3065789 L12.375,82.3065789 L12.375,68.1118421 C12.375,67.3105263 11.7,66.6236842 10.9125,66.6236842 C10.125,66.6236842 9.45,67.3105263 9.45,68.1118421 L9.45,82.3065789 L6.6375,82.3065789 L6.6375,45.675 C6.975,45.675 7.3125,45.7894737 7.65,45.7894737 L7.65,45.7894737 L7.65,55.5197368 C7.65,57.9236842 8.4375,60.2131579 9.9,62.1592105 L17.775,72.3473684 C18,72.6907895 19.2375,74.0644737 20.925,75.5526316 L20.925,82.3065789 L20.7,82.3065789 Z M27.225,74.5223684 C25.425,74.5223684 22.275,71.6605263 20.7,69.8289474 L12.825,59.5263158 C11.925,58.3815789 11.475,56.8934211 11.475,55.4052632 L11.475,27.8171053 L34.65,27.8171053 C35.2125,27.8171053 35.775,27.5881579 36.1125,27.1302632 L40.05,22.6657895 L44.4375,27.1302632 C44.775,27.4736842 45.3375,27.7026316 45.9,27.7026316 L51.6375,27.7026316 L51.6375,55.4052632 C51.6375,56.8934211 51.1875,58.3815789 50.2875,59.5263158 L42.525,69.7144737 C40.8375,71.6605263 37.8,74.5223684 35.8875,74.5223684 L27.225,74.5223684 Z M53.775,82.3065789 L53.775,75.2092105 C53.775,74.4078947 53.1,73.7210526 52.3125,73.7210526 C51.525,73.7210526 50.85,74.4078947 50.85,75.2092105 L50.85,82.3065789 L48.2625,82.3065789 L48.2625,76.5828947 C48.2625,75.7815789 47.5875,75.0947368 46.8,75.0947368 C46.0125,75.0947368 45.3375,75.7815789 45.3375,76.5828947 L45.3375,82.3065789 L42.525,82.3065789 L42.525,75.5526316 C44.2125,74.0644737 45.5625,72.5763158 45.7875,72.2328947 L53.55,62.0447368 C55.0125,60.2131579 55.8,57.8092105 55.8,55.4052632 L55.8,45.7894737 L55.8,45.7894737 C56.1375,45.7894737 56.475,45.7894737 56.8125,45.675 L56.8125,82.3065789 L53.775,82.3065789 Z" id="Shape"></path>
                    <path d="M52.2,66.9671053 C51.4125,66.9671053 50.7375,67.6539474 50.7375,68.4552632 L50.7375,70.7447368 C50.7375,71.5460526 51.4125,72.2328947 52.2,72.2328947 C52.9875,72.2328947 53.6625,71.5460526 53.6625,70.7447368 L53.6625,68.4552632 C53.775,67.6539474 53.1,66.9671053 52.2,66.9671053 Z" id="Shape"></path>
                </g>
            </g>
        </g>
    </g>
</svg>