<?xml version="1.0" encoding="UTF-8"?>
<svg width="100px" height="100px" viewBox="0 0 100 100" version="1.1" xmlns="http://www.w3.org/2000/svg" xmlns:xlink="http://www.w3.org/1999/xlink">
    <!-- Generator: Sketch 41.2 (35397) - http://www.bohemiancoding.com/sketch -->
    <title>AVATAR</title>
    <desc>Created with Sketch.</desc>
    <defs></defs>
    <g id="Page-1" stroke="none" stroke-width="1" fill="none" fill-rule="evenodd">
        <g id="AVATAR">
            <g id="FACE" transform="translate(27.000000, 34.000000)"></g>
            <g id="FEATURE" transform="translate(26.000000, 40.000000)"></g>
            <g id="HAIR" transform="translate(7.000000, -1.000000)"></g>
            <path d="M80.7468637,52.9826114 C79.5772165,51.0594232 77.6632484,49.5636101 75.323954,49.0293911 C79.2582218,39.6271374 78.8328955,29.2632896 74.0479752,21.0363177 C69.1567233,12.7025019 60.3312036,7.89453125 50.0170421,7.89453125 C33.8546445,7.89453125 20.5631992,16.9762536 14.289637,32.148072 C7.90974324,47.6404218 10.9933586,65.4833351 21.9455095,76.4882456 C22.3708358,76.9156208 22.9024936,77.1293084 23.4341514,77.1293084 C23.6468145,77.1293084 23.8594776,77.1293084 24.0721408,77.0224646 C24.8164617,76.808777 25.3481195,76.1677143 25.5607826,75.4198077 C25.5607826,75.3129639 26.0924405,72.4281816 27.2620876,68.2612737 C27.7937455,69.9707743 28.644398,71.5734312 29.7077136,72.9624005 L36.3002705,81.5099039 C37.150923,82.5783418 41.6168486,87.6 45.8701111,87.6 L54.2703046,87.6 C58.6298986,87.6 63.0958243,82.471498 63.9464768,81.4030601 L70.5390337,72.8555567 C72.0276755,70.9323685 73.0909912,68.581805 73.5163174,66.2312416 C74.9921995,66.3915073 78.0885746,64.9491161 78.0885746,64.9491161 C80.427869,63.3464592 82.048362,60.6753644 82.0228424,57.5768945 C82.0026394,55.1729092 80.7468637,52.9826114 80.7468637,52.9826114 L80.7468637,52.9826114 Z M77.7695799,57.6837383 C77.7695799,60.0343017 75.9619434,61.9574899 73.622649,62.1711775 L73.622649,53.0894552 C74.7922962,53.196299 75.8556118,53.730518 76.5999327,54.4784245 C76.5999327,54.4784245 77.0241957,55.0788866 77.36552,55.9005154 C77.705781,56.7210757 77.7695799,57.6837383 77.7695799,57.6837383 L77.7695799,57.6837383 Z M69.6883812,59.6069265 L69.6883812,63.5601468 C69.3693865,66.017554 68.6250655,68.4749613 67.0300921,70.5049933 L60.5438668,78.9456529 C58.9488933,80.8688411 55.9716096,83.5399359 54.163973,83.5399359 L45.7637796,83.5399359 C44.0624746,83.5399359 40.9788592,80.7619973 39.4902174,79.0524966 L32.8976605,70.5049933 C31.4090186,68.581805 30.5583661,66.1243978 30.5583661,63.5601468 C30.5583661,62.7053965 30.5583661,61.9574899 30.6646977,61.1027396 L30.9836923,57.3632069 C31.9406764,52.8757676 33.748313,48.8157035 36.0876073,45.1830146 L38.3205702,42.1913884 C45.9764427,32.3617596 57.0349252,26.5921948 60.4375352,24.989538 C65.8604449,28.8359145 69.0503918,37.9176368 69.3693865,45.503546 L69.6883812,59.6069265 Z M22.0518411,70.5049933 C14.6086317,60.6753644 12.9073267,46.4651401 18.0112417,33.8575727 C23.6468145,20.2884111 35.5559495,12.1682829 49.9107105,12.1682829 C58.8425618,12.1682829 66.1794396,16.1215032 70.3263705,23.1731935 C73.5163174,28.5153831 74.3669699,35.0328544 73.1973227,41.4434819 C72.0276755,33.3233537 68.3060708,24.5621628 61.6071824,20.7157863 C61.0755246,20.3952549 60.3312036,20.2884111 59.6932143,20.6089425 C59.3742196,20.7157863 51.2930208,24.2416314 42.9991589,31.1864779 C37.8952439,35.5670733 33.8546445,40.2682002 31.0900239,45.3967022 L30.9836923,45.503546 C26.5177667,53.5168304 23.540483,64.6285847 22.0518411,70.5049933 L22.0518411,70.5049933 Z" id="hair20" fill="#FF2E5C"></path>
        </g>
    </g>
</svg>