<?xml version="1.0" encoding="UTF-8"?>
<svg width="100px" height="100px" viewBox="0 0 100 100" version="1.1" xmlns="http://www.w3.org/2000/svg" xmlns:xlink="http://www.w3.org/1999/xlink">
    <!-- Generator: Sketch 41.2 (35397) - http://www.bohemiancoding.com/sketch -->
    <title>AVATAR</title>
    <desc>Created with Sketch.</desc>
    <defs></defs>
    <g id="Page-1" stroke="none" stroke-width="1" fill="none" fill-rule="evenodd">
        <g id="AVATAR">
            <path d="M26,39 L26,57.277 L26,63.777 C26,66.077 26.8,68.477 28.2,70.277 L36.1,80.377 C36.6,80.977 41.3,86.577 45.8,86.577 L54.4,86.577 C58.9,86.577 63.6,81.077 64.2,80.377 L72,70.377 C73.4,68.577 74.2,66.277 74.2,63.877 L74.2,39.277 L70.2,39.257 L70.2,63.877 C70.2,65.377 69.7,66.777 68.8,67.877 L61.6,77.077 L58.1,81.077 C57.1,82.077 56.4,83.077 50.1,83.077 C43.8,83.077 43.1,82.077 42.1,81.077 L38.6,77.077 L31.4,67.877 C30.5,66.777 30,65.277 30,63.877 L30,39.05 L26,39 Z" id="face-bottom" fill="#D1D1D1"></path>
            <g id="FACE" transform="translate(27.000000, 34.000000)"></g>
            <g id="HAIR" transform="translate(7.000000, 0.000000)" fill="#FF8B17">
                <path d="M61.6878,63.0927 C61.6878,65.3877 60.8778,67.6817 59.5278,69.4367 L53.0488,77.6707 L51.4288,86.0397 L51.4288,96.8387 C51.4288,98.3237 52.6438,99.4037 53.9938,99.4037 L77.6158,99.4037 C82.2058,99.4037 85.8498,95.7587 85.8498,91.1697 L85.8498,44.4647 C85.8498,24.3527 69.5168,0.9997 48.4598,0.9997 C46.2998,0.9997 44.4098,1.8097 42.9248,3.1597 C41.4398,1.8097 39.5508,0.9997 37.3908,0.9997 C16.7378,0.9997 -0.0002,17.7377 -0.0002,38.3907 L-0.0002,91.1697 C-0.0002,95.6237 3.6448,99.4037 8.2338,99.4037 L31.8558,99.4037 C33.3408,99.4037 34.4208,98.1887 34.4208,96.8387 L34.4208,86.0397 L33.0708,77.8057 L26.5918,69.4367 C25.2418,67.6817 24.4318,65.3877 24.4318,63.0927 L24.1618,59.0427 L24.1618,40.4157 L24.0268,36.6357 L24.0268,28.1317 C24.0268,27.0517 24.7018,26.3767 25.1068,26.2417 C25.3768,26.1067 25.7818,25.8367 26.3218,25.8367 C26.5918,25.8367 26.9968,25.8367 27.4018,26.1067 C36.7158,30.5617 48.8638,30.5617 58.3128,26.1067 C59.3928,25.5667 60.2028,25.9717 60.6078,26.2417 C60.8778,26.3767 61.6878,27.0517 61.6878,28.1317 L61.6878,36.5007 L61.5528,40.2807 L61.5528,58.9077 L61.6878,63.0927 Z M80.7208,91.1697 C80.7208,92.7897 79.3708,94.1387 77.7508,94.1387 L56.6938,94.1387 L56.6938,81.9907 L56.6938,81.5857 C56.8288,81.3157 56.9638,81.1807 57.0988,81.0457 L63.5778,72.6767 C65.7378,69.9767 66.9518,66.4677 66.9518,62.9577 L66.9518,27.9967 C66.9518,25.4317 65.6028,23.1377 63.4428,21.6527 C61.2828,20.3027 58.5828,20.1677 56.1538,21.2477 C48.1898,25.0267 37.7958,25.0267 29.8318,21.2477 C27.5368,20.1677 24.7018,20.3027 22.5428,21.6527 C20.3828,23.0027 19.0328,25.4317 19.0328,27.9967 L19.0328,62.9577 C19.0328,66.4677 20.2478,69.8417 22.4078,72.6767 L29.0218,81.0457 C29.1568,81.1807 29.1568,81.3157 29.2918,81.4507 L29.2918,94.1387 L8.2338,94.1387 C6.6138,94.1387 5.2648,92.7897 5.2648,91.1697 L5.2648,38.3907 C5.2648,20.5727 19.7078,6.1297 37.5258,6.1297 C39.0108,6.1297 40.2248,7.2097 40.4948,8.6937 C40.6298,10.0437 41.7098,10.9887 43.0598,10.9887 C44.4098,10.9887 45.4898,10.0437 45.6248,8.6937 C45.8948,7.2097 47.1098,6.1297 48.5948,6.1297 C66.2768,6.1297 80.7208,27.1867 80.7208,44.4647 L80.7208,91.1697 Z" id="Hair-7"></path>
            </g>
        </g>
    </g>
</svg>