<?xml version="1.0" encoding="UTF-8"?>
<svg width="100px" height="100px" viewBox="0 0 100 100" version="1.1" xmlns="http://www.w3.org/2000/svg" xmlns:xlink="http://www.w3.org/1999/xlink">
    <!-- Generator: Sketch 41.2 (35397) - http://www.bohemiancoding.com/sketch -->
    <title>AVATAR</title>
    <desc>Created with Sketch.</desc>
    <defs></defs>
    <g id="Page-1" stroke="none" stroke-width="1" fill="none" fill-rule="evenodd">
        <g id="AVATAR">
            <g id="FACE" transform="translate(27.000000, 34.000000)"></g>
            <g id="FEATURE" transform="translate(26.000000, 40.000000)"></g>
            <g id="HAIR" transform="translate(7.000000, -1.000000)" fill="#000000">
                <path d="M69.1453287,41.7844712 C70.83391,39.352075 71.6782007,36.1793842 71.467128,33.0066934 C71.2560554,30.0455154 69.9896194,27.4016064 68.0899654,25.7095047 C67.8788927,21.4792503 66.0847751,17.4605087 63.0242215,14.3935743 C59.5415225,10.9036145 54.6868512,9 49.3044983,9 C42.3391003,9 37.1678201,11.1151272 33.4740484,15.3453815 C30.5190311,15.5568942 21.5484429,16.9317269 17.6435986,23.5943775 C14.899654,28.2476573 15.3217993,34.2757697 18.9100346,41.4672021 C15.6384083,41.8902276 13,44.7456493 13,48.1298527 L13,52.4658635 C13,56.167336 15.9550173,59.2342704 19.7543253,59.2342704 L19.7543253,59.2342704 L19.7543253,65.6854083 C19.7543253,68.0120482 20.4930796,70.2329317 21.9705882,72.0307898 L29.6747405,81.9718876 C30.2024221,82.6064257 34.8460208,88 39.2785467,88 L47.7214533,88 C52.0484429,88 56.6920415,82.6064257 57.3252595,81.8661312 L65.0294118,72.0307898 C66.4013841,70.2329317 67.2456747,67.9062918 67.2456747,65.5796519 L67.2456747,59.1285141 L67.2456747,59.1285141 C70.9394464,59.1285141 74,56.167336 74,52.3601071 L74,48.0240964 C73.8944637,45.1686747 71.8892734,42.6305221 69.1453287,41.7844712 Z M21.1262976,25.7095047 C24.6089965,19.7871486 34.5294118,19.3641232 34.6349481,19.3641232 C35.1626298,19.3641232 35.7958478,19.0468541 36.1124567,18.6238286 C39.067474,14.8165997 43.2889273,13.0187416 49.4100346,13.0187416 C54.8979239,13.0187416 58.3806228,15.3453815 60.2802768,17.248996 C62.8131488,19.7871486 64.1851211,23.1713521 64.1851211,26.7670683 C64.1851211,27.4016064 64.5017301,28.0361446 65.0294118,28.3534137 C66.5069204,29.3052209 67.3512111,31.103079 67.5622837,33.3239625 C67.6678201,35.227577 67.2456747,37.1311914 66.4013841,38.7175368 C63.7629758,28.5649264 54.4757785,21.0562249 43.5,21.0562249 C42.6557093,21.0562249 42.0224913,21.5850067 41.7058824,22.3253012 C38.3287197,30.5742972 32.1020761,32.3721553 27.3529412,32.583668 C24.6089965,32.6894244 22.2871972,34.1700134 21.0207612,36.2851406 C19.5432526,31.8433735 19.5432526,28.3534137 21.1262976,25.7095047 Z M19.8598616,55.3212851 C18.3823529,55.3212851 17.115917,54.0522088 17.115917,52.5716198 L17.115917,48.2356091 C17.115917,46.7550201 18.3823529,45.4859438 19.8598616,45.4859438 L19.8598616,45.4859438 L19.8598616,55.3212851 L19.8598616,55.3212851 Z M63.2352941,65.6854083 C63.2352941,67.1659973 62.7076125,68.54083 61.8633218,69.7041499 L54.2647059,79.5394913 C52.6816609,81.4431058 49.6211073,84.1927711 47.7214533,84.1927711 L39.2785467,84.1927711 C37.4844291,84.1927711 34.3183391,81.4431058 32.7352941,79.6452477 L25.1366782,69.8099063 C24.2923875,68.6465863 23.7647059,67.2717537 23.7647059,65.7911647 L23.7647059,40.4096386 C23.7647059,38.2945114 25.4532872,36.6024096 27.4584775,36.6024096 C31.9965398,36.4966533 40.2283737,34.6987952 44.766436,25.1807229 C55.1089965,25.815261 63.2352941,34.4872825 63.2352941,44.957162 L63.2352941,65.6854083 L63.2352941,65.6854083 Z M69.9896194,52.4658635 C69.9896194,53.9464525 68.7231834,55.2155288 67.2456747,55.2155288 L67.2456747,55.2155288 L67.2456747,45.3801874 L67.2456747,45.3801874 C68.7231834,45.3801874 69.9896194,46.6492637 69.9896194,48.1298527 L69.9896194,52.4658635 Z" id="hair-18"></path>
            </g>
        </g>
    </g>
</svg>