<?xml version="1.0" encoding="UTF-8"?>
<svg width="100px" height="100px" viewBox="0 0 100 100" version="1.1" xmlns="http://www.w3.org/2000/svg" xmlns:xlink="http://www.w3.org/1999/xlink">
    <!-- Generator: Sketch 41.2 (35397) - http://www.bohemiancoding.com/sketch -->
    <title>AVATAR</title>
    <desc>Created with Sketch.</desc>
    <defs></defs>
    <g id="Page-1" stroke="none" stroke-width="1" fill="none" fill-rule="evenodd">
        <g id="AVATAR">
            <path d="M26,39 L26,57.277 L26,63.777 C26,66.077 26.8,68.477 28.2,70.277 L36.1,80.377 C36.6,80.977 41.3,86.577 45.8,86.577 L54.4,86.577 C58.9,86.577 63.6,81.077 64.2,80.377 L72,70.377 C73.4,68.577 74.2,66.277 74.2,63.877 L74.2,39.277 L70.2,39.257 L70.2,63.877 C70.2,65.377 69.7,66.777 68.8,67.877 L61.6,77.077 L58.1,81.077 C57.1,82.077 56.4,83.077 50.1,83.077 C43.8,83.077 43.1,82.077 42.1,81.077 L38.6,77.077 L31.4,67.877 C30.5,66.777 30,65.277 30,63.877 L30,39.05 L26,39 Z" id="face-bottom" fill="#D1D1D1"></path>
            <g id="FACE" transform="translate(27.000000, 34.000000)"></g>
            <g id="FEATURE" transform="translate(26.000000, 40.000000)"></g>
            <g id="HAIR" transform="translate(7.000000, -1.000000)" fill="#9012FE">
                <path d="M23.408677,69.6288456 L23.408677,34.9143528 C23.408677,33.9466339 23.8945798,33.09988 24.6234338,32.6160206 C25.1093365,32.3740909 25.5952393,32.1321612 26.081142,32.1321612 C26.445569,32.1321612 26.9314717,32.253126 27.2958988,32.3740909 C36.8924773,36.9707552 49.4044722,36.9707552 59.0010508,32.3740909 C59.8513805,31.8902315 60.823186,32.0111963 61.6735157,32.4950557 C62.5238454,32.9789151 62.8882725,33.8256691 62.8882725,34.7933879 L62.8882725,69.5078808 L66.7754942,69.1474055 C76.2505971,61.7685496 81.7170026,50.155924 81.4740513,38.0594389 C81.3525756,27.8983914 77.1009268,18.463133 69.6909105,11.3262069 C62.2808941,4.31024551 52.5628398,0.560335132 42.2374072,0.802264834 C21.1006392,1.28612424 4.33699556,18.9469925 4.82289827,39.9948765 C5.06584963,48.3414512 7.98126591,56.3251313 13.0832444,62.7362684 C13.3261958,62.9781981 13.5691471,63.3410927 13.8120985,63.5830224 C15.512758,65.51846 17.3348931,67.3329328 19.278504,68.9054758 L23.408677,69.6288456 Z M18.7185011,61.31977 C16.4797044,61.2822709 13.414873,54.9158908 12.111439,52.2123264 C10.8080049,49.508762 9.56044973,44.2286463 9.43897405,39.8739116 C8.95307134,21.3662895 23.7731041,6.00375342 42.3588829,5.51989401 C51.348083,5.27796431 59.9728562,8.54401528 66.4110672,14.7132227 C72.9707538,20.8824301 76.6150241,29.2290048 76.8579755,38.1804037 C76.9794512,43.2609275 76.0076457,48.0995215 74.0640349,52.4542561 C73.0885852,54.6630743 70.2290477,61.1637254 67.5043483,61.1637254 L67.5043483,47.2527675 L67.5043483,34.9143528 C67.5043483,32.3740909 66.1681158,30.0757587 64.1030293,28.7451454 C61.9164671,27.414532 59.2440021,27.2935672 56.9359642,28.3822508 C48.5541424,32.3740909 37.6213314,32.3740909 29.2395096,28.3822508 C26.9314717,27.2935672 24.2590068,27.414532 22.0724446,28.7451454 C19.8858824,30.0757587 18.6711256,32.3740909 18.6711256,34.9143528 L18.6711256,47.2527675 L18.7185011,61.31977 Z" id="hair10"></path>
            </g>
        </g>
    </g>
</svg>