<?xml version="1.0" encoding="UTF-8"?>
<svg width="100px" height="100px" viewBox="0 0 100 100" version="1.1" xmlns="http://www.w3.org/2000/svg" xmlns:xlink="http://www.w3.org/1999/xlink">
    <!-- Generator: Sketch 41.2 (35397) - http://www.bohemiancoding.com/sketch -->
    <title>AVATAR</title>
    <desc>Created with Sketch.</desc>
    <defs></defs>
    <g id="Page-1" stroke="none" stroke-width="1" fill="none" fill-rule="evenodd">
        <g id="AVATAR">
            <g id="FACE" transform="translate(27.000000, 34.000000)"></g>
            <g id="FEATURE" transform="translate(26.000000, 40.000000)"></g>
            <g id="HAIR" transform="translate(7.000000, -1.000000)" fill="#2EC1FF">
                <path d="M75.0888543,89.610516 C72.2400712,87.7636652 71.1007665,85.4538011 71.5573223,82.6830047 C72.0128357,80.0277015 73.3804184,77.4878915 75.3171322,75.4100544 C79.6460734,70.9068599 81.8110651,65.8272399 81.5827872,60.4000999 C81.3555517,53.4736291 77.4810816,47.2390771 73.6076539,43.5443351 C73.6076539,34.7699731 70.1897396,26.2265975 64.1513202,19.9920455 C58.3411786,13.9884799 50.5932808,10.6402175 42.5045297,10.6402175 C34.4157787,10.6402175 26.6678809,13.9884799 20.8577393,19.9920455 C14.9329376,26.1111043 11.5150233,34.6544799 11.4014056,43.5443351 C7.64159563,47.3545703 3.65455015,53.5891223 3.42627226,60.4000999 C3.31265449,65.8272399 5.36298611,70.9068599 9.69296961,75.4100544 C11.7433012,77.4878915 12.9962238,80.0277015 13.4517372,82.6830047 C13.908293,85.4538011 12.7689882,87.7636652 9.92020515,89.610516 C9.35107395,89.9569956 9.00917829,90.5344616 9.00917829,91.2263803 C9.00917829,91.9193395 9.23641382,92.4968056 9.80658738,92.9587784 C10.0338229,93.1897648 16.3005203,97.9229051 24.1620358,96.6535204 C29.1747683,95.845068 33.5037094,92.8432852 37.2635194,87.7636652 C37.605415,87.7636652 37.8336929,87.8791584 38.1755886,87.8791584 L46.7198531,87.8791584 C47.0617488,87.8791584 47.2900267,87.8791584 47.6319223,87.7636652 C51.3917323,92.9587784 55.7206734,95.9605612 60.7334059,96.7690136 C61.6454751,96.8845068 62.556502,97 63.3539111,97 C69.847844,97 74.7469587,93.305258 74.9752366,93.0742716 C75.5443678,92.727792 75.7726457,92.0348327 75.7726457,91.3418735 C75.7726457,90.6499548 75.6590279,90.0724888 75.0888543,89.610516 L75.0888543,89.610516 Z M18.6927476,62.3634843 C17.6681029,62.3634843 16.8706938,61.5550319 16.8706938,60.5155931 L16.8706938,57.0528779 C16.8706938,56.0134391 17.6681029,55.2049867 18.6927476,55.2049867 L18.6927476,62.3634843 Z M62.7847799,52.6651767 L62.7847799,64.5568147 C62.7847799,66.0582263 62.3282241,67.4431043 61.4171972,68.5980363 L53.6703418,78.6428236 C52.4163769,80.1431947 49.1131228,83.3759639 47.0617488,83.3759639 L38.5174843,83.3759639 C36.6943882,83.3759639 33.5037094,80.6051675 32.022509,78.6428236 L24.2756536,68.4825431 C23.3646267,67.3276111 22.9080709,65.8272399 22.9080709,64.4413215 L22.9080709,52.8961631 L22.6808354,52.8961631 L22.4525575,49.7788871 L22.4525575,46.8925975 C22.4525575,42.6203895 22.9080709,39.1566338 23.9337579,36.2703442 C24.6175493,34.1925071 26.4406453,32.6910954 28.490977,32.2301631 C28.9464904,32.1146699 29.4030462,32.1146699 29.8585596,32.1146699 C31.33976,32.1146699 32.8209605,32.6910954 33.8456051,33.8460275 C43.416599,43.3133487 51.6189678,42.3894031 57.0882561,41.6974843 C59.2522055,41.4664979 61.0753015,41.2355115 61.7590929,41.811937 C62.1009885,42.1584166 62.7847799,43.3133487 62.7847799,46.8925975 L62.7847799,49.7788871 L62.7847799,52.6651767 Z M66.7718253,55.2049867 C67.7975123,55.2049867 68.5949214,56.0134391 68.5949214,57.0528779 L68.5949214,60.5155931 C68.5949214,61.5550319 67.7975123,62.3634843 66.7718253,62.3634843 L66.7718253,55.2049867 Z M67.113721,92.3813124 C64.6068336,92.8432852 62.556502,92.3813124 61.1889193,91.1119276 C59.822379,89.8415024 59.4804834,87.648172 59.9359968,84.8773756 C60.0496146,84.0689232 59.5941011,83.2604707 58.796692,83.1449775 C57.9992829,83.0294843 57.2018738,83.4914571 57.0882561,84.2999096 C56.5180825,87.5326788 56.9735959,89.7260092 57.771005,91.3418735 C55.6070556,90.187982 53.6703418,88.4555839 51.7325856,86.1467603 C54.3530908,84.4154028 56.4044647,81.9900455 56.7463604,81.5291132 L64.4932158,71.3688327 C65.6325206,69.8674211 66.3163119,68.1360635 66.5435474,66.404706 L66.6582076,66.404706 C69.847844,66.404706 72.4683491,63.7483623 72.4683491,60.5155931 L72.4683491,57.0528779 C72.4683491,53.8201087 69.847844,51.1637651 66.6582076,51.1637651 L66.6582076,47.0080907 C66.6582076,42.8513759 65.9744162,40.3115659 64.2649379,38.8101542 C62.8983976,37.5407695 61.3035794,37.3097831 59.3668656,37.4252763 C51.3917323,37.4252763 46.2643397,33.7305343 43.5302167,25.6491315 C43.1883211,24.6096926 42.0490163,24.0322266 41.0233293,24.3787062 C39.9976423,24.7251858 39.4285111,25.8801179 39.7704068,26.9185162 C41.2516072,31.3062175 43.5302167,34.7699731 46.3779574,37.0787967 C43.416599,36.154851 40.2259202,34.3080003 36.8080059,30.9597379 C34.4157787,28.5354211 31.1114821,27.6114754 27.6935679,28.3044347 C24.2756536,29.1128871 21.4279129,31.5372039 20.173948,34.8854663 C19.0346432,38.1182355 18.465512,42.1584166 18.465512,46.7771043 L18.465512,50.9338191 C15.2748333,50.9338191 12.6543281,53.5891223 12.6543281,56.8218915 L12.6543281,60.2856471 C12.6543281,63.5173759 15.2748333,66.1737196 18.465512,66.1737196 L18.5791298,66.1737196 C18.8074077,68.0205703 19.6048168,69.7519279 20.7441215,71.1378463 L28.6045947,81.2981268 C28.9464904,81.7600996 30.9978644,84.1844164 33.6183696,85.8002807 C31.6816557,88.2245975 29.6302817,90.0724888 27.3516722,91.1119276 C28.1490813,89.4950228 28.7192549,87.1861992 28.1490813,83.95343 C28.0354635,83.1449775 27.2380544,82.5675115 26.4406453,82.7984979 C25.6432362,82.9139911 25.0730627,83.7224436 25.3013406,84.530896 C25.8704718,87.3016924 25.4149583,89.3795296 24.0473757,90.765448 C22.9080709,91.9193395 20.9713571,92.4968056 18.6927476,92.1503259 C17.2115471,91.8038463 15.8450068,91.2263803 14.8193198,90.765448 C17.8953385,87.648172 18.1236164,84.1844164 17.6681029,81.6446064 C17.0979294,78.1808508 15.3894934,74.9480816 12.7689882,72.2927784 C9.23641382,68.5980363 7.4143601,64.5568147 7.64159563,60.1701539 C7.86987353,54.1655479 11.6296835,48.5084619 14.9329376,45.5066791 C15.3894934,45.1601995 15.6167289,44.5837739 15.6167289,44.0063079 C15.5031112,35.9238646 18.465512,28.0734483 23.8201402,22.5318555 C28.8328726,17.3357018 35.5550834,14.4494122 42.6181475,14.4494122 C49.682254,14.4494122 56.2898046,17.3357018 61.4171972,22.5318555 C66.7718253,28.0734483 69.847844,35.9238646 69.6206084,44.0063079 C69.6206084,44.5837739 69.847844,45.1601995 70.3033574,45.5066791 C73.6076539,48.5084619 77.3674638,54.1655479 77.5957417,60.1701539 C77.7093595,64.4413215 75.9998812,68.5980363 72.4683491,72.2927784 C69.9614617,74.9480816 68.2530258,78.1808508 67.5692344,81.6446064 C67.113721,84.1844164 67.3419989,87.648172 70.4180175,90.765448 C69.6206084,91.5728599 68.4813037,92.0348327 67.113721,92.3813124 L67.113721,92.3813124 Z" id="hair15"></path>
            </g>
        </g>
    </g>
</svg>