<?xml version="1.0" encoding="UTF-8"?>
<svg width="100px" height="100px" viewBox="0 0 100 100" version="1.1" xmlns="http://www.w3.org/2000/svg" xmlns:xlink="http://www.w3.org/1999/xlink">
    <!-- Generator: Sketch 41.2 (35397) - http://www.bohemiancoding.com/sketch -->
    <title>AVATAR</title>
    <desc>Created with Sketch.</desc>
    <defs></defs>
    <g id="Page-1" stroke="none" stroke-width="1" fill="none" fill-rule="evenodd">
        <g id="AVATAR">
            <g id="NOSE-MOUTH" transform="translate(27.000000, 34.000000)" fill="#FF8B17">
                <g id="nose-mouth-8" transform="translate(8.000000, 5.000000)">
                    <path d="M11.6,27.9 C10.8,27.9 10.1,28.6 10.1,29.4 C10.1,30.2 10.8,30.9 11.6,30.9 L18.4,30.9 C19.2,30.9 19.9,30.2 19.9,29.4 C19.9,28.6 19.2,27.9 18.4,27.9 L11.6,27.9 Z" id="Shape"></path>
                    <path d="M11.4,18.1 C11.4,20.3 13.2,22.1 15.4,22.1 C16.5,22.1 17.5,21.7 18.2,20.9 C18.8,20.3 18.8,19.4 18.2,18.8 C17.6,18.2 16.7,18.2 16.1,18.8 C15.9,19 15.7,19.1 15.4,19.1 C14.8,19.1 14.4,18.6 14.4,18.1 L14.4,5.3 C14.4,4.9 14.2,4.5 13.9,4.2 L10,0.8 C9.7,0.6 9.4,0.4 9,0.4 L1.8,0.4 C1,0.4 0.3,1.1 0.3,1.9 C0.3,2.7 1,3.4 1.8,3.4 L8.4,3.4 L11.3,5.9 L11.3,18.1 L11.4,18.1 Z" id="Shape"></path>
                    <path d="M17.6,37.5 C17.2,37.9 16.1,38.3 15,38.3 C13.9,38.3 12.8,37.9 12.4,37.5 C11.8,36.9 10.9,36.9 10.3,37.5 C9.7,38.1 9.7,39 10.3,39.6 C11.4,40.6 13.2,41.3 15,41.3 C16.7,41.3 18.5,40.7 19.5,39.8 C20.1,39.3 20.2,38.3 19.7,37.7 C19.2,37.1 18.3,37 17.6,37.5 Z" id="Shape"></path>
                </g>
            </g>
            <g id="HAIR" transform="translate(7.000000, -2.000000)"></g>
        </g>
    </g>
</svg>