<?xml version="1.0" encoding="UTF-8"?>
<svg width="100px" height="100px" viewBox="0 0 100 100" version="1.1" xmlns="http://www.w3.org/2000/svg" xmlns:xlink="http://www.w3.org/1999/xlink">
    <!-- Generator: Sketch 41.2 (35397) - http://www.bohemiancoding.com/sketch -->
    <title>AVATAR</title>
    <desc>Created with Sketch.</desc>
    <defs></defs>
    <g id="Page-1" stroke="none" stroke-width="1" fill="none" fill-rule="evenodd">
        <g id="AVATAR">
            <g id="NOSE-MOUTH" transform="translate(27.000000, 34.000000)" fill="#F8E71C">
                <g id="nosemouth-1" transform="translate(14.000000, 18.000000)">
                    <path d="M5.6,0.9 C4.9,1.4 4.7,2.3 5.2,3 C6,4.2 7.6,5.1 9.1,5.1 C10.5,5.1 12,4.4 12.8,3.2 C13.3,2.5 13.2,1.6 12.5,1 C11.8,0.5 10.9,0.6 10.3,1.3 C10,1.7 9.5,1.9 9,1.9 C8.5,1.9 7.9,1.6 7.7,1.2 C7.3,0.7 6.4,0.5 5.6,0.9 Z" id="Shape"></path>
                    <path d="M16.6,7.9 L1.5,7.9 C0.7,7.9 0,8.6 0,9.4 C0,10.2 0.7,10.9 1.5,10.9 L16.7,10.9 C17.5,10.9 18.2,10.2 18.2,9.4 C18.2,8.5 17.5,7.9 16.6,7.9 Z" id="Shape"></path>
                </g>
            </g>
            <g id="HAIR" transform="translate(7.000000, -2.000000)"></g>
        </g>
    </g>
</svg>