<?xml version="1.0" encoding="UTF-8"?>
<svg width="100px" height="100px" viewBox="0 0 100 100" version="1.1" xmlns="http://www.w3.org/2000/svg" xmlns:xlink="http://www.w3.org/1999/xlink">
    <!-- Generator: Sketch 41.2 (35397) - http://www.bohemiancoding.com/sketch -->
    <title>AVATAR</title>
    <desc>Created with Sketch.</desc>
    <defs></defs>
    <g id="Page-1" stroke="none" stroke-width="1" fill="none" fill-rule="evenodd">
        <g id="AVATAR">
            <g id="NOSE-MOUTH" transform="translate(27.000000, 34.000000)" fill="#417505">
                <g id="Nosemouth-4" transform="translate(12.349361, 18.349691)">
                    <path d="M12.4935464,16.844327 C12.0473484,17.2875987 11.1549522,17.2875987 10.7087541,16.844327 C10.1510065,16.2902373 9.14706079,16.2902373 8.58931318,16.844327 C8.03156557,17.3984167 8.03156557,18.3957781 8.58931318,18.9498678 C9.37015983,19.7255934 10.4856551,20.1688652 11.6011503,20.1688652 C12.7166455,20.1688652 13.7205912,19.7255934 14.6129874,18.9498678 C15.170735,18.3957781 15.170735,17.3984167 14.6129874,16.844327 C13.9436902,16.2902373 13.0512941,16.2902373 12.4935464,16.844327 Z" id="Shape"></path>
                    <path d="M9.14706079,3.76780998 C10.262556,2.65963057 12.1588979,2.65963057 13.1628436,3.76780998 C13.4974921,4.1002638 13.8321407,4.21108174 14.1667893,4.21108174 C14.5014378,4.21108174 14.9476359,4.1002638 15.170735,3.76780998 C15.7284826,3.21372028 15.7284826,2.21635881 15.170735,1.66226911 C12.9397445,-0.554089703 9.14706079,-0.554089703 6.91607035,1.66226911 C6.35832274,2.21635881 6.35832274,3.21372028 6.91607035,3.76780998 C7.58536748,4.32189968 8.58931318,4.32189968 9.14706079,3.76780998 Z" id="Shape"></path>
                    <path d="M20.8597606,9.64116083 C20.525112,8.86543524 19.6327158,8.53298142 18.8518692,8.97625318 C18.2941216,9.19788906 17.959473,9.86279671 17.959473,10.5277044 C16.0631311,11.4142479 13.6090417,11.9683376 11.0434027,11.9683376 C8.47776366,11.9683376 6.02367418,11.4142479 4.23888183,10.5277044 C4.35043135,9.86279671 4.01578279,9.308707 3.45803518,8.97625318 C2.67718852,8.64379936 1.78479235,8.97625318 1.45014378,9.64116083 L0.669297131,11.4142479 C0.334648565,12.1899735 0.669297131,13.076517 1.33859426,13.4089708 C1.56169331,13.5197887 1.78479235,13.5197887 2.00789139,13.5197887 C2.34253996,13.5197887 2.67718852,13.4089708 3.01183709,13.1873349 C5.24282753,14.2955143 8.14311509,14.960422 11.1549522,14.960422 C14.1667893,14.960422 17.0670768,14.2955143 19.2980673,13.1873349 C19.5211663,13.4089708 19.9673644,13.6306067 20.302013,13.6306067 C20.525112,13.6306067 20.7482111,13.6306067 20.9713101,13.5197887 C21.7521568,13.1873349 22.0868053,12.3007914 21.6406072,11.5250658 L20.8597606,9.64116083 Z" id="Shape"></path>
                </g>
            </g>
            <g id="HAIR" transform="translate(7.000000, -2.000000)"></g>
        </g>
    </g>
</svg>