<?xml version="1.0" encoding="UTF-8"?>
<svg width="100px" height="100px" viewBox="0 0 100 100" version="1.1" xmlns="http://www.w3.org/2000/svg" xmlns:xlink="http://www.w3.org/1999/xlink">
    <!-- Generator: Sketch 41.2 (35397) - http://www.bohemiancoding.com/sketch -->
    <title>AVATAR</title>
    <desc>Created with Sketch.</desc>
    <defs></defs>
    <g id="Page-1" stroke="none" stroke-width="1" fill="none" fill-rule="evenodd">
        <g id="AVATAR">
            <g id="NOSE-MOUTH" transform="translate(27.000000, 34.000000)" fill="#4556FF">
                <g id="nose-mouth-6" transform="translate(3.000000, 5.000000)">
                    <path d="M35,4 C32.3,3.1 29.6,3.5 27.3,5.1 C26.6,5.6 26.5,6.5 27,7.2 C27.3,7.6 27.8,7.8 28.2,7.8 C28.5,7.8 28.8,7.7 29.1,7.5 C30.6,6.4 32.3,6.1 34.1,6.8 C34.9,7.1 35.7,6.7 36,5.9 C36.2,5.1 35.8,4.3 35,4 Z" id="Shape"></path>
                    <path d="M23,30.8 C22.6,31.2 21.5,31.6 20.4,31.6 C19.3,31.6 18.2,31.2 17.8,30.8 C17.2,30.2 16.3,30.2 15.7,30.8 C15.1,31.4 15.1,32.3 15.7,32.9 C16.8,33.9 18.6,34.6 20.4,34.6 C22.1,34.6 23.9,34 24.9,33.1 C25.5,32.6 25.6,31.6 25.1,31 C24.6,30.3 23.7,30.2 23,30.8 Z" id="Shape"></path>
                    <path d="M0,3 C5.1,3 9.3,4.7 12.1,7.8 C14.9,10.9 16.2,15.4 15.7,20.6 L15.7,20.8 C15.7,21.1 15.8,21.4 15.9,21.6 C16.8,22.9 18.5,23.8 20.1,23.8 C21.6,23.8 23.2,23 24.1,21.8 C24.6,21.1 24.5,20.2 23.8,19.7 C23.1,19.2 22.2,19.3 21.7,20 C21.3,20.5 20.6,20.8 20.1,20.8 C19.6,20.8 19.1,20.6 18.7,20.2 C19.1,14.4 17.6,9.4 14.3,5.8 C10.9,2.1 5.9,0.1 0,0 L0,3 Z" id="Fill-3"></path>
                </g>
            </g>
            <g id="HAIR" transform="translate(7.000000, -2.000000)"></g>
        </g>
    </g>
</svg>