<?xml version="1.0" encoding="UTF-8"?>
<svg width="100px" height="100px" viewBox="0 0 100 100" version="1.1" xmlns="http://www.w3.org/2000/svg" xmlns:xlink="http://www.w3.org/1999/xlink">
    <!-- Generator: Sketch 41.2 (35397) - http://www.bohemiancoding.com/sketch -->
    <title>AVATAR</title>
    <desc>Created with Sketch.</desc>
    <defs></defs>
    <g id="Page-1" stroke="none" stroke-width="1" fill="none" fill-rule="evenodd">
        <g id="AVATAR">
            <g id="NOSE-MOUTH" transform="translate(27.000000, 34.000000)" fill="#95FF73">
                <g id="nosemouth-2" transform="translate(16.000000, 15.000000)">
                    <path d="M5.3101122,0.289806452 C5.3101122,0.289806452 2.86650244,-0.0669677419 3.14250244,2.62464516 C3.41738049,5.29593548 2.63425854,10.6294839 2.18547805,11.8714194 C2.18547805,11.9843226 2.07328293,12.0972258 2.07328293,12.210129 L2.07328293,12.3230323 C2.07328293,12.6617419 2.07328293,13.0004516 2.29767317,13.3391613 C3.19523415,14.694 4.76596585,15.4843226 6.33669756,15.4843226 C7.79523415,15.4843226 9.36596585,14.694 10.2635268,13.5649677 C10.7123073,12.8875484 10.6001122,11.9843226 9.92694146,11.4198065 C9.25377073,10.9681935 8.35620976,11.0810968 7.79523415,11.7585161 C7.45864878,12.210129 6.89767317,12.5488387 6.33669756,12.5488387 C6.0001122,12.5488387 5.55133171,12.4359355 5.21474634,12.210129 C6.0001122,9.50045161 6.62279512,2.99270968 5.55469756,0.22883871 L5.3101122,0.289806452 Z" id="Fill-27"></path>
                    <path d="M11.9351256,21.7948387 C11.37415,22.8109677 9.69122317,23.7141935 7.3351256,23.7141935 C4.97902804,23.7141935 3.29610121,22.6980645 2.7351256,21.7948387 C2.28634512,21.1185484 1.38878414,20.8927419 0.715613409,21.2303226 C0.0424426778,21.6819355 -0.181947566,22.5851613 0.1546378,23.2625806 C1.38878414,25.2948387 4.19366219,26.6496774 7.3351256,26.6496774 C10.476589,26.6496774 13.2814671,25.2948387 14.5156134,23.2625806 C14.8521988,22.5851613 14.6278085,21.6819355 13.9546378,21.2303226 C13.7235158,21.0756452 13.4531256,21 13.1827354,21 C12.6666378,21 12.15615,21.2766129 11.9351256,21.7948387 Z" id="z"></path>
                </g>
            </g>
            <g id="HAIR" transform="translate(7.000000, -2.000000)"></g>
        </g>
    </g>
</svg>