<?xml version="1.0" encoding="UTF-8"?>
<svg width="100px" height="100px" viewBox="0 0 100 100" version="1.1" xmlns="http://www.w3.org/2000/svg" xmlns:xlink="http://www.w3.org/1999/xlink">
    <!-- Generator: Sketch 41.2 (35397) - http://www.bohemiancoding.com/sketch -->
    <title>AVATAR</title>
    <desc>Created with Sketch.</desc>
    <defs></defs>
    <g id="Page-1" stroke="none" stroke-width="1" fill="none" fill-rule="evenodd">
        <g id="AVATAR">
            <g id="NOSE-MOUTH" transform="translate(27.000000, 34.000000)" fill="#E70067">
                <g id="nosemouth-5" transform="translate(7.000000, 5.000000)">
                    <path d="M17.1956522,15.7670253 C16.9782609,15.9863658 16.7608696,16.096036 16.4347826,16.096036 C15.8913043,16.096036 15.4565217,15.657355 15.4565217,15.1090037 L15.4565217,6.99340494 C15.4565217,4.14197833 13.173913,1.83890299 10.4565217,1.72923274 L2.52173913,0.632530194 C1.65217391,0.52285994 1,1.07121121 0.891304348,1.94857324 C0.782608696,2.82593528 1.32608696,3.4839568 2.19565217,3.59362706 L10.1304348,4.58065934 L10.3478261,4.58065934 C11.5434783,4.58065934 12.5217391,5.56769163 12.5217391,6.77406443 L12.5217391,14.8896632 C12.5217391,17.0830683 14.3695652,18.9474626 16.5434783,18.9474626 C17.6304348,18.9474626 18.6086957,18.5087816 19.3695652,17.7410898 C19.9130435,17.1927386 19.9130435,16.2057063 19.3695652,15.5476848 C18.826087,14.8896632 17.7391304,15.218674 17.1956522,15.7670253 Z" id="Shape"></path>
                    <path d="M29.4782609,0.632530194 L21.5434783,1.72923274 C20.673913,1.83890299 20.1304348,2.60659477 20.2391304,3.37428655 C20.3478261,4.14197833 21,4.6903296 21.7608696,4.6903296 L21.9782609,4.6903296 L29.9130435,3.70329731 C30.7826087,3.59362706 31.326087,2.82593528 31.2173913,2.0582435 C31.1086957,1.18088146 30.3478261,0.632530194 29.4782609,0.632530194 Z" id="Shape"></path>
                    <path d="M21.2173913,31.6692121 C21.7608696,31.1208609 21.7608696,30.1338286 21.2173913,29.5854773 C20.673913,29.037126 19.6956522,29.037126 19.0434783,29.5854773 C18.173913,30.3531691 13.6086957,30.3531691 12.7391304,29.5854773 C12.1956522,29.037126 11.2173913,29.037126 10.5652174,29.5854773 C10.0217391,30.1338286 10.0217391,31.1208609 10.5652174,31.7788824 C11.5434783,32.7659147 13.7173913,33.3142659 15.7826087,33.3142659 C17.8478261,33.3142659 20.2391304,32.6562444 21.2173913,31.6692121 Z" id="Shape"></path>
                </g>
            </g>
            <g id="HAIR" transform="translate(7.000000, -2.000000)"></g>
        </g>
    </g>
</svg>