<?xml version="1.0" encoding="UTF-8"?>
<svg width="40px" height="40px" viewBox="0 0 40 40" version="1.1" xmlns="http://www.w3.org/2000/svg" xmlns:xlink="http://www.w3.org/1999/xlink">
    <!-- Generator: Sketch 41 (35326) - http://www.bohemiancoding.com/sketch -->
    <title>city</title>
    <desc>Created with Sketch.</desc>
    <defs></defs>
    <g id="Page-1" stroke="none" stroke-width="1" fill="none" fill-rule="evenodd">
        <g id="city" fill="#000000">
            <g id="Group" transform="translate(5.000000, 10.000000)">
                <path d="M30.5071542,21 L0.492845787,21 C0.197138315,21 0,20.8 0,20.5 C0,20.2 0.197138315,20 0.492845787,20 L30.5071542,20 C30.8028617,20 31,20.2 31,20.5 C31,20.8 30.7535771,21 30.5071542,21 Z" id="Shape"></path>
                <path d="M15.5330739,21 C15.2529183,21 15.0661479,20.8392283 15.0661479,20.5980707 L15.0661479,0.803858521 L4.93385214,0.803858521 L4.93385214,20.5980707 C4.93385214,20.8392283 4.74708171,21 4.46692607,21 C4.18677043,21 4,20.8392283 4,20.5980707 L4,0.40192926 C4,0.160771704 4.18677043,0 4.46692607,0 L15.5330739,0 C15.8132296,0 16,0.160771704 16,0.40192926 L16,20.5980707 C16,20.8392283 15.8132296,21 15.5330739,21 Z" id="Shape"></path>
                <path d="M27.5,20.9609121 C27.2,20.9609121 27,20.8045603 27,20.5700326 L27,9.78175896 L18,9.78175896 L18,20.6091205 C18,20.8436482 17.8,21 17.5,21 C17.2,21 17,20.8436482 17,20.6091205 L17,9.39087948 C17,9.15635179 17.2,9 17.5,9 L27.5,9 C27.8,9 28,9.15635179 28,9.39087948 L28,20.6091205 C28,20.8045603 27.75,20.9609121 27.5,20.9609121 Z" id="Shape"></path>
                <path d="M7.5,6 C7.2,6 7,5.82089552 7,5.55223881 L7,3.44776119 C7,3.17910448 7.2,3 7.5,3 C7.8,3 8,3.17910448 8,3.44776119 L8,5.55223881 C8,5.82089552 7.8,6 7.5,6 Z" id="Shape"></path>
                <path d="M7.5,10 C7.2,10 7,9.82089552 7,9.55223881 L7,7.44776119 C7,7.17910448 7.2,7 7.5,7 C7.8,7 8,7.17910448 8,7.44776119 L8,9.55223881 C8,9.7761194 7.8,10 7.5,10 Z" id="Shape"></path>
                <path d="M7.5,15 C7.2,15 7,14.8208955 7,14.5522388 L7,12.4477612 C7,12.1791045 7.2,12 7.5,12 C7.8,12 8,12.1791045 8,12.4477612 L8,14.5522388 C8,14.8208955 7.8,15 7.5,15 Z" id="Shape"></path>
                <path d="M7.5,19 C7.2,19 7,18.8208955 7,18.5522388 L7,16.4477612 C7,16.1791045 7.2,16 7.5,16 C7.8,16 8,16.1791045 8,16.4477612 L8,18.5522388 C8,18.8208955 7.8,19 7.5,19 Z" id="Shape"></path>
                <path d="M9.5,6 C9.2,6 9,5.82089552 9,5.55223881 L9,3.44776119 C9,3.17910448 9.2,3 9.5,3 C9.8,3 10,3.17910448 10,3.44776119 L10,5.55223881 C10,5.82089552 9.8,6 9.5,6 Z" id="Shape"></path>
                <path d="M9.5,10 C9.2,10 9,9.82089552 9,9.55223881 L9,7.44776119 C9,7.17910448 9.2,7 9.5,7 C9.8,7 10,7.17910448 10,7.44776119 L10,9.55223881 C10,9.7761194 9.8,10 9.5,10 Z" id="Shape"></path>
                <path d="M9.5,15 C9.2,15 9,14.8208955 9,14.5522388 L9,12.4477612 C9,12.1791045 9.2,12 9.5,12 C9.8,12 10,12.1791045 10,12.4477612 L10,14.5522388 C10,14.8208955 9.8,15 9.5,15 Z" id="Shape"></path>
                <path d="M9.5,19 C9.2,19 9,18.8208955 9,18.5522388 L9,16.4477612 C9,16.1791045 9.2,16 9.5,16 C9.8,16 10,16.1791045 10,16.4477612 L10,18.5522388 C10,18.8208955 9.8,19 9.5,19 Z" id="Shape"></path>
                <path d="M11.5,6 C11.2,6 11,5.82089552 11,5.55223881 L11,3.44776119 C11,3.17910448 11.2,3 11.5,3 C11.8,3 12,3.17910448 12,3.44776119 L12,5.55223881 C12,5.82089552 11.75,6 11.5,6 Z" id="Shape"></path>
                <path d="M20.5,15 C20.2,15 20,14.8208955 20,14.5522388 L20,12.4477612 C20,12.1791045 20.2,12 20.5,12 C20.8,12 21,12.1791045 21,12.4477612 L21,14.5522388 C21,14.8208955 20.75,15 20.5,15 Z" id="Shape"></path>
                <path d="M20.5,19 C20.2,19 20,18.8208955 20,18.5522388 L20,16.4477612 C20,16.1791045 20.2,16 20.5,16 C20.8,16 21,16.1791045 21,16.4477612 L21,18.5522388 C21,18.8208955 20.75,19 20.5,19 Z" id="Shape"></path>
                <path d="M22.5,15 C22.2,15 22,14.8208955 22,14.5522388 L22,12.4477612 C22,12.1791045 22.2,12 22.5,12 C22.8,12 23,12.1791045 23,12.4477612 L23,14.5522388 C23,14.8208955 22.8,15 22.5,15 Z" id="Shape"></path>
                <path d="M22.5,19 C22.2,19 22,18.8208955 22,18.5522388 L22,16.4477612 C22,16.1791045 22.2,16 22.5,16 C22.8,16 23,16.1791045 23,16.4477612 L23,18.5522388 C23,18.8208955 22.8,19 22.5,19 Z" id="Shape"></path>
                <path d="M25.5,15 C25.2,15 25,14.8208955 25,14.5522388 L25,12.4477612 C25,12.1791045 25.2,12 25.5,12 C25.8,12 26,12.1791045 26,12.4477612 L26,14.5522388 C26,14.8208955 25.75,15 25.5,15 Z" id="Shape"></path>
                <path d="M25.5,19 C25.2,19 25,18.8208955 25,18.5522388 L25,16.4477612 C25,16.1791045 25.2,16 25.5,16 C25.8,16 26,16.1791045 26,16.4477612 L26,18.5522388 C26,18.8208955 25.75,19 25.5,19 Z" id="Shape"></path>
                <path d="M11.5,10 C11.2,10 11,9.82089552 11,9.55223881 L11,7.44776119 C11,7.17910448 11.2,7 11.5,7 C11.8,7 12,7.17910448 12,7.44776119 L12,9.55223881 C12,9.7761194 11.75,10 11.5,10 Z" id="Shape"></path>
                <path d="M11.5,15 C11.2,15 11,14.8208955 11,14.5522388 L11,12.4477612 C11,12.1791045 11.2,12 11.5,12 C11.8,12 12,12.1791045 12,12.4477612 L12,14.5522388 C12,14.8208955 11.75,15 11.5,15 Z" id="Shape"></path>
                <path d="M11.5,19 C11.2,19 11,18.8208955 11,18.5522388 L11,16.4477612 C11,16.1791045 11.2,16 11.5,16 C11.8,16 12,16.1791045 12,16.4477612 L12,18.5522388 C12,18.8208955 11.75,19 11.5,19 Z" id="Shape"></path>
            </g>
        </g>
    </g>
</svg>