<?xml version="1.0" encoding="UTF-8"?>
<svg width="40px" height="40px" viewBox="0 0 40 40" version="1.1" xmlns="http://www.w3.org/2000/svg" xmlns:xlink="http://www.w3.org/1999/xlink">
    <!-- Generator: Sketch 41 (35326) - http://www.bohemiancoding.com/sketch -->
    <title>penguins</title>
    <desc>Created with Sketch.</desc>
    <defs></defs>
    <g id="Page-1" stroke="none" stroke-width="1" fill="none" fill-rule="evenodd">
        <g id="penguins" fill="#000000">
            <g id="Group" transform="translate(14.000000, 5.000000)">
                <path d="M11.6981402,26.7307496 L11.6742941,26.5835357 C11.6236921,26.2840278 11.8859496,25.4819596 12.1895715,24.5525159 C12.4785949,23.6673753 12.83817,22.5653362 13.1622251,21.2422446 C13.9256547,18.1257965 15.8719335,7.48197899 8.87360078,1.35384117 C7.93841538,0.534694473 6.65970836,0.0565895394 5.36519195,0.0422849528 C4.8808108,0.0344403497 4.39594636,0.07689572 3.92762373,0.115660346 C3.17247006,0.177963508 2.4596425,0.236108084 1.77722796,0.114275727 C0.873183024,-0.0486321075 0.471760068,0.00674795539 0.401208241,0.0187464177 C0.135298604,0.0658187623 -0.036462211,0.304871229 0.00660130893,0.557765168 C0.0496648288,0.811122221 0.305355412,0.983259278 0.571753332,0.95003313 C0.57442892,0.95003313 0.871723159,0.913574628 1.59184506,1.0427932 C1.64573051,1.05242883 1.6994366,1.05421513 1.75329714,1.06205973 C1.76962969,1.07971009 1.77939035,1.10099921 1.79888179,1.11663171 C3.08093205,2.1437927 3.41143448,3.27525384 3.49479126,3.72001449 C3.09759843,4.52058459 1.65987576,7.46235803 0.778545919,9.84388031 C-0.658050713,13.7245535 0.439648025,17.7621377 1.50086011,21.6668078 C1.76944533,22.6543961 2.02294861,23.5870721 2.23606894,24.5165111 C2.51870474,25.7488652 3.19370038,26.5115355 4.04939041,27.0235612 L4.23270558,27.9153934 C3.26321585,27.9343149 2.56936653,28.1512135 2.16600041,28.5619399 C1.85435167,28.8794478 1.78136839,29.2587911 1.81348044,29.4872297 C1.84705234,29.7258191 2.06381984,29.9090331 2.31123952,29.9090331 C2.33216093,29.9090331 2.35308233,29.9076485 2.37449202,29.9048792 C2.6472127,29.8707268 2.83989492,29.6445991 2.80364743,29.3857035 C2.80340329,29.3760159 2.80559059,29.2860251 2.91701365,29.1854204 C3.04771888,29.0673922 3.49046648,28.8043428 4.7648537,28.8712015 C4.96179095,28.9255987 5.73753719,29.1772876 5.74164274,29.7475713 C5.71752757,29.7455534 5.69693999,29.7435923 5.67197282,29.741513 C4.62633594,29.6529068 3.44518575,30.0239471 3.39531119,30.0400994 C3.13426445,30.1222456 2.9931608,30.3899073 3.08025942,30.6377306 C3.1671139,30.8850907 3.44834963,31.0189216 3.71061209,30.9363169 C3.99501169,30.8463261 4.88543454,30.6243475 5.58560662,30.6829599 C6.37506462,30.7480323 6.70277188,30.802023 6.91977854,30.83756 C7.17036209,30.8786308 7.30538712,30.8975523 7.65717468,30.8814 C8.22159428,30.8546338 8.59138849,30.4379058 8.80645198,30.0802534 C9.4750003,30.3894536 10.7089398,30.9081662 11.6300148,30.9976986 C11.6470499,30.9990785 11.66408,31 11.6811101,31 C11.9336418,31 12.1501651,30.8190968 12.1764377,30.5754274 C12.2041702,30.3160687 12.0051652,30.0839394 11.7312288,30.0571732 C10.917835,29.9780278 9.71847386,29.4540603 9.14027772,29.1821881 L9.16603711,29.0774295 C9.4735504,27.8254072 9.79176604,26.5304617 10.272495,25.3222794 C10.323097,25.1949086 10.3858662,25.0504592 10.4534983,24.8940161 C10.8349665,24.0121078 11.3575433,22.8043839 11.0295969,21.9229388 C10.8460973,21.4299528 10.2505373,21.159692 9.81800873,21.0223973 C9.83777421,20.3493114 9.86161534,19.7079584 9.97958039,19.0621585 C10.1167927,18.3099273 10.4024081,17.5978499 10.7055417,16.8433125 C11.0203544,16.0592397 11.3458693,15.2484007 11.4942723,14.3798756 C11.714687,13.0904686 11.4203125,11.7438432 10.5683294,10.1420083 C10.4447391,9.90895743 10.1450135,9.81434963 9.89929779,9.93295436 C9.65358212,10.0501745 9.55480458,10.3344515 9.67888312,10.5675024 C10.4316053,11.9824325 10.695816,13.1458486 10.5104331,14.2285078 C10.3785719,15.0024299 10.0846857,15.7329657 9.77425265,16.5068877 C9.46771592,17.2701913 9.15095516,18.058881 8.99768929,18.9011032 C8.85950536,19.6579467 8.83809567,20.4087934 8.81765756,21.1342585 C8.81671588,21.1678296 8.81528591,21.1997326 8.81434422,21.2331336 C8.80908273,21.2491725 8.7978323,21.2618609 8.79430471,21.2787079 C8.77876438,21.3523148 8.78655198,21.4236156 8.80570959,21.491514 C8.7947631,21.8280002 8.78132038,22.1588298 8.75148533,22.4868902 C7.35965124,19.989764 7.04630347,17.0597574 7.87566113,14.1634449 L7.98368116,13.7919462 C8.28048711,12.7789764 8.53691012,11.9044496 8.32427807,10.6893442 C8.1087263,9.45900801 7.92577983,8.35004576 7.87858086,7.23600815 C7.83576148,6.22857208 7.74307252,5.14314836 7.35819636,4.03418612 C7.33843089,3.97707646 7.30600993,3.9277547 7.26802854,3.88385328 C7.53509411,3.51269958 8.16121666,2.95112524 9.40431394,3.26015062 C14.5534364,9.15944341 12.8755336,18.2368496 12.1920229,21.02812 C11.8757504,22.3184486 11.5220147,23.4020293 11.237371,24.2728606 C10.8417875,25.4842752 10.6028829,26.2157372 10.6904648,26.7330652 L10.7128461,26.8719761 C10.8437356,27.6925074 11.1157239,29.3991008 13.0547083,30.6252784 C13.1398588,30.6788108 13.2357116,30.7046554 13.3305929,30.7046554 C13.4916464,30.7046554 13.6497801,30.6308169 13.7456379,30.4942168 C13.8984205,30.2768552 13.8366279,29.9838073 13.607454,29.8388995 C12.0348458,28.8448371 11.815886,27.4695978 11.6981402,26.7307496 Z M7.02366311,13.538575 L6.91394406,13.9160752 C5.94956137,17.2835743 6.41861642,20.7004519 8.25906746,23.5713829 C8.39044034,23.7407507 8.62691353,23.9119616 8.90425794,23.9119616 C8.95875624,23.9119616 9.0151977,23.9055016 9.07261074,23.8907339 C9.60880961,23.7541338 9.68666076,23.0909719 9.71585806,22.8413056 C9.74769606,22.5685638 9.76709782,22.2960537 9.78133274,22.0255046 C9.94503192,22.0998063 10.0671025,22.1787201 10.0895436,22.2376728 C10.2914683,22.7790024 9.83409216,23.8358169 9.53144674,24.5349743 C9.45992333,24.7006514 9.39374612,24.8538621 9.34022439,24.9881561 C8.83613756,26.2554092 8.51062259,27.58127 8.19580997,28.8632955 L8.08654433,29.306095 C7.99951048,29.5596836 7.76495056,29.9299158 7.60754924,29.9371839 C7.35185865,29.9505669 7.29614463,29.9404162 7.08984033,29.9062638 C6.9983671,29.8912646 6.8871533,29.8732078 6.7375346,29.8527315 C6.81617796,28.8658332 5.95312384,28.2838959 5.27299127,28.0371123 L5.17041709,27.5381814 C5.51399851,27.6600704 5.86894993,27.7624661 6.22715491,27.8530902 C6.27021843,27.8641671 6.31352111,27.8692425 6.3558522,27.8692425 C6.57602273,27.8692425 6.77770828,27.7298732 6.83706948,27.5185084 C6.90786544,27.2660729 6.74997584,27.0071773 6.48406122,26.9402619 C4.73265197,26.4972309 3.57388803,25.9032904 3.20968914,24.3153018 C2.9926775,23.3687842 2.72482469,22.3835021 2.46596526,21.4305246 C1.44173808,17.6629129 0.38247414,13.7670089 1.71859421,10.1567666 C2.54566989,7.92280788 3.87860117,5.17105341 4.33792047,4.24022509 C4.34643552,4.23330199 4.35665458,4.22851489 4.36465145,4.22107197 L6.44893478,4.45942977 C6.75906387,5.41535137 6.84463785,6.37582851 6.8828036,7.27383237 C6.93267816,8.44278693 7.12000422,9.5826692 7.34139546,10.8443838 C7.51801917,11.8527509 7.31049416,12.5597575 7.02366311,13.538575 Z M6.34538403,3.4956163 L4.40922964,3.27410078 C4.26860928,2.74777044 3.94227719,1.93635493 3.20050146,1.11236443 C3.47386487,1.09828668 3.74585313,1.0792517 4.01398495,1.05710251 C4.47866041,1.018801 4.91657002,0.979110144 5.35351303,0.987417863 C6.40450606,0.99895321 7.4411396,1.38568269 8.19726984,2.04792315 C8.26934132,2.11102967 8.33481601,2.17748669 8.40488453,2.24163286 C7.35611369,2.34615984 6.68166612,2.9590171 6.34538403,3.4956163 Z" id="Shape"></path>
                <circle id="Oval" cx="5.5" cy="2.5" r="0.5"></circle>
            </g>
        </g>
    </g>
</svg>