<?xml version="1.0" encoding="UTF-8"?>
<svg width="40px" height="40px" viewBox="0 0 40 40" version="1.1" xmlns="http://www.w3.org/2000/svg" xmlns:xlink="http://www.w3.org/1999/xlink">
    <!-- Generator: Sketch 41 (35326) - http://www.bohemiancoding.com/sketch -->
    <title>short1</title>
    <desc>Created with Sketch.</desc>
    <defs></defs>
    <g id="Page-1" stroke="none" stroke-width="1" fill="none" fill-rule="evenodd">
        <g id="short1" fill="#000000">
            <path d="M18,23.1321823 C18,23.239551 18.0404501,23.347434 18.1223776,23.4293526 L20.2027972,25.509545 C20.2787264,25.5854659 20.3841359,25.6319092 20.5,25.6319092 C20.6158638,25.6319092 20.7212736,25.5854659 20.7972028,25.509545 L22.8776224,23.4293526 C22.9595499,23.347434 23,23.239551 23,23.1321823 C23.0000003,23.0248141 22.9595505,22.9256717 22.8776224,22.8437522 C22.7956943,22.7618331 22.6877994,22.7126474 22.5804196,22.7126477 C22.4730392,22.7126477 22.3637385,22.7604522 22.2832168,22.8437522 L20.9195804,24.1984994 L20.9195804,15.4334099 L22.2832168,16.788157 C22.3654073,16.8698116 22.4730392,16.9192616 22.5804196,16.9192616 C22.6877994,16.9192619 22.7956943,16.8700762 22.8776224,16.788157 C22.9595505,16.7062376 23.0000003,16.6070951 23,16.499727 C23,16.3923583 22.9595499,16.2844752 22.8776224,16.2025566 L20.7972028,14.1223643 C20.7212736,14.0464433 20.6158638,14 20.5,14 C20.3841359,14 20.2787264,14.0464433 20.2027972,14.1223643 L18.1223776,16.2025566 C18.0404501,16.2844752 18,16.3923583 18,16.499727 C17.9999997,16.6070951 18.0404495,16.7062376 18.1223776,16.788157 C18.2043057,16.8700762 18.3122006,16.9192619 18.4195804,16.9192616 C18.5269608,16.9192616 18.6345927,16.8698116 18.7167832,16.788157 L20.0804196,15.4334099 L20.0804196,24.1984994 L18.7167832,22.8437522 C18.6345927,22.7620977 18.5269608,22.7126477 18.4195804,22.7126477 C18.3122006,22.7126474 18.2043057,22.7618331 18.1223776,22.8437522 C18.0404495,22.9256717 17.9999997,23.0248141 18,23.1321823 Z" id="Shape"></path>
        </g>
    </g>
</svg>