<?xml version="1.0" encoding="UTF-8"?>
<svg width="40px" height="40px" viewBox="0 0 40 40" version="1.1" xmlns="http://www.w3.org/2000/svg" xmlns:xlink="http://www.w3.org/1999/xlink">
    <!-- Generator: Sketch 41 (35326) - http://www.bohemiancoding.com/sketch -->
    <title>tourists</title>
    <desc>Created with Sketch.</desc>
    <defs></defs>
    <g id="Page-1" stroke="none" stroke-width="1" fill="none" fill-rule="evenodd">
        <g id="tourists" fill="#262621">
            <g id="Group" transform="translate(7.000000, 5.000000)">
                <path d="M0.263474187,26.2600015 L4.21113222,21.8294704 C4.40087683,21.6173439 4.70366688,21.57044 4.94292252,21.7165985 L5.14926621,21.8430877 L5.46751056,21.4040069 C5.52417637,21.2932533 6.08167638,20.1167226 5.39052519,17.7694108 C4.65043536,15.2535477 5.44032242,11.3263319 6.48749516,8.74207987 C6.59538916,8.47608953 7.54239506,6.26101637 9.01169948,6.50158784 L9.01169948,2.2478606 C9.01169948,1.3869476 9.67394538,0.687020797 10.4881587,0.687020797 L17.0485142,0.687020797 C17.8624413,0.687020797 18.5246872,1.3869476 18.5246872,2.2478606 L18.5246872,7.14734824 C18.7075632,7.03084507 18.9107588,6.93885296 19.1334154,6.89860641 C19.5363722,6.82628367 19.9258781,6.93431388 20.261294,7.21119802 C20.9335565,7.76708455 20.9040789,8.85374134 20.7807306,9.40811484 C20.7068933,9.73856018 20.5675183,10.0829254 20.3614608,10.4481704 C20.5557845,10.5740543 20.7357986,10.7398822 20.8871936,10.9438384 C21.3576916,11.5777972 21.4300979,12.3600327 21.1124259,12.8965525 C21.2895781,13.0191077 21.4535655,13.1752522 21.5932267,13.3634729 C22.1633191,14.1311834 22.1492958,15.1173751 21.5657524,15.6203057 L21.319342,15.8521016 C21.4873361,15.9610396 21.6447411,16.0993304 21.7815404,16.2642504 C22.1140943,16.6652029 22.2878122,17.1635943 22.2594793,17.6323305 C22.2368702,17.9927338 22.09263,18.3131931 21.8528019,18.5347004 L20.2272372,20.0416764 C20.0437888,20.2117408 19.8171256,20.309785 19.5675671,20.3388351 C17.9508743,22.3898961 15.0929713,25.594187 12.3495447,26.5967194 C12.3538376,26.7265372 12.320067,26.8557498 12.251095,26.9655957 L8.79811224,31.4767335 C8.36862205,31.367537 7.94565935,31.2419893 7.52992584,31.1007922 L10.9088594,26.8266997 L5.86445743,23.7367937 C5.86445743,23.7367937 5.00473977,23.2099573 5.00473977,23.2096547 L4.75432268,23.0562336 L1.05196871,27.0931639 C0.779949648,26.8243892 0.516953091,26.5465033 0.263474187,26.2600015 Z M13.4241865,17.4752781 L10.2022539,17.4752781 L10.2022539,17.4752781 L10.2022539,18.8917751 C10.2022539,19.0582082 10.3304675,19.1937755 10.4881587,19.1937755 L17.0485142,19.1937755 C17.1767277,19.1937755 17.2814736,19.1014808 17.3172475,18.9780177 C16.8896782,18.9150757 16.4686913,18.6472697 16.1621808,18.2345156 C15.9844562,17.9957598 15.8639698,17.735519 15.7990044,17.4752781 L13.7419429,17.4752781 C13.9628213,17.54702 14.1233932,17.7644328 14.1233932,18.0215001 C14.1233932,18.3370312 13.8814799,18.5928196 13.5830647,18.5928196 C13.2846495,18.5928196 13.0427362,18.3370312 13.0427362,18.0215001 C13.0427362,17.7644328 13.2033081,17.54702 13.4241865,17.4752781 Z M19.5378032,11.4440455 C19.6373977,11.4440455 19.8091122,11.5308933 19.9504906,11.7215348 C20.1270704,11.9593828 20.1296461,12.1830084 20.1073232,12.224768 L18.4147899,13.6318841 C18.4147899,13.6318841 18.4087798,13.6340024 18.3941841,13.6340024 C18.2945896,13.6340024 18.1228751,13.5474572 17.9820691,13.3568156 C17.8054893,13.118665 17.8023412,12.895342 17.8252365,12.8538851 L19.5378032,11.4440455 Z M17.5255945,17.7330981 C17.5227326,17.7337033 17.5178674,17.7340059 17.5109988,17.7340059 C17.4114043,17.7340059 17.2399759,17.6474607 17.0985976,17.4571218 C16.9220178,17.2186686 16.9191559,16.9959508 16.941765,16.9538887 C16.9509231,16.9460209 16.9603674,16.9375479 16.9695255,16.929075 L20.2378263,13.8561149 L20.2438363,13.86368 C20.3434308,13.86368 20.5151453,13.9502252 20.6562375,14.1411694 C20.8333897,14.37932 20.8356792,14.6023404 20.8133563,14.6444025 C20.803912,14.6522703 20.7950401,14.660138 20.7855958,14.6689136 L17.5255945,17.7330981 Z M17.3378532,11.6573824 L17.0894395,11.8640621 C16.4890108,12.3624535 16.4695499,13.3598417 17.0453661,14.1348147 C17.2044883,14.3496647 17.3953776,14.5221499 17.6020075,14.650152 L16.1893689,15.9779855 C16.1072321,16.0484926 16.0379739,16.1295909 15.9787324,16.2173466 C15.9750119,16.2173466 15.9724361,16.2161361 15.969288,16.2161361 L10.2022539,16.2161361 L10.2022539,8.89913219 C10.2148463,8.69093952 10.2131292,8.49787713 10.2022539,8.31389291 L10.2022539,4.19361475 L17.3338466,4.19361475 L17.3338466,11.6119916 C17.3338466,11.6274245 17.3369947,11.6422522 17.3378532,11.6573824 Z M18.5882216,8.82590163 C18.8065853,8.46640615 19.119392,8.17772038 19.3320319,8.13959207 C19.3912734,8.12930348 19.4462221,8.13626341 19.5277865,8.20313925 C19.6411181,8.29664439 19.7066559,8.73784339 19.6216572,9.11942908 C19.5466751,9.45320308 19.3400452,9.85445814 19.0089223,10.3116952 C18.9316507,10.3501261 18.8575273,10.3946092 18.7897,10.4508938 L18.5241148,10.6714933 L18.5241148,8.9106312 C18.5472963,8.88460712 18.569333,8.85707 18.5882216,8.82590163 Z M10.4881587,1.94586019 L17.048228,1.94586019 C17.2059192,1.94586019 17.3338466,2.08142751 17.3338466,2.2478606 L17.3338466,2.93447276 L10.2022539,2.93447276 L10.2022539,2.2478606 C10.2022539,2.08142751 10.3304675,1.94586019 10.4881587,1.94586019 Z M11.2791905,25.5984235 L9.03402238,24.2230809 L6.18785322,22.4794673 L6.43140174,22.1429699 C6.43970127,22.1317735 6.44771462,22.1196692 6.45486939,22.1081702 C6.55646719,21.9459736 7.42219486,20.4368794 6.52727571,17.3956929 C5.90566893,15.2825978 6.58708962,11.6921821 7.58131704,9.2389583 C7.85062273,8.57988325 8.43502469,7.70656343 8.84456396,7.75044124 C8.88291355,7.79855554 8.9762118,7.95016095 9.01141329,8.296947 L9.01141329,8.91274944 C8.97277751,9.4005497 8.8465673,10.0783863 8.55264917,11.0137403 C8.51887864,11.1202575 8.51315482,11.2343398 8.53519152,11.343883 L8.97048798,13.4926855 C8.97993229,13.5380764 8.99424183,13.5810464 9.01169948,13.6218981 L9.01169948,18.8914725 C9.01169948,19.7523855 9.67394538,20.4523123 10.4881587,20.4523123 L17.048228,20.4523123 C17.5361836,20.4523123 17.9689043,20.199334 18.2376376,19.8119988 C18.2731253,19.8477062 18.3109025,19.8803876 18.3478212,19.9127664 C16.9786836,21.5937407 13.8345896,25.1290822 11.2791905,25.5984235 Z M21.0680663,17.5878474 L19.4502288,19.0896791 C19.4499426,19.0896791 19.4407845,19.0933104 19.4201787,19.0933104 C19.3174362,19.0933104 19.1485835,19.0149355 19.0037709,18.8403321 C18.8154572,18.6127727 18.7814005,18.4324197 18.8014338,18.3894497 L20.4398771,16.844648 C20.4398771,16.844648 20.448749,16.8407141 20.469641,16.8407141 C20.5723835,16.8407141 20.7418086,16.9196942 20.8871936,17.0952055 C21.0749349,17.3215545 21.0889582,17.5445748 21.0680663,17.5878474 Z" id="Combined-Shape"></path>
            </g>
        </g>
    </g>
</svg>